<svg xmlns="http://www.w3.org/2000/svg" viewBox="0 0 529.77 462.85"><defs><style>.cls-1{fill:#ececec;}.cls-2{fill:#dedede;}.cls-3{fill:#d15754;}.cls-4{fill:#9b3434;}.cls-5{fill:#1e1e1e;}.cls-6{fill:#f97770;}.cls-7{fill:#a53434;}.cls-8{fill:#121e21;}.cls-9{fill:#22393d;}.cls-10{fill:#914c43;}.cls-11{fill:#e86767;}.cls-12{fill:#6d3530;}.cls-13{fill:#e0a4ab;}.cls-14{fill:#ffcdc2;}.cls-15{fill:#414042;}.cls-16{fill:#dd6680;}.cls-17{fill:#535254;}.cls-18{opacity:0.1;}.cls-19{fill:#ff7bac;}.cls-20,.cls-22,.cls-23{fill:none;}.cls-20{stroke:#cfcfcf;stroke-miterlimit:10;stroke-width:3px;}.cls-21{fill:#ffb335;}.cls-22,.cls-23{stroke:#414042;}.cls-23{stroke-linecap:round;stroke-linejoin:round;stroke-width:2px;}.cls-24{fill:#231f20;}.cls-25{fill:#5dba3e;}.cls-26{fill:#4c9b2f;}.cls-27{fill:#e6e6e6;}</style></defs><g id="Layer_2" data-name="Layer 2"><g id="Layer_1-2" data-name="Layer 1"><path class="cls-1" d="M59.65,36.07H162.41S161,21.53,148.61,24.88,137.84,3.74,119.9,12c-14,6.44-24.37-17.72-34.9,1.46C75.48,30.82,66,16.12,59.65,36.07Z"/><path class="cls-1" d="M235.8,235.9H168.28s.95-9.85,9.07-7.58,7.08-14.32,18.87-8.72c9.19,4.36,16-12,22.93,1C225.4,232.35,231.6,222.38,235.8,235.9Z"/><path class="cls-1" d="M495.15,60.4H398.42s1.36-14.12,13-10.86S421.55,29,438.43,37c13.17,6.25,22.95-17.2,32.86,1.43C480.25,55.31,489.13,41,495.15,60.4Z"/><polygon class="cls-2" points="103.42 331.04 90.87 331.25 90.87 296.4 82.68 296.4 82.68 287.26 63.92 287.26 54.94 296.97 54.94 302.97 45.7 312.97 45.7 408.1 39.09 408.1 39.09 346.11 31.7 346.11 31.7 337.54 9.51 337.54 9.51 345.82 0 345.82 0 408.1 0 410.67 302.45 410.67 302.45 364 294.26 358.39 294.26 328.54 281.19 318.97 281.19 311.4 260.72 289.26 252 289.26 252 376.68 247.77 376.68 247.77 404.67 234.83 404.67 234.83 291.83 196.53 291.83 196.53 347.54 180.41 347.54 180.41 321.54 161.92 321.54 161.92 329.68 150.7 329.68 143.43 321.83 143.43 283.55 121.25 270.69 103.42 277.76 103.42 331.04"/><path class="cls-2" d="M138.21,392.12h37.1v-8.35h7.51v-6.53h11.41v6.65h8v18.22h6.11v-42.6l20.59-6.32v16.92l15.39,15.39v-7.85h18.24v12.44h2.65V378.47h19.57v11.62h7.54v-36.9h9.78V324.25A11.21,11.21,0,0,1,313.3,313h0a53.77,53.77,0,0,0,14.47-13.45,114.84,114.84,0,0,0,13.86-23.85v61.35h5.71v36.49h16.71v16.51h11.21v-31h11.22V346.67h9V332.2h15.9v14.47h9.38V374.6h5.91v-6.12h36.89V363H478v5.91h22v15.9h9.58v7.54h20.18v18.34H138.21Z"/><path class="cls-3" d="M439.08,215.4s-120.26,11.46-216.94-39.66c0,0,28.71-31.87,108.7-23S439.08,215.4,439.08,215.4Z"/><path class="cls-4" d="M292.43,202l-.5-.2c14-34.46,24.86-42.44,25-42.51l.32.44C317.11,159.81,306.38,167.74,292.43,202Z"/><path class="cls-4" d="M417.22,213.82c-.18-14.06-5.3-21.06-5.35-21.13l.43-.33c.05.07,5.28,7.2,5.47,21.46Z"/><path class="cls-5" d="M343.5,123.89a1.73,1.73,0,0,1-.32,0,1.63,1.63,0,0,1-1.28-1.93l2-9.75a1.64,1.64,0,1,1,3.21.65l-2,9.75A1.64,1.64,0,0,1,343.5,123.89Z"/><path class="cls-4" d="M363.89,212.65l-.54-.06c3.36-31.35-6.07-44.07-6.16-44.19l.43-.34C357.72,168.19,367.28,181.05,363.89,212.65Z"/><path class="cls-4" d="M243.56,184l-.46-.3c12.13-18.89,22.06-22.61,22.16-22.64l.19.51C265.35,161.59,255.58,165.26,243.56,184Z"/><path class="cls-6" d="M439.1,215.47s-90.05-86.31-217-40.17c0,0,40.36-70.17,122.22-55.81S439.1,215.47,439.1,215.47Z"/><circle class="cls-7" cx="417.63" cy="215.51" r="1.7"/><circle class="cls-7" cx="363.29" cy="213.82" r="1.7"/><circle class="cls-7" cx="242.47" cy="185.6" r="1.7"/><circle class="cls-7" cx="221.16" cy="176.31" r="1.7"/><path class="cls-3" d="M398.8,188.06c-8.86-43.27-45.82-63.93-53.14-67.63a.54.54,0,0,0-.57,0,.53.53,0,0,0-.22.52,101.73,101.73,0,0,1-4.61,45.91l-.52-.18a101.09,101.09,0,0,0,4.59-45.65,1.1,1.1,0,0,1,1.58-1.14c7.36,3.73,44.52,24.5,53.42,68Z"/><path class="cls-3" d="M275.85,163l-.48-.26c13.6-25,31.87-35.37,44.81-39.63,14-4.62,25-3.29,25.1-3.28l-.07.54c-.11,0-11-1.32-24.89,3.26C307.49,127.89,289.35,138.15,275.85,163Z"/><circle class="cls-7" cx="275.61" cy="163.62" r="1.7"/><circle class="cls-7" cx="340" cy="167.22" r="1.7"/><circle class="cls-7" cx="399.07" cy="188.73" r="1.7"/><path class="cls-5" d="M282.37,202.34s-2.32,10.88,3.7,20.3,15.19,3.27,15.19,3.27l-2-23.57Z"/><path class="cls-8" d="M283.85,432.24s-.25,11.13-2.35,15.31-.87,12.22,11.09,13.39,11.52-10.08,9-15.23-1.24-17.33-1.24-17.33Z"/><path class="cls-8" d="M318.88,434.31s.69,11.09-1,15.58S318,462.16,330,461.45s10.58-11.8,7.63-16.52-2.69-17-2.69-17Z"/><path class="cls-9" d="M283.66,350.52s-2.93,72.73-2.19,87c0,0,14.73,2.31,21,1,0,0,3.35-86.13,4.91-99.84l8.85,99.09s14.73,2.9,21-2.11L329,328.9,322.72,258l-39.06,3Z"/><path class="cls-10" d="M295,276.66s2.16,40,1.88,49.87-1.09,43.61-1.09,43.61-19.73.54-24.52-15.68c-.56-1.89,1.38-19.94,2.39-34.71,1.16-17-6.22-76.75,3.83-75.9s19.83,4.81,20.32,11S295,276.66,295,276.66Z"/><path class="cls-6" d="M293.36,212.7a3.57,3.57,0,0,0-1.66,2.88c-.08,1.83.49,3.67.49,5.52l4.35,90.16s13.67,2.07,23.44-2.52l-2.62-96Z"/><path class="cls-11" d="M307.63,221.73a.28.28,0,0,1-.27-.24l-.36-2.84a9.56,9.56,0,0,0-.51-2.43.28.28,0,0,1,.12-.36.27.27,0,0,1,.37.12,9,9,0,0,1,.56,2.6c.23,1.75.36,2.84.36,2.84a.27.27,0,0,1-.23.31Z"/><path class="cls-11" d="M293.53,221.73a.28.28,0,0,1-.27-.23s-.17-1.13-.44-2.87a5.87,5.87,0,0,1,0-2.62.28.28,0,0,1,.52.18,5.54,5.54,0,0,0,0,2.36c.27,1.74.44,2.87.44,2.87a.27.27,0,0,1-.23.31Z"/><path class="cls-11" d="M295.36,222.62a.28.28,0,0,1-.27-.23s-.17-1.13-.44-2.86a5.91,5.91,0,0,1,0-2.63.27.27,0,0,1,.35-.16.27.27,0,0,1,.16.35,5.6,5.6,0,0,0,0,2.35c.27,1.74.44,2.87.44,2.87a.27.27,0,0,1-.23.31Z"/><path class="cls-11" d="M297.39,223.22a.27.27,0,0,1-.27-.23s-.17-1.12-.44-2.86a5.93,5.93,0,0,1,0-2.63.27.27,0,1,1,.51.19,5.62,5.62,0,0,0,0,2.35c.27,1.74.44,2.87.44,2.87a.27.27,0,0,1-.23.31Z"/><path class="cls-11" d="M299.61,223.47a.28.28,0,0,1-.27-.24s-.17-1.12-.44-2.86a5.93,5.93,0,0,1,0-2.63.28.28,0,0,1,.35-.16.27.27,0,0,1,.17.35,5.51,5.51,0,0,0,0,2.36c.27,1.74.44,2.86.44,2.86a.27.27,0,0,1-.22.31Z"/><path class="cls-11" d="M301.88,223.47a.29.29,0,0,1-.27-.23s-.22-1.2-.49-2.92a21.83,21.83,0,0,1-.29-2.48.28.28,0,0,1,.27-.28h0a.27.27,0,0,1,.27.27,19.13,19.13,0,0,0,.28,2.4c.27,1.72.49,2.9.49,2.91a.27.27,0,0,1-.22.32Z"/><path class="cls-11" d="M304,223.11a.28.28,0,0,1-.28-.24s-.13-1.1-.36-2.84a9,9,0,0,0-.51-2.43.27.27,0,0,1,.13-.36.27.27,0,0,1,.36.11,9.16,9.16,0,0,1,.56,2.61c.23,1.74.37,2.84.37,2.84a.28.28,0,0,1-.24.31Z"/><path class="cls-11" d="M305.93,222.49a.28.28,0,0,1-.27-.24l-.36-2.84a9.56,9.56,0,0,0-.51-2.43.27.27,0,0,1,.12-.36.27.27,0,0,1,.37.12,9.48,9.48,0,0,1,.56,2.6c.22,1.75.36,2.84.36,2.84a.27.27,0,0,1-.23.31Z"/><path class="cls-10" d="M292.19,220.27s-7.46,1.45-15,3.24c-7.09,1.7-10.38,8.31-14,29.12-6.29,36.55,8.84,68.38,8.92,68,0,0,9.75-.63,13.59-4l-5.91-18.83s.41-39.64.82-52.88S292.19,220.27,292.19,220.27Z"/><path class="cls-12" d="M292.19,220.27l-10.89,2.66,1.37,27.43,4.81,12.6h2.41l-2,3.4,7.49,21.29S295.34,235.64,292.19,220.27Z"/><path class="cls-6" d="M279.87,222.72a163.13,163.13,0,0,1,0,34.51c-2,19.11,0,40.56,0,40.56l2.92,2.43s.16-31.1,1.22-46.39,1.28-29.62,0-31.48Z"/><path class="cls-6" d="M279.87,297.79s-7.17-1-10.65,9.35c-5.8,17.22-.25,36,11.75,34.54C295,340,293.92,307,279.87,297.79Z"/><path class="cls-13" d="M288.69,208.06s3.92,4.05,4.67,6.54c0,0,4.22,4.52,13.42,0s6.07-10.62,4.48-12.07S288.69,208.06,288.69,208.06Z"/><path class="cls-10" d="M328.12,223.19s14.63,2.64,22.27,29.22,12.46,36.77,3.4,39-20.47-9.28-20.47-9.28,3.9,40.91,8.05,65.18c2.86,16.79-23.06,22.85-23.37,22.8l-2.34-87.87s.82-53.95,1.59-54.39A94.74,94.74,0,0,1,328.12,223.19Z"/><polygon class="cls-12" points="329.11 223.19 315.79 287.33 312.81 215.03 329.11 223.19"/><path class="cls-13" d="M320,252.25s-3.87.29-4.85,1.55-.67,1.4,2.78,2.08,4.28,0,4.28,0Z"/><path class="cls-14" d="M282.66,202.17s4.42,10.81,13.2,11,16.61-12.51,16.61-12.51-1.06-30.59-12.67-27-16.85,6-17.41,11.08S280.47,199.68,282.66,202.17Z"/><path class="cls-15" d="M295.41,179.57s5.06,4.49,8.89,6.19,4.26,4.14,4.26,4.14-3.73,7.65-1.29,10.94,3.44,7,1.29,10.41-3.05,6.05,0,9.13-4.16,8.6-1.72,12.53,3.4,8,0,12c0,0,8.39-3.93,6.91-10.94s5.84-3.5,1.48-16.56c0,0,1.06,2.65,8.92,3.5,0,0,6.16-22.3,2.45-34.93s-14.87-21.24-31.86-18.06-19,18.16-17,22.69c1,2.29,2.44,5.24.42,9.91s.32,5.84,2.23,8-3.08,8.28.32,12.53-.39,6.51,1.49,10.19c2.76,5.42-4.78,6.48,5.73,11.47,0,0-3-6.58-.95-9.34s-3.39-6.47-1.6-9.67c3-5.31-2.23-6.9-.95-10.09s3.46-5.31.32-9.41c-5.6-7.3,2.34-8.57.32-12.89s-.22-6.58-.22-6.58S293.43,182.4,295.41,179.57Z"/><path class="cls-14" d="M285.25,321.68c-1.7-2.91-3.56-9.61-3.56-9.61l-9.29,2.23s3,6.49,3.37,8.15-1.07,5-1.15,7.87c0,1.43,1,3.86,1.83,5.43s1.84,1.17,1.84,1.17c1.31,1.51,2.26,1.35,2.33.92.59.49,1.88,1.68,2.59.88s-2.16-3-3.06-5c-.79-1.79,2.07-8.36,2.07-8.36s-.09.21,1.4,1.39-.65,5.59,2.18,5.58c1.48,0,.68-2,.66-5S286.92,324.55,285.25,321.68Z"/><path class="cls-13" d="M277.69,336.22a15.43,15.43,0,0,1-1.11-2.09,11,11,0,0,1-.75-2.27,6.79,6.79,0,0,1,0-2.42,9.07,9.07,0,0,1,.64-2.29c0,.8-.06,1.58-.13,2.35a9.18,9.18,0,0,0,0,2.28A21.14,21.14,0,0,0,277.69,336.22Z"/><path class="cls-13" d="M280.23,337.14a6.31,6.31,0,0,1-1-1,7.71,7.71,0,0,1-1.69-3.75,6.64,6.64,0,0,1-.08-1.41,9,9,0,0,1,.21-1.38,10.87,10.87,0,0,1,.94-2.57c-.1.91-.27,1.8-.43,2.68-.08.44-.15.88-.2,1.31,0,.21,0,.43,0,.65a4.89,4.89,0,0,0,.05.66,7.78,7.78,0,0,0,.71,2.53A9,9,0,0,0,280.23,337.14Z"/><path class="cls-10" d="M279.72,295.93l5.17,20.27s-3.5,4-12.7,4.39c-2.59-4.95-5.06-13.16-7.48-22.88Z"/><path class="cls-3" d="M307.11,187.6l5.36-2.13-.24,3.7-3.67.73A4.08,4.08,0,0,0,307.11,187.6Z"/><path class="cls-3" d="M285.8,184.42l-3.87-1.52v3.29l2.23.48S284.36,184.82,285.8,184.42Z"/><path class="cls-15" d="M298.87,187.28a2.17,2.17,0,0,1,1.66-.87,3.22,3.22,0,0,1,1.88.47,3.82,3.82,0,0,1,1.31,1.31,4.38,4.38,0,0,1,.37.83,3.93,3.93,0,0,1,.14.91,4.51,4.51,0,0,1-.79-.43c-.24-.14-.46-.29-.67-.44-.43-.27-.81-.56-1.2-.77a7.73,7.73,0,0,0-1.18-.61A6.92,6.92,0,0,0,298.87,187.28Z"/><path class="cls-15" d="M292.09,187.5a6.36,6.36,0,0,0-1.57.19,7.65,7.65,0,0,0-1.25.42c-.42.16-.83.4-1.3.6a7.16,7.16,0,0,1-.73.34,5,5,0,0,1-.83.32,3.8,3.8,0,0,1,.26-.89,5.41,5.41,0,0,1,.48-.76,3.81,3.81,0,0,1,1.48-1.11,3.27,3.27,0,0,1,1.93-.21A2.19,2.19,0,0,1,292.09,187.5Z"/><path class="cls-16" d="M290.35,203.16c.94.12,1.66.23,2.34.3a15.34,15.34,0,0,0,1.85.12,2.16,2.16,0,0,0,.44,0,2.26,2.26,0,0,0,.45,0c.15,0,.3,0,.47,0l.49,0h.26l.27,0,.57,0a9,9,0,0,1,1.3,0,3.55,3.55,0,0,1-.28.63,4.38,4.38,0,0,1-.37.58c-.15.16-.3.33-.47.48a3.06,3.06,0,0,1-.53.42l-.6.34c-.22.09-.44.16-.67.23a4.75,4.75,0,0,1-1.41.18,4.59,4.59,0,0,1-2.63-.89A3.59,3.59,0,0,1,290.35,203.16Z"/><path class="cls-13" d="M293.66,194.45a14.68,14.68,0,0,1-.29,1.55c-.12.49-.26,1-.36,1.44a2.72,2.72,0,0,0-.1.62,1.69,1.69,0,0,0,0,.28l0,.31a2.92,2.92,0,0,0,.15.6l.32.73a1.66,1.66,0,0,1-.83-.29A1.77,1.77,0,0,1,292,199a2.32,2.32,0,0,1-.19-.92,3.27,3.27,0,0,1,.17-.89,7.65,7.65,0,0,1,.69-1.44A7,7,0,0,1,293.66,194.45Z"/><path class="cls-12" d="M331.64,259.89l10,8.51s-3.75-24.34-8.63-29Z"/><path class="cls-12" d="M333.32,282.16l3,28.48c-9.62-7.64-14.17-41.49-14.17-41.49Z"/><path class="cls-12" d="M278.93,285s-7.51-21.56-1.53-43.11L280,255.62Z"/><path class="cls-5" d="M317,188.2s-.31,7,2.4,10,3.48,8.14.54,13.84-1.84,7.46-1.84,7.46-5-.43-2.48-6.41,4.15-9.21,2.41-12.07S314.88,194.54,317,188.2Z"/><path class="cls-17" d="M317,188.2a14.58,14.58,0,0,0,0,12.85c3.4,6.69-6.06,12.27-1.49,17.36,0,0-2.32-1.34,3.07-10.85C322.36,201,314.06,200,317,188.2Z"/><path class="cls-5" d="M333,164.9,310.47,286.17c-.58,3.81-2.54,5.87-5.53,5.79a2.91,2.91,0,0,1-2.16-.87c-.74-.8-1.59-2.63-1.41-6.79a1.64,1.64,0,1,0-3.27-.14c-.19,4.31.56,7.31,2.29,9.16a6.19,6.19,0,0,0,4.47,1.92h.21c3.58,0,7.67-2.24,8.63-8.52l22.52-121.24C335.11,165.27,334,165.08,333,164.9Z"/><path class="cls-14" d="M324.65,258.12s-3.79-9.83-5.94-9.36c-3.79.83-7.31,2.78-6.78,4.11s5.94-1.27,5.94-1.27a9.13,9.13,0,0,1,2.53,4.61s-4.33-2.54-5.93-1.34-5.28,3-4.48,4.34,5.08-1.8,5.08-1.8l3.46,2.28s-8.53.46-8.33,1.93c.17,1.22,4.46.33,6.14.39,1.88.06,1.59,1.34-.2,1.67-2.54.47-5.19.35-5.19,1.76s6.32.07,10.29.14S324.65,258.12,324.65,258.12Z"/><path class="cls-10" d="M325,255.62l24.87,19.12-12.78,7.93-16.33-15.55S325.26,260.45,325,255.62Z"/><ellipse class="cls-15" cx="299.91" cy="192.96" rx="1.49" ry="1.18" transform="translate(82.76 475.85) rotate(-85.25)"/><path class="cls-15" d="M299.12,191.89a3.33,3.33,0,0,1,2.59-.37,2.88,2.88,0,0,1-1.26.46A3,3,0,0,1,299.12,191.89Z"/><ellipse class="cls-15" cx="289.93" cy="192.44" rx="1.49" ry="1.18" transform="translate(74.13 465.43) rotate(-85.25)"/><path class="cls-15" d="M288,191.59a3.35,3.35,0,0,1,2.6-.37,2.93,2.93,0,0,1-1.26.46A3.07,3.07,0,0,1,288,191.59Z"/><g class="cls-18"><ellipse class="cls-19" cx="301.7" cy="197.59" rx="2.28" ry="1.64"/></g><g class="cls-18"><ellipse class="cls-19" cx="287.13" cy="197.59" rx="1.98" ry="1.63"/></g><line class="cls-20" x1="1.25" y1="461.35" x2="528.51" y2="461.35"/><rect class="cls-15" x="147.77" y="102.25" width="4.87" height="7.02"/><ellipse class="cls-21" cx="89.23" cy="86.46" rx="11.46" ry="17.8"/><ellipse class="cls-21" cx="210.33" cy="86.46" rx="11.46" ry="17.8"/><path class="cls-22" d="M207.45,72.48s-8.36,16.94,3.72,29.64"/><path class="cls-22" d="M213.21,72.48s8.36,16.94-3.71,29.64"/><rect class="cls-15" x="207.9" y="107.95" width="4.87" height="7.02"/><polygon class="cls-15" points="203.83 101 216.83 101 214.36 111.37 206.31 111.37 203.83 101"/><rect class="cls-15" x="207.9" y="50.57" width="4.87" height="13" rx="2.35"/><path class="cls-15" d="M201.29,75.56h18.1s1.59-15.63-8.94-15.63S201.29,75.56,201.29,75.56Z"/><path class="cls-15" d="M146.08,141.18h8.26a0,0,0,0,1,0,0V374a4,4,0,0,1-4,4h-.28a4,4,0,0,1-4-4V141.18A0,0,0,0,1,146.08,141.18Z"/><path class="cls-22" d="M86.35,72.48S78,89.42,90.06,102.12"/><path class="cls-22" d="M92.11,72.48s8.36,16.94-3.71,29.64"/><rect class="cls-15" x="86.8" y="107.95" width="4.87" height="7.02"/><polygon class="cls-15" points="82.73 101 95.73 101 93.26 111.37 85.21 111.37 82.73 101"/><polygon class="cls-15" points="80.13 117.13 89.25 112.59 98.37 117.13 89.25 123.13 80.13 117.13"/><line class="cls-23" x1="77.78" y1="117.13" x2="145.3" y2="117.13"/><path class="cls-23" d="M121.84,127.17a8.67,8.67,0,1,1,8.67,8.67s-9.08,2.1-23.32-8.67c0,0-8.17-6.22-15.85-4.77-2.47.46-4.54,2-4.54,4.54a4.54,4.54,0,1,0,9.08,0"/><rect class="cls-15" x="86.8" y="50.57" width="4.87" height="13" rx="2.35"/><rect class="cls-15" x="127.97" y="109.27" width="4.87" height="10" rx="2.35"/><polygon class="cls-15" points="220.29 117.13 211.16 112.59 202.04 117.13 211.16 123.13 220.29 117.13"/><line class="cls-23" x1="222.64" y1="117.13" x2="155.12" y2="117.13"/><path class="cls-23" d="M178.57,127.17a8.67,8.67,0,1,0-8.66,8.67s9.08,2.1,23.32-8.67c0,0,8.17-6.22,15.85-4.77,2.46.46,4.54,2,4.54,4.54a4.54,4.54,0,1,1-9.08,0"/><rect class="cls-15" x="167.57" y="109.27" width="4.87" height="10" rx="2.35" transform="translate(340.01 228.54) rotate(-180)"/><path class="cls-15" d="M80.19,75.56h18.1s1.59-15.63-8.94-15.63S80.19,75.56,80.19,75.56Z"/><polygon class="cls-15" points="146.49 98.03 150.21 90.2 153.92 98.03 146.49 98.03"/><circle class="cls-15" cx="150.21" cy="356.66" r="8.26"/><circle class="cls-15" cx="150.21" cy="101" r="4.76"/><polygon class="cls-15" points="142.67 111.37 142.67 137.26 146.59 141.18 153.92 141.18 157.84 137.26 157.84 110.3 142.67 111.37"/><rect class="cls-15" x="140.91" y="373.48" width="18.6" height="6.08" rx="1.94"/><rect class="cls-15" x="139.66" y="107.26" width="21.19" height="6.08" rx="1.94"/><ellipse class="cls-15" cx="150.26" cy="128.28" rx="11.87" ry="3.2"/><polygon class="cls-24" points="129.26 460.06 171.16 460.06 150.21 445.82 129.26 460.06"/><polygon class="cls-15" points="141.44 378.74 158.98 378.74 171.16 460.06 150.72 457.38 129.26 460.06 141.44 378.74"/><rect class="cls-15" x="142.78" y="238.18" width="14.86" height="19.19" rx="7.18"/><path class="cls-25" d="M423.85,461.08c-16.8-1.46-38.7-24.07-34.79-30.77,6.32-10.84,17.64,6.5,22.44,1.75,5.2-5.16-26.23-23.1-17-40.7,2.45-4.65,11-5.74,14.11-.17,3.18,5.79,4.87,14.45,9.23,12.72,7.61-3-11.08-41.51,7.07-42.24,10.28-.42,12.82,9.05,12.25,19.77-.39,7.4-4,20-.82,21.36,4.91,2.06,16.59-25.34,23.54-13.42,8.58,14.72-26.4,35.42-22.88,42.68,2.19,4.51,25.49-15.1,27.94-6.38C468.17,437.14,441.31,462.59,423.85,461.08Z"/><path class="cls-26" d="M447.18,438.21c-2.56,1.27-5.1,2.58-7.64,3.89s-5.06,2.66-7.56,4c-2.11,1.15-4.22,2.32-6.31,3.5q.78-5.75,1.4-11.51c.44-3.83.75-7.68,1.09-11.53,0-.45.06-.9.1-1.35,2.33-2.06,4.55-4.21,6.78-6.36s4.47-4.49,6.61-6.83,4.22-4.73,6.16-7.24a38.37,38.37,0,0,0,5-8.07,50.79,50.79,0,0,1-5.84,7.38q-1.59,1.74-3.24,3.42t-3.32,3.34q-3.35,3.32-6.79,6.55c-1.7,1.63-3.44,3.22-5.18,4.81q.24-3.6.44-7.21.15-2.9.22-5.79c.05-1.93.15-3.86.16-5.79l0-5.8c0-1.93-.07-3.87-.11-5.8a145,145,0,0,0-2.29-23.06c.62,7.7.7,15.39.66,23.08l-.09,5.77-.17,5.76c-.05,1.92-.15,3.84-.22,5.77s-.15,3.84-.27,5.76c-.12,2.69-.27,5.38-.42,8.07l-.33-.21c-.6-.39-1.2-.81-1.79-1.23-1.18-.86-2.36-1.73-3.52-2.62q-3.48-2.7-6.8-5.59a87,87,0,0,1-6.35-6.09,34.82,34.82,0,0,1-2.82-3.36,13.45,13.45,0,0,1-2.09-3.85,12.66,12.66,0,0,0,1.63,4.15,33.51,33.51,0,0,0,2.54,3.69,66.3,66.3,0,0,0,6,6.61c2.12,2.08,4.36,4.05,6.66,5.94,1.16,1,2.32,1.87,3.54,2.75.6.45,1.21.88,1.84,1.31.32.21.64.42,1,.62l.34.19c-.25,4.22-.53,8.45-.81,12.67l-.82,11.88q-2.38-1.23-4.78-2.42c-1.87-.94-3.76-1.85-5.66-2.75s-3.79-1.78-5.71-2.65-3.83-1.71-5.78-2.5c1.76,1.14,3.56,2.24,5.36,3.32s3.61,2.14,5.43,3.17,3.65,2.07,5.49,3.07,3.66,2,5.5,3l-.63,9c.54-2.95,1-5.91,1.44-8.87l.2-.11c2.51-1.37,5-2.77,7.48-4.18s4.95-2.86,7.42-4.3,4.9-2.93,7.33-4.44,4.84-3,7.21-4.66C452.31,435.69,449.74,437,447.18,438.21Z"/><path class="cls-27" d="M446.78,21c-.78,2.68-1.66,5.33-2.56,8s-1.85,5.26-2.82,7.87-2,5.21-3,7.79l-1.59,3.87c-.57,1.28-1.1,2.56-1.69,3.83.38-1.35.82-2.67,1.23-4l1.33-4c.89-2.64,1.85-5.25,2.82-7.87s2-5.21,3-7.79S445.62,23.58,446.78,21Z"/><path class="cls-27" d="M475.09,98.9c-1.11,3.57-2.33,7.1-3.56,10.63s-2.51,7-3.81,10.54-2.63,7-4,10.45l-2.09,5.2c-.74,1.72-1.43,3.46-2.19,5.17.54-1.79,1.15-3.56,1.73-5.34l1.82-5.29c1.23-3.54,2.52-7,3.82-10.54s2.63-7,4-10.46S473.59,102.33,475.09,98.9Z"/><path class="cls-27" d="M442.45,207.79c-1.12,3.57-2.33,7.1-3.56,10.63s-2.52,7-3.81,10.54-2.64,7-4,10.45l-2.09,5.2c-.73,1.72-1.43,3.46-2.19,5.17.55-1.79,1.16-3.56,1.73-5.34l1.83-5.29c1.22-3.53,2.52-7,3.81-10.54s2.64-7,4-10.46S441,211.22,442.45,207.79Z"/><path class="cls-27" d="M408.48,306.92c-1.11,3.57-2.33,7.11-3.56,10.63s-2.52,7-3.81,10.54-2.64,7-4,10.46l-2.09,5.2c-.73,1.72-1.43,3.45-2.19,5.16.55-1.79,1.16-3.56,1.73-5.33l1.83-5.3c1.22-3.53,2.52-7,3.81-10.54s2.64-7,4-10.45S407,310.35,408.48,306.92Z"/><path class="cls-27" d="M509.07,68.34c-1.11,3.58-2.33,7.11-3.56,10.63S503,86,501.7,89.51s-2.63,7-4,10.46l-2.09,5.2c-.74,1.72-1.43,3.45-2.19,5.16.54-1.79,1.15-3.56,1.73-5.33L497,99.7c1.22-3.53,2.51-7,3.81-10.54s2.63-7,4-10.45S507.57,71.77,509.07,68.34Z"/><path class="cls-27" d="M438.08,143.44c-1.11,3.57-2.33,7.1-3.56,10.63s-2.51,7-3.81,10.53-2.63,7-4,10.46l-2.09,5.2c-.73,1.72-1.43,3.45-2.19,5.16.54-1.79,1.15-3.55,1.73-5.33l1.83-5.3c1.22-3.53,2.51-7,3.81-10.54s2.63-7,4-10.45S436.58,146.86,438.08,143.44Z"/><path class="cls-27" d="M467.24,44c-1.11,3.57-2.33,7.1-3.56,10.63s-2.52,7-3.81,10.54-2.64,7-4,10.45l-2.09,5.2c-.73,1.72-1.43,3.46-2.19,5.17.55-1.79,1.16-3.56,1.73-5.34l1.83-5.29c1.22-3.54,2.52-7,3.81-10.54s2.64-7,4-10.46S465.74,47.43,467.24,44Z"/><path class="cls-27" d="M379.31,335.65c-1.11,3.57-2.33,7.11-3.56,10.63s-2.52,7-3.81,10.54-2.64,7-4,10.46l-2.09,5.2c-.73,1.72-1.43,3.45-2.19,5.16.55-1.79,1.16-3.56,1.73-5.34l1.83-5.29c1.22-3.53,2.52-7,3.81-10.54s2.64-7,4-10.46S377.81,339.08,379.31,335.65Z"/><path class="cls-27" d="M408.47,236.22c-1.12,3.57-2.33,7.1-3.56,10.63s-2.52,7-3.81,10.53-2.64,7-4,10.46L395,273c-.73,1.72-1.43,3.45-2.19,5.16.55-1.79,1.16-3.55,1.73-5.33l1.83-5.3c1.22-3.53,2.51-7,3.81-10.53s2.64-7,4-10.46S407,239.64,408.47,236.22Z"/><path class="cls-27" d="M490.78,228.78c-1.11,3.57-2.33,7.11-3.56,10.63s-2.51,7-3.81,10.54-2.63,7-4,10.46l-2.09,5.2c-.74,1.72-1.43,3.45-2.19,5.16.54-1.79,1.15-3.56,1.73-5.33l1.82-5.3c1.23-3.53,2.52-7,3.82-10.54s2.63-7,4-10.45S489.28,232.21,490.78,228.78Z"/><path class="cls-27" d="M482.94,158.9c-1.11,3.57-2.32,7.1-3.56,10.63s-2.51,7-3.81,10.54-2.63,7-4,10.45l-2.09,5.2c-.73,1.72-1.43,3.45-2.19,5.16.55-1.79,1.15-3.55,1.73-5.33l1.83-5.3c1.22-3.53,2.51-7,3.81-10.53s2.63-7,4-10.46S481.44,162.32,482.94,158.9Z"/><path class="cls-27" d="M451.18,261.64c-1.11,3.57-2.33,7.1-3.56,10.63s-2.52,7-3.81,10.54-2.64,7-4,10.45l-2.09,5.2c-.73,1.72-1.43,3.46-2.19,5.17.55-1.79,1.16-3.56,1.73-5.34l1.83-5.29c1.22-3.53,2.52-7,3.81-10.54s2.64-7,4-10.46S449.68,265.07,451.18,261.64Z"/><path class="cls-27" d="M425.05,352.19c-1.11,3.58-2.33,7.11-3.56,10.63s-2.51,7-3.81,10.54-2.63,7-4,10.46l-2.09,5.2c-.73,1.72-1.42,3.45-2.18,5.16.54-1.79,1.15-3.56,1.73-5.33l1.82-5.3c1.23-3.53,2.52-7,3.82-10.54s2.63-7,4-10.45S423.55,355.62,425.05,352.19Z"/><path class="cls-27" d="M434.1,0c-1.11,3.57-2.33,7.1-3.56,10.63s-2.51,7-3.81,10.54-2.63,7-4,10.45l-2.09,5.2c-.74,1.72-1.43,3.46-2.19,5.17.54-1.79,1.15-3.56,1.73-5.34l1.83-5.3c1.22-3.53,2.51-7,3.81-10.53s2.63-7,4-10.46S432.6,3.43,434.1,0Z"/><path class="cls-27" d="M400.13,99.13c-1.11,3.57-2.32,7.11-3.56,10.63s-2.51,7-3.8,10.54-2.64,7-4,10.46l-2.09,5.2c-.73,1.72-1.43,3.45-2.19,5.16.55-1.79,1.15-3.56,1.73-5.34l1.83-5.29c1.22-3.53,2.51-7,3.81-10.54s2.64-7,4-10.46S398.63,102.56,400.13,99.13Z"/><path class="cls-27" d="M367.49,208c-1.11,3.57-2.33,7.11-3.56,10.63s-2.51,7-3.81,10.54-2.63,7-4,10.46l-2.09,5.2c-.73,1.72-1.43,3.45-2.18,5.16.54-1.79,1.15-3.56,1.72-5.34l1.83-5.29c1.23-3.53,2.52-7,3.81-10.54s2.64-7,4-10.45S366,211.45,367.49,208Z"/><path class="cls-27" d="M333.52,307.16c-1.11,3.57-2.33,7.1-3.56,10.63s-2.51,7-3.81,10.53-2.63,7-4,10.46L320,344c-.73,1.72-1.43,3.45-2.19,5.16.54-1.79,1.15-3.55,1.73-5.33l1.83-5.3c1.22-3.53,2.51-7,3.81-10.54s2.63-7,4-10.45S332,310.58,333.52,307.16Z"/><path class="cls-27" d="M434.11,68.58c-1.11,3.57-2.32,7.1-3.56,10.63s-2.51,7-3.8,10.53-2.64,7-4,10.46l-2.09,5.2c-.73,1.72-1.43,3.45-2.19,5.16.55-1.79,1.15-3.55,1.73-5.33l1.83-5.3c1.22-3.53,2.51-7,3.81-10.54s2.64-7,4-10.45S432.62,72,434.11,68.58Z"/><path class="cls-27" d="M363.13,143.67c-1.12,3.57-2.33,7.1-3.56,10.63s-2.52,7-3.81,10.54-2.64,7-4,10.45l-2.09,5.2c-.73,1.72-1.43,3.45-2.19,5.16.55-1.79,1.16-3.55,1.73-5.33L351,175c1.22-3.53,2.51-7,3.81-10.53s2.64-7,4-10.46S361.63,147.09,363.13,143.67Z"/><path class="cls-27" d="M392.28,44.23c-1.11,3.57-2.33,7.11-3.56,10.63s-2.51,7-3.81,10.54-2.63,7-4,10.46l-2.09,5.2c-.73,1.72-1.43,3.45-2.19,5.16.54-1.79,1.15-3.56,1.73-5.34l1.83-5.29c1.22-3.53,2.51-7,3.81-10.54s2.63-7,4-10.45S390.78,47.66,392.28,44.23Z"/><path class="cls-27" d="M304.35,335.88c-1.11,3.58-2.33,7.11-3.56,10.63s-2.51,7-3.81,10.54-2.63,7-4,10.46l-2.09,5.2c-.73,1.72-1.43,3.45-2.19,5.16.55-1.79,1.15-3.56,1.73-5.33l1.83-5.3c1.22-3.53,2.51-7,3.81-10.54s2.63-7,4-10.45S302.85,339.31,304.35,335.88Z"/><path class="cls-27" d="M333.51,236.45c-1.11,3.57-2.33,7.1-3.56,10.63s-2.52,7-3.81,10.54-2.64,7-4,10.45l-2.09,5.2c-.73,1.72-1.43,3.46-2.19,5.17.55-1.79,1.16-3.56,1.73-5.34l1.83-5.3c1.22-3.53,2.52-7,3.81-10.53s2.64-7,4-10.46S332,239.88,333.51,236.45Z"/><path class="cls-27" d="M408,159.13c-1.12,3.57-2.33,7.1-3.56,10.63s-2.52,7-3.81,10.54-2.64,7-4,10.45L394.5,196c-.73,1.72-1.43,3.46-2.19,5.17.55-1.79,1.16-3.56,1.73-5.34l1.83-5.3c1.22-3.53,2.52-7,3.81-10.53s2.64-7,4-10.46S406.49,162.56,408,159.13Z"/><path class="cls-27" d="M376.22,261.87c-1.11,3.57-2.33,7.11-3.56,10.63s-2.51,7-3.81,10.54-2.63,7-4,10.46l-2.09,5.2c-.74,1.72-1.43,3.45-2.19,5.16.54-1.79,1.15-3.56,1.73-5.34l1.83-5.29c1.22-3.53,2.51-7,3.81-10.54s2.63-7,4-10.45S374.72,265.3,376.22,261.87Z"/><path class="cls-27" d="M467.25,312c-1.11,3.57-2.33,7.11-3.56,10.63s-2.51,7-3.81,10.54-2.63,7-4,10.46l-2.09,5.2c-.73,1.72-1.43,3.45-2.19,5.16.55-1.79,1.15-3.56,1.73-5.33l1.83-5.3c1.22-3.53,2.51-7,3.81-10.54s2.63-7,4-10.45S465.75,315.46,467.25,312Z"/><path class="cls-27" d="M520.86,282.63c-1.12,3.57-2.33,7.11-3.56,10.63s-2.52,7-3.81,10.54-2.64,7-4,10.46l-2.09,5.2c-.73,1.72-1.43,3.45-2.19,5.16.55-1.79,1.16-3.56,1.73-5.33l1.83-5.3c1.22-3.53,2.52-7,3.81-10.54s2.64-7,4-10.45S519.36,286.06,520.86,282.63Z"/><path class="cls-27" d="M502.06,400.71c-1.12,3.58-2.33,7.11-3.56,10.63s-2.52,7-3.81,10.54-2.64,7-4,10.46l-2.09,5.2c-.73,1.72-1.43,3.45-2.19,5.16.55-1.79,1.16-3.56,1.73-5.33l1.83-5.3c1.22-3.53,2.52-7,3.81-10.54s2.64-7,4-10.45S500.56,404.14,502.06,400.71Z"/><path class="cls-27" d="M432.89,400.71c-1.12,3.58-2.33,7.11-3.56,10.63s-2.52,7-3.81,10.54-2.64,7-4,10.46l-2.09,5.2c-.73,1.72-1.43,3.45-2.19,5.16.55-1.79,1.16-3.56,1.73-5.33l1.83-5.3c1.22-3.53,2.52-7,3.81-10.54s2.64-7,4-10.45S431.39,404.14,432.89,400.71Z"/><path class="cls-27" d="M350.09,352.43c-1.11,3.57-2.32,7.1-3.56,10.63s-2.51,7-3.81,10.53-2.63,7-4,10.46l-2.09,5.2c-.73,1.72-1.43,3.45-2.19,5.16.55-1.79,1.15-3.55,1.73-5.33l1.83-5.3c1.22-3.53,2.51-7,3.81-10.54s2.63-7,4-10.45S348.59,355.85,350.09,352.43Z"/><path class="cls-27" d="M372.83,398.41c-1.11,3.57-2.33,7.1-3.56,10.63s-2.52,7-3.81,10.54-2.64,7-4,10.45l-2.09,5.2c-.73,1.72-1.43,3.45-2.19,5.16.55-1.79,1.16-3.55,1.73-5.33l1.83-5.3c1.22-3.53,2.52-7,3.81-10.53s2.64-7,4-10.46S371.33,401.83,372.83,398.41Z"/><path class="cls-27" d="M475.11,373.19c-1.12,3.57-2.33,7.1-3.56,10.63s-2.52,7-3.81,10.53-2.64,7-4,10.46l-2.09,5.2c-.73,1.72-1.43,3.45-2.19,5.16.55-1.79,1.16-3.55,1.73-5.33l1.83-5.3c1.22-3.53,2.52-7,3.81-10.53s2.64-7,4-10.46S473.61,376.61,475.11,373.19Z"/><path class="cls-27" d="M350.07,0c-1.11,3.57-2.33,7.1-3.56,10.63s-2.52,7-3.81,10.53-2.64,7-4,10.46l-2.09,5.2c-.73,1.72-1.43,3.45-2.19,5.16.55-1.79,1.16-3.55,1.73-5.33l1.83-5.3c1.22-3.53,2.52-7,3.81-10.54s2.64-7,4-10.45S348.57,3.44,350.07,0Z"/><path class="cls-27" d="M316.1,99.15c-1.11,3.57-2.33,7.1-3.56,10.63s-2.51,7-3.81,10.54-2.63,7-4,10.45l-2.09,5.2c-.73,1.72-1.43,3.45-2.19,5.16.54-1.78,1.15-3.55,1.73-5.33l1.83-5.3c1.22-3.53,2.51-7,3.81-10.53s2.63-7,4-10.46S314.6,102.58,316.1,99.15Z"/><path class="cls-27" d="M283.46,208c-1.12,3.57-2.33,7.1-3.56,10.63s-2.52,7-3.81,10.54-2.64,7-4,10.45l-2.09,5.2c-.73,1.72-1.43,3.46-2.19,5.17.55-1.79,1.16-3.56,1.73-5.34l1.83-5.3c1.22-3.53,2.52-7,3.81-10.53s2.64-7,4-10.46S282,211.47,283.46,208Z"/><path class="cls-27" d="M249.49,307.17c-1.11,3.57-2.33,7.11-3.56,10.63s-2.51,7-3.81,10.54-2.63,7-4,10.46L236,344c-.73,1.73-1.42,3.46-2.18,5.17.54-1.79,1.15-3.56,1.73-5.34l1.82-5.29c1.23-3.53,2.52-7,3.82-10.54s2.63-7,4-10.46S248,310.6,249.49,307.17Z"/><path class="cls-27" d="M350.08,68.59c-1.11,3.57-2.33,7.11-3.56,10.63s-2.51,7-3.81,10.54-2.63,7-4,10.46l-2.09,5.2c-.73,1.72-1.43,3.45-2.19,5.16.54-1.79,1.15-3.56,1.73-5.34L338,100c1.22-3.53,2.51-7,3.81-10.54s2.63-7,4-10.45S348.58,72,350.08,68.59Z"/><path class="cls-27" d="M279.09,143.68c-1.11,3.57-2.32,7.11-3.56,10.63s-2.51,7-3.81,10.54-2.63,7-4,10.46l-2.09,5.2c-.73,1.72-1.43,3.45-2.19,5.16.55-1.79,1.15-3.56,1.73-5.33L267,175c1.22-3.53,2.51-7,3.81-10.54s2.63-7,4-10.45S277.59,147.11,279.09,143.68Z"/><path class="cls-27" d="M308.25,44.25c-1.11,3.57-2.33,7.1-3.56,10.63s-2.51,7-3.81,10.54-2.63,7-4,10.45l-2.09,5.2c-.73,1.72-1.43,3.46-2.18,5.16.54-1.78,1.15-3.55,1.73-5.33l1.82-5.3c1.23-3.53,2.52-7,3.81-10.53s2.64-7,4-10.46S306.75,47.68,308.25,44.25Z"/><path class="cls-27" d="M220.32,335.9c-1.11,3.57-2.33,7.1-3.56,10.63s-2.51,7-3.81,10.54-2.63,7-4,10.45l-2.09,5.2c-.73,1.72-1.42,3.46-2.18,5.17.54-1.79,1.15-3.56,1.73-5.34l1.82-5.29c1.23-3.54,2.52-7,3.82-10.54s2.63-7,4-10.46S218.82,339.33,220.32,335.9Z"/><path class="cls-27" d="M212.48,400.71c-1.11,3.58-2.33,7.11-3.56,10.63s-2.51,7-3.81,10.54-2.63,7-4,10.46l-2.09,5.2c-.73,1.72-1.43,3.45-2.19,5.16.55-1.79,1.15-3.55,1.73-5.33l1.83-5.3c1.22-3.53,2.51-7,3.81-10.54s2.63-7,4-10.45S211,404.14,212.48,400.71Z"/><path class="cls-27" d="M249.48,236.47c-1.12,3.57-2.33,7.1-3.56,10.63s-2.52,7-3.81,10.53-2.64,7-4,10.46l-2.09,5.2c-.73,1.72-1.43,3.45-2.19,5.16.55-1.79,1.16-3.55,1.73-5.33l1.83-5.3c1.22-3.53,2.52-7,3.81-10.54s2.64-7,4-10.45S248,239.89,249.48,236.47Z"/><path class="cls-27" d="M324,159.15c-1.12,3.57-2.33,7.1-3.57,10.63s-2.51,7-3.8,10.53-2.64,7-4,10.46l-2.09,5.2c-.73,1.72-1.43,3.45-2.19,5.16.55-1.79,1.15-3.55,1.73-5.33l1.83-5.3c1.22-3.53,2.51-7,3.81-10.54s2.64-7,4-10.45S322.46,162.57,324,159.15Z"/><path class="cls-27" d="M292.19,261.89c-1.11,3.57-2.33,7.1-3.56,10.63s-2.52,7-3.81,10.54-2.64,7-4,10.45l-2.09,5.2c-.73,1.72-1.43,3.46-2.19,5.16.55-1.78,1.16-3.55,1.73-5.33l1.83-5.3c1.22-3.53,2.52-7,3.81-10.53s2.64-7,4-10.46S290.69,265.32,292.19,261.89Z"/><path class="cls-27" d="M266.06,352.44c-1.11,3.57-2.33,7.11-3.56,10.63s-2.51,7-3.81,10.54-2.63,7-4,10.46l-2.09,5.2c-.74,1.72-1.43,3.45-2.19,5.16.54-1.79,1.15-3.56,1.73-5.34L254,383.8c1.22-3.53,2.51-7,3.81-10.54s2.63-7,4-10.45S264.56,355.87,266.06,352.44Z"/><path class="cls-27" d="M266,0c-1.12,3.57-2.33,7.11-3.56,10.63s-2.52,7-3.81,10.54-2.64,7-4,10.46l-2.09,5.2c-.73,1.72-1.43,3.45-2.19,5.16.55-1.79,1.16-3.56,1.73-5.34l1.83-5.29c1.22-3.53,2.52-7,3.81-10.54s2.64-7,4-10.45S264.54,3.46,266,0Z"/><path class="cls-27" d="M232.07,99.16c-1.11,3.58-2.33,7.11-3.56,10.64s-2.51,7-3.81,10.53-2.63,7-4,10.46l-2.09,5.2c-.73,1.72-1.43,3.45-2.18,5.16.54-1.79,1.15-3.55,1.72-5.33l1.83-5.3c1.22-3.53,2.52-7,3.81-10.54s2.64-7,4-10.45S230.57,102.59,232.07,99.16Z"/><path class="cls-27" d="M111,.05c-1.11,3.57-2.33,7.1-3.56,10.63s-2.52,7-3.81,10.54-2.64,7-4,10.45l-2.09,5.2c-.73,1.72-1.43,3.45-2.19,5.16.55-1.78,1.16-3.55,1.73-5.33l1.83-5.3c1.22-3.53,2.52-7,3.81-10.53s2.64-7,4-10.46S109.53,3.48,111,.05Z"/><path class="cls-27" d="M199.43,208.06c-1.12,3.57-2.33,7.1-3.56,10.63s-2.52,7-3.81,10.53-2.64,7-4,10.46l-2.09,5.2c-.73,1.72-1.43,3.45-2.19,5.16.55-1.79,1.16-3.55,1.73-5.33l1.83-5.3c1.22-3.53,2.51-7,3.81-10.54s2.64-7,4-10.45S197.93,211.48,199.43,208.06Z"/><path class="cls-27" d="M51.47,188.85c-1.11,3.57-2.33,7.11-3.56,10.63s-2.51,7-3.81,10.54-2.63,7-4,10.46L38,225.68c-.73,1.72-1.43,3.45-2.19,5.16.54-1.79,1.15-3.56,1.73-5.34l1.83-5.29c1.22-3.53,2.51-7,3.81-10.54s2.63-7,4-10.46S50,192.28,51.47,188.85Z"/><path class="cls-27" d="M165.46,307.19c-1.11,3.57-2.33,7.1-3.56,10.63s-2.52,7-3.81,10.54-2.64,7-4,10.45L152,344c-.73,1.72-1.43,3.45-2.19,5.16.55-1.79,1.16-3.55,1.73-5.33l1.83-5.3c1.22-3.53,2.52-7,3.81-10.53s2.64-7,4-10.46S164,310.61,165.46,307.19Z"/><path class="cls-27" d="M266.05,68.61c-1.11,3.57-2.33,7.1-3.56,10.63s-2.51,7-3.81,10.54-2.63,7-4,10.45l-2.09,5.2c-.73,1.72-1.42,3.45-2.18,5.16.54-1.78,1.15-3.55,1.73-5.33l1.82-5.3c1.23-3.53,2.52-7,3.81-10.53s2.64-7,4-10.46S264.55,72,266.05,68.61Z"/><path class="cls-27" d="M195.06,143.7c-1.11,3.57-2.33,7.1-3.56,10.63s-2.51,7-3.81,10.54-2.63,7-4,10.45l-2.09,5.2c-.73,1.72-1.43,3.46-2.19,5.17.54-1.79,1.15-3.56,1.73-5.34l1.83-5.29c1.22-3.54,2.51-7,3.81-10.54s2.63-7,4-10.46S193.56,147.13,195.06,143.7Z"/><path class="cls-27" d="M224.22,44.27c-1.12,3.57-2.33,7.1-3.56,10.63s-2.52,7-3.81,10.53-2.64,7-4,10.46l-2.09,5.2c-.73,1.72-1.43,3.45-2.19,5.16.55-1.79,1.16-3.55,1.73-5.33l1.83-5.3c1.22-3.53,2.52-7,3.81-10.54s2.64-7,4-10.45S222.72,47.69,224.22,44.27Z"/><path class="cls-27" d="M136.29,335.92c-1.11,3.57-2.33,7.1-3.56,10.63s-2.52,7-3.81,10.53-2.64,7-4,10.46l-2.09,5.2c-.73,1.72-1.43,3.45-2.19,5.16.55-1.79,1.16-3.55,1.73-5.33l1.83-5.3c1.22-3.53,2.52-7,3.81-10.54s2.64-7,4-10.45S134.79,339.34,136.29,335.92Z"/><path class="cls-27" d="M105.83,403.83c-1.11,3.57-2.32,7.11-3.56,10.63s-2.51,7-3.8,10.54-2.64,7-4,10.46l-2.09,5.2c-.73,1.72-1.43,3.45-2.19,5.16.55-1.79,1.15-3.56,1.73-5.33l1.83-5.3c1.22-3.53,2.51-7,3.81-10.54s2.64-7,4-10.45S104.34,407.26,105.83,403.83Z"/><path class="cls-27" d="M165.44,236.48c-1.11,3.57-2.32,7.11-3.56,10.63s-2.51,7-3.8,10.54-2.64,7-4,10.46L152,273.3c-.73,1.73-1.43,3.46-2.19,5.17.55-1.79,1.15-3.56,1.73-5.34l1.83-5.29c1.22-3.53,2.51-7,3.81-10.54s2.64-7,4-10.46S164,239.91,165.44,236.48Z"/><path class="cls-27" d="M239.92,159.16c-1.11,3.57-2.33,7.11-3.56,10.63s-2.51,7-3.81,10.54-2.63,7-4,10.46l-2.09,5.2c-.73,1.72-1.43,3.45-2.19,5.16.55-1.79,1.15-3.56,1.73-5.34l1.83-5.29c1.22-3.53,2.51-7,3.81-10.54s2.63-7,4-10.46S238.42,162.59,239.92,159.16Z"/><path class="cls-27" d="M208.16,261.91c-1.12,3.57-2.33,7.1-3.56,10.63s-2.52,7-3.81,10.53-2.64,7-4,10.46l-2.09,5.2c-.73,1.72-1.43,3.45-2.19,5.16.55-1.79,1.16-3.55,1.73-5.33l1.83-5.3c1.22-3.53,2.52-7,3.81-10.54s2.64-7,4-10.45S206.66,265.33,208.16,261.91Z"/><path class="cls-27" d="M182,352.46c-1.11,3.57-2.33,7.1-3.56,10.63s-2.52,7-3.81,10.54-2.64,7-4,10.45l-2.09,5.2c-.73,1.72-1.43,3.45-2.19,5.16.55-1.78,1.16-3.55,1.73-5.33l1.83-5.3c1.22-3.53,2.52-7,3.81-10.53s2.64-7,4-10.46S180.53,355.89,182,352.46Z"/><path class="cls-27" d="M182,.05c-1.11,3.57-2.32,7.1-3.56,10.63s-2.51,7-3.8,10.54-2.64,7-4,10.45l-2.09,5.2c-.73,1.72-1.43,3.45-2.19,5.16.55-1.78,1.15-3.55,1.73-5.33l1.83-5.3c1.22-3.53,2.51-7,3.81-10.53s2.64-7,4-10.46S180.51,3.48,182,.05Z"/><path class="cls-27" d="M148,99.18c-1.12,3.57-2.33,7.1-3.56,10.63s-2.52,7-3.81,10.54-2.64,7-4,10.45l-2.09,5.2c-.73,1.72-1.43,3.46-2.19,5.17.55-1.79,1.16-3.56,1.73-5.34l1.83-5.29c1.22-3.53,2.52-7,3.81-10.54s2.64-7,4-10.46S146.54,102.61,148,99.18Z"/><path class="cls-27" d="M16.37,99.18c-1.11,3.57-2.33,7.1-3.56,10.63s-2.52,7-3.81,10.54-2.64,7-4,10.45L2.88,136c-.73,1.72-1.43,3.46-2.19,5.17.55-1.79,1.16-3.56,1.73-5.34l1.83-5.29c1.22-3.53,2.52-7,3.81-10.54s2.64-7,4-10.46S14.87,102.61,16.37,99.18Z"/><path class="cls-27" d="M115.39,208.07c-1.11,3.57-2.33,7.11-3.56,10.63s-2.51,7-3.81,10.54-2.63,7-4,10.46l-2.09,5.2c-.73,1.72-1.43,3.45-2.19,5.16.55-1.79,1.15-3.56,1.73-5.34l1.83-5.29c1.22-3.53,2.51-7,3.81-10.54s2.63-7,4-10.46S113.89,211.5,115.39,208.07Z"/><path class="cls-27" d="M81.43,307.2c-1.12,3.57-2.33,7.11-3.56,10.63s-2.52,7-3.81,10.54-2.64,7-4,10.46L67.94,344c-.73,1.72-1.43,3.45-2.19,5.16.55-1.79,1.16-3.56,1.73-5.33l1.83-5.3c1.22-3.53,2.52-7,3.81-10.54s2.64-7,4-10.45S79.93,310.63,81.43,307.2Z"/><path class="cls-27" d="M55.78,389.68c-1.11,3.57-2.33,7.1-3.56,10.63s-2.51,7-3.81,10.54-2.63,7-4,10.45l-2.09,5.2c-.73,1.72-1.43,3.46-2.18,5.17.54-1.79,1.15-3.56,1.73-5.34l1.82-5.3c1.23-3.53,2.52-7,3.81-10.53s2.64-7,4-10.46S54.28,393.11,55.78,389.68Z"/><path class="cls-27" d="M182,68.62c-1.11,3.58-2.33,7.11-3.56,10.64s-2.52,7-3.81,10.53-2.64,7-4,10.46l-2.09,5.2c-.73,1.72-1.43,3.45-2.19,5.16.55-1.79,1.16-3.55,1.73-5.33l1.83-5.3c1.22-3.53,2.52-7,3.81-10.54s2.64-7,4-10.45S180.52,72.05,182,68.62Z"/><path class="cls-27" d="M81.41,98.23c-1.11,3.57-2.33,7.1-3.56,10.63s-2.51,7-3.81,10.53-2.63,7-4,10.46l-2.09,5.2c-.73,1.72-1.43,3.45-2.19,5.16.54-1.79,1.15-3.55,1.73-5.33l1.83-5.3c1.22-3.53,2.51-7,3.81-10.54s2.63-7,4-10.45S79.91,101.65,81.41,98.23Z"/><path class="cls-27" d="M111,143.72c-1.11,3.57-2.33,7.1-3.56,10.63s-2.52,7-3.81,10.53-2.64,7-4,10.46l-2.09,5.2c-.73,1.72-1.43,3.45-2.19,5.16.55-1.79,1.16-3.55,1.73-5.33l1.83-5.3c1.22-3.53,2.52-7,3.81-10.54s2.64-7,4-10.45S109.53,147.14,111,143.72Z"/><path class="cls-27" d="M32,143.72c-1.11,3.57-2.32,7.1-3.56,10.63s-2.51,7-3.81,10.53-2.63,7-4,10.46l-2.09,5.2c-.73,1.72-1.43,3.45-2.19,5.16.55-1.79,1.15-3.55,1.73-5.33l1.83-5.3c1.22-3.53,2.51-7,3.81-10.54s2.63-7,4-10.45S30.54,147.14,32,143.72Z"/><path class="cls-27" d="M140.19,44.28c-1.12,3.57-2.33,7.1-3.56,10.63s-2.52,7-3.81,10.54-2.64,7-4,10.46L126.7,81.1c-.73,1.73-1.43,3.46-2.19,5.17.55-1.79,1.16-3.56,1.73-5.34l1.83-5.29c1.22-3.53,2.51-7,3.81-10.54s2.64-7,4-10.46S138.69,47.71,140.19,44.28Z"/><path class="cls-27" d="M59.31,45.76C58.2,49.33,57,52.87,55.75,56.39s-2.52,7-3.81,10.54-2.64,7-4,10.46l-2.09,5.2c-.73,1.72-1.43,3.45-2.19,5.16.55-1.79,1.16-3.56,1.73-5.33l1.83-5.3c1.22-3.53,2.52-7,3.81-10.54s2.64-7,4-10.45S57.81,49.19,59.31,45.76Z"/><path class="cls-27" d="M52.26,335.93c-1.12,3.57-2.33,7.11-3.56,10.63s-2.52,7-3.81,10.54-2.64,7-4,10.46l-2.09,5.2c-.73,1.72-1.43,3.45-2.19,5.16.55-1.79,1.16-3.56,1.73-5.34l1.83-5.29c1.22-3.53,2.52-7,3.81-10.54s2.64-7,4-10.45S50.76,339.36,52.26,335.93Z"/><path class="cls-27" d="M81.41,236.5c-1.11,3.57-2.33,7.1-3.56,10.63s-2.51,7-3.81,10.54-2.63,7-4,10.45l-2.09,5.2c-.73,1.72-1.43,3.45-2.19,5.16.54-1.79,1.15-3.55,1.73-5.33l1.83-5.3c1.22-3.53,2.51-7,3.81-10.53s2.63-7,4-10.46S79.91,239.92,81.41,236.5Z"/><path class="cls-27" d="M155.89,159.18c-1.11,3.57-2.33,7.1-3.56,10.63s-2.51,7-3.81,10.54-2.63,7-4,10.45L142.4,196c-.73,1.72-1.42,3.45-2.18,5.16.54-1.78,1.15-3.55,1.73-5.33l1.82-5.3c1.23-3.53,2.52-7,3.82-10.53s2.63-7,4-10.46S154.39,162.61,155.89,159.18Z"/><path class="cls-27" d="M124.12,261.92c-1.11,3.57-2.32,7.1-3.56,10.63s-2.51,7-3.8,10.54-2.64,7-4,10.46l-2.09,5.19c-.73,1.73-1.43,3.46-2.19,5.17.55-1.79,1.15-3.56,1.73-5.34l1.83-5.29c1.22-3.53,2.51-7,3.81-10.54s2.64-7,4-10.46S122.63,265.35,124.12,261.92Z"/><path class="cls-27" d="M32,261.92c-1.11,3.57-2.32,7.1-3.56,10.63s-2.51,7-3.81,10.54-2.63,7-4,10.46l-2.09,5.19c-.73,1.73-1.43,3.46-2.19,5.17.55-1.79,1.15-3.56,1.73-5.34l1.83-5.29c1.22-3.53,2.51-7,3.81-10.54s2.63-7,4-10.46S30.54,265.35,32,261.92Z"/><path class="cls-27" d="M98,352.48c-1.12,3.57-2.33,7.1-3.56,10.63s-2.52,7-3.81,10.53-2.64,7-4,10.46l-2.09,5.2c-.73,1.72-1.43,3.45-2.19,5.16.55-1.79,1.16-3.55,1.73-5.33l1.83-5.3c1.22-3.53,2.52-7,3.81-10.54s2.64-7,4-10.45S96.5,355.9,98,352.48Z"/></g></g></svg>