<svg xmlns="http://www.w3.org/2000/svg" viewBox="0 0 496.96 466.58"><defs><style>.cls-1{fill:#dfdfdf;}.cls-2{fill:#c1c1c1;}.cls-3{fill:#f5f5f5;}.cls-4{fill:#e2e2e2;}.cls-5{fill:#dcdcdc;}.cls-6{fill:#efefef;}.cls-7{fill:#3fd1b8;}.cls-8{fill:#fff;}.cls-9{fill:#1dae66;}.cls-10{fill:#bdbdc9;}.cls-11{fill:#d8d8df;}.cls-12{fill:#822abc;}.cls-13{fill:#a130dc;}.cls-14{fill:#ffcdc2;}.cls-15{fill:#1b2d37;}.cls-16{fill:#e0a4ab;}.cls-17{fill:#22393d;}.cls-18{fill:#121e21;}.cls-19{fill:#00ab45;}.cls-20{fill:#1e1e1e;}.cls-21{fill:#414042;}.cls-22{fill:#008e39;}.cls-23{fill:#c0d4d8;}.cls-24{fill:#333;}.cls-25{fill:#bc5b35;}.cls-26{fill:#842f14;}.cls-27{fill:#ff6a66;}.cls-28{fill:#cc3a2f;}.cls-29{fill:#f2f2f2;}.cls-30{fill:#dadada;}.cls-31{fill:#c7c7c7;}</style></defs><g id="Layer_2" data-name="Layer 2"><g id="Layer_1-2" data-name="Layer 1"><path class="cls-1" d="M437.29,269.36c-.48,1.09-.93,2.15-1.33,3.16a5.78,5.78,0,0,1,1.71,2.29l.23-.11a23.77,23.77,0,0,1-.61-5.34m5.48-1.28c0,.35,0,.69.05,1,0-.28,0-.55.07-.83l-.12-.16m-7.31-7.94a9.05,9.05,0,0,1-1.69,3.62l-.35.42a13.93,13.93,0,0,0,.54,2.27c.66.34,1.16,1.07,1,2.55.23.47.48.94.75,1.42.87-2.06,1.9-4.25,3.07-6.44-.29-.65-1.73-3.59-3.36-3.84m18.19-15.66c-3,0-4.41,4.53-4.41,4.53a3.49,3.49,0,0,0-2.91-3.38h-.05c-2.3,0-4.2,5-3.9,10.43-.21-1.57-.83-4.05-2.59-4.05a2.78,2.78,0,0,0-1.3.37c-3.58,1.9-.15,10.44.34,11.6,2.58-4.79,5.9-9.55,10-12.89l.63.77c-4.14,3.37-7.47,8.23-10,13.08a3,3,0,0,1,1.05-.22,2.06,2.06,0,0,1,1.9,1.57l.89-.41a13.31,13.31,0,0,1,2.47-5.57A5.08,5.08,0,0,0,445,260c4.44-1.81,6-3.41,6-3.41,1.71-2.18-1.39-2.84-2.91-3l.63,0c3.51,0,4.93-1.84,4.93-1.84,3.41-3.82.94-7.29,0-7.29"/><path class="cls-1" d="M435,272.25a1.36,1.36,0,0,0-.6.17c-1.25.63-1.66,2.56-1.32,5.08.5-1.49,1.13-3.29,1.92-5.25m20-13.37c-2.81,0-4.56,4-4.56,4a3.47,3.47,0,0,0-2.48-3.7l-.24,0a2.81,2.81,0,0,0-2,1.15,13.31,13.31,0,0,0-2.47,5.57,19.36,19.36,0,0,0-.39,2.36c0,.28-.05.55-.07.83,0-.3,0-.64-.05-1a7.71,7.71,0,0,0-.38-1.79,2.06,2.06,0,0,0-1.9-1.57,3,3,0,0,0-1.05.22c-.79,1.49-1.5,3-2.15,4.42a23.77,23.77,0,0,0,.61,5.34c.25,1.12.48,1.89.49,1.94a12.73,12.73,0,0,0-.72-1.83,5.78,5.78,0,0,0-1.71-2.29c-1.12,2.81-1.94,5.28-2.47,7,0,.12.07.24.1.36h5c.85-3.8,3.48-11.95,10.83-15l.38.92c-6.71,2.76-9.28,10.34-10.16,14.05h.49l-.24-.08,3.16-1.05c7.29-3.28,1.87-5.42,1.87-5.42,4.62-1.27,6.37-2.68,6.37-2.68,1.95-2-1.05-3-2.53-3.35a9.81,9.81,0,0,0,1.71.16,5.76,5.76,0,0,0,4-1.31c3.84-3.39,1.8-7.13.86-7.24a2.17,2.17,0,0,0-.36,0"/><path class="cls-1" d="M424.39,262.2a1.48,1.48,0,0,0-1.33.73,2.16,2.16,0,0,0-.29.94,3.4,3.4,0,0,1,2.21-1.6,3.06,3.06,0,0,0-.59-.07m4.29,2.23h0m5.4-24.06a.6.6,0,0,0-.25,0c-2.76,1.28-2.1,6-2.1,6a3.36,3.36,0,0,0-3.11-2,3.42,3.42,0,0,0-.94.12c-2.15.91-1.77,6.32.79,11.12-.72-1.13-2-2.75-3.34-2.75A2.21,2.21,0,0,0,423.4,254a2.62,2.62,0,0,0-.54,1.66,4.9,4.9,0,0,1,.52,2.14c1.41,3.19,5.18,6.56,5.3,6.67a13,13,0,0,0-2.7-1.81c1.29,1,1.22,3.68,0,6.82a23.06,23.06,0,0,0,2.77,2.24c.28-5.74.8-13.3,1.77-20.82l1,.13c-1.27,9.9-1.77,19.88-2,25.64a4.84,4.84,0,0,0,1.37-.85,13.21,13.21,0,0,0,2.48-2.94L434,272a6.63,6.63,0,0,0,1-2.91V269c.12-1.48-.38-2.21-1-2.55a2.73,2.73,0,0,0-1.26-.27,4.45,4.45,0,0,0-1.07.13l1.79-2.13.35-.42a9.05,9.05,0,0,0,1.69-3.62c.22-1.76-1.25-2-2.19-2a4.51,4.51,0,0,0-.75.06c3.26-3.5,4-5.62,4-5.62.36-1.54-.49-2-1.56-2a8.31,8.31,0,0,0-2.35.45c3.7-1.46,4.27-4,4.27-4,1.38-4.51-1.66-6.66-2.81-6.66"/><path class="cls-2" d="M448.84,251.09c-4.11,3.34-7.43,8.1-10,12.89h0c-1.17,2.19-2.2,4.38-3.07,6.44q-.4.93-.75,1.83c-.79,2-1.42,3.76-1.92,5.25-.3.92-.54,1.72-.74,2.37h1a3.07,3.07,0,0,0,.11-.36c.53-1.71,1.35-4.18,2.47-7,.4-1,.85-2.07,1.33-3.16.65-1.44,1.36-2.93,2.15-4.42,2.56-4.85,5.89-9.71,10-13.08l-.63-.77"/><path class="cls-2" d="M430.55,250.86c-1,7.52-1.49,15.08-1.77,20.82-.17,3.6-.25,6.48-.29,8.19h1c0-.82.05-1.92.09-3.24.19-5.76.69-15.74,2-25.64l-1-.13"/><path class="cls-2" d="M449.45,264.9c-7.35,3-10,11.17-10.83,15h1.05c.88-3.71,3.45-11.29,10.16-14.05l-.38-.92"/><path class="cls-1" d="M406.62,246.63h0c-.95,0-3.41,3.47,0,7.3a3.3,3.3,0,0,0,.45.44,2.54,2.54,0,0,1,.57.4,7.34,7.34,0,0,0,3.9,1c.21,0,.42,0,.63,0-1,.13-2.76.47-3.26,1.35a11.75,11.75,0,0,1,.33,1.65l0,0a12.71,12.71,0,0,0,2.9,2,1.82,1.82,0,0,1,.29.08,2.07,2.07,0,0,1,.76.46c.6.3,1.28.6,2,.91a5,5,0,0,0-1.2.54,10.26,10.26,0,0,1,.41,3.66,14.52,14.52,0,0,0,2,1.41l3,1.41s-3.81.6-1.9,3.91a6.71,6.71,0,0,0,2.14,2.2l.87.58a13.33,13.33,0,0,0,4.43,1.87c-7.11-19.68-13.87-25.53-13.94-25.59l.64-.76c.28.23,6,5.16,12.55,21.55a23.18,23.18,0,0,0,1.72-3.52c1.19-3.14,1.26-5.8,0-6.82l-.12-.08a1.46,1.46,0,0,0-.83-.27h0a3.4,3.4,0,0,0-2.21,1.6,13.18,13.18,0,0,0-1.38,2.39c.06-.15,2.15-5,2-8.5a4.9,4.9,0,0,0-.52-2.14,2.56,2.56,0,0,0-1.08-1.08,2.81,2.81,0,0,0-1.3-.38c-1.77,0-2.38,2.49-2.59,4.06.3-5.4-1.6-10.43-3.91-10.43h-.05a3.46,3.46,0,0,0-2.9,3.37s-1.37-4.53-4.41-4.53"/><path class="cls-1" d="M397.59,249.59a1.49,1.49,0,0,0-.47.07,3.47,3.47,0,0,0-1.93,4s-2.07-3.33-4.66-3.34a3.12,3.12,0,0,0-.78.11c-.91.24-2.39,4.24,1.9,7a5.24,5.24,0,0,0,3,.8,8.79,8.79,0,0,0,2.81-.48c-1.41.57-4.23,2-2,3.67,0,0,1.93,1.15,6.68,1.74a4,4,0,0,0-1.5,1.55,6,6,0,0,1,2.72,3.09c.41.16.88.31,1.41.46l3.29.58a4.36,4.36,0,0,0-.54.31c1.59.32,2.9,2.65,3.53,5.92a13.18,13.18,0,0,0,4,.61h.59A71.24,71.24,0,0,0,395,255l.52-.85a73.13,73.13,0,0,1,18.18,17,21.82,21.82,0,0,0,.78-4.75,10.26,10.26,0,0,0-.41-3.66,3.64,3.64,0,0,0-.85-1.45,2.07,2.07,0,0,0-.76-.46,1.82,1.82,0,0,0-.29-.08H412c-2.09,0-2.82,4.68-2.84,4.84a28.58,28.58,0,0,0,.13-6.82,11.75,11.75,0,0,0-.33-1.65,5,5,0,0,0-1.27-2.32,2.65,2.65,0,0,0-1.19-.63,3.27,3.27,0,0,0-.78-.1c-2.29,0-2.25,2.93-2,4.66-1-5-3.86-9.11-6.05-9.11"/><path class="cls-1" d="M407.14,269.16c-2.26,0-1.91,4.15-1.78,5.26a55.39,55.39,0,0,1,7.1,5.45h.13l-1.15-1.05a24.42,24.42,0,0,0-.39-3.7c-.63-3.27-1.94-5.6-3.53-5.92a1.24,1.24,0,0,0-.33,0h-.05m-16.89-6.39a1.77,1.77,0,0,0-1,.29,3.47,3.47,0,0,0-.65,4.4s-2.25-1.94-4.46-1.94a3.07,3.07,0,0,0-1.69.47c-.8.51-1,4.76,3.9,6.17a3.9,3.9,0,0,0,1.24.17,7.61,7.61,0,0,0,4.42-1.6c-1.17,1-3.44,3.18-.84,4.11a9.91,9.91,0,0,0,2.06.16,28.39,28.39,0,0,0,4.84-.48s-3.81,4.09,3.57,4.09h.45l3.31-.42a3.89,3.89,0,0,0-1.09,1.68H411a61.91,61.91,0,0,0-20.7-11.6l.28-1a62.8,62.8,0,0,1,14.81,7.11,26.72,26.72,0,0,0-2-6.57,6,6,0,0,0-2.72-3.09,2.47,2.47,0,0,0-1-.19h-.2c-3.14.24-2.13,3.44-1.33,5.19-2.24-4-5.71-7-7.89-7"/><path class="cls-2" d="M411.74,251.41l-.64.76c.07.06,6.83,5.91,13.94,25.59.25.69.5,1.39.75,2.11h1.06q-1.29-3.75-2.56-6.91c-6.53-16.39-12.27-21.32-12.55-21.55"/><path class="cls-2" d="M395.52,254.11,395,255a71.24,71.24,0,0,1,20.63,20.76q1.26,2,2.35,4.15h1.12a56.47,56.47,0,0,0-5.4-8.74,73.13,73.13,0,0,0-18.18-17"/><path class="cls-2" d="M390.54,267.31l-.28,1a61.91,61.91,0,0,1,20.7,11.6h1.5a55.39,55.39,0,0,0-7.1-5.45h0a62.8,62.8,0,0,0-14.81-7.11"/><path class="cls-3" d="M405,286h-.09v29.72H405V286m8.72,0h-2.6v29.72h2.6V286m6.16,0h-3.16v29.72h3.16V286m6.15,0h-3.15v29.72H426V286m5.65,0H429v29.72h2.65V286m10.77,0h-3.15v29.72h3.15V286"/><polyline class="cls-4" points="439.31 285.99 437.81 285.99 437.81 315.71 439.31 315.71 439.31 285.99"/><path class="cls-4" d="M405,315.71h-.09v1.5h-2.26v1.5H405v-3m26.68,0H429v1.5h-3v-1.5h-3.15v1.5h-3v-1.5h-3.16v1.5h-3v-1.5h-2.6v3h20.56v-3m10.77,0h-4.65v3h6.9v-1.5h-2.25v-1.5"/><path class="cls-5" d="M389.61,279.87h0V455.74a3.22,3.22,0,0,0,3.22,3.22h2.9V286h-6.12v-6.12"/><polyline class="cls-5" points="437.81 285.99 431.69 285.99 431.69 315.71 431.69 318.71 431.69 458.96 437.81 458.96 437.81 318.71 437.81 315.71 437.81 285.99"/><polyline class="cls-5" points="411.13 285.99 410.57 285.99 407.57 285.99 405.01 285.99 405.01 315.71 405.01 318.71 405.01 458.96 411.13 458.96 411.13 318.71 411.13 315.71 411.13 285.99"/><path class="cls-5" d="M452.7,286h-6.12V459h2.9a3.22,3.22,0,0,0,3.22-3.22V286"/><polyline class="cls-5" points="452.69 279.87 440.16 279.87 439.67 279.87 438.63 279.87 433.59 279.87 433.59 279.87 432.34 279.87 432.34 279.87 429.49 279.87 428.49 279.87 426.85 279.87 425.79 279.87 419.1 279.87 417.98 279.87 412.59 279.87 412.46 279.87 410.96 279.87 404.29 279.87 389.62 279.87 389.62 285.99 395.73 285.99 401.92 285.99 404.92 285.99 413.73 285.99 416.73 285.99 419.88 285.99 422.88 285.99 426.04 285.99 429.04 285.99 431.69 285.99 437.81 285.99 442.46 285.99 445.46 285.99 446.58 285.99 452.69 285.99 452.69 279.87"/><path class="cls-5" d="M450.1,459H392.67l1.1,4.37a2.32,2.32,0,0,0,2.25,1.75h50.73a2.32,2.32,0,0,0,2.25-1.75l1.1-4.37"/><polyline class="cls-4" points="416.73 285.99 413.73 285.99 413.73 315.71 413.73 317.21 416.73 317.21 416.73 315.71 416.73 285.99"/><polyline class="cls-4" points="422.88 285.99 419.88 285.99 419.88 315.71 419.88 317.21 422.88 317.21 422.88 315.71 422.88 285.99"/><polyline class="cls-4" points="429.04 285.99 426.04 285.99 426.04 315.71 426.04 317.21 429.04 317.21 429.04 315.71 429.04 285.99"/><polyline class="cls-4" points="445.46 285.99 442.46 285.99 442.46 315.71 442.46 317.21 444.71 317.21 445.46 317.21 445.46 285.99"/><polyline class="cls-4" points="404.92 285.99 401.92 285.99 401.92 317.21 402.66 317.21 404.92 317.21 404.92 315.71 404.92 285.99"/><rect class="cls-6" x="39.96" width="89.99" height="134.43"/><rect class="cls-6" x="141.52" width="89.99" height="134.43"/><rect class="cls-6" x="39.96" y="146.52" width="89.99" height="134.43"/><rect class="cls-6" x="141.52" y="146.52" width="89.99" height="134.43"/><rect class="cls-7" x="79.89" y="104.37" width="135.09" height="41.5" rx="7"/><path class="cls-8" d="M203.64,116.35H118.07a1.29,1.29,0,0,1,0-2.57h85.57a1.29,1.29,0,0,1,0,2.57Z"/><path class="cls-8" d="M203.64,125.76H118.07a1.29,1.29,0,0,1,0-2.57h85.57a1.29,1.29,0,0,1,0,2.57Z"/><path class="cls-8" d="M186.32,135.17H118.07a1.28,1.28,0,1,1,0-2.56h68.25a1.28,1.28,0,1,1,0,2.56Z"/><circle class="cls-8" cx="99.2" cy="125.12" r="11.07"/><path class="cls-9" d="M98,130.31a1.29,1.29,0,0,1-.87-.34l-3.34-3A1.29,1.29,0,0,1,95.52,125l2.38,2.16,5.25-5.91a1.28,1.28,0,1,1,1.92,1.7L99,129.88a1.28,1.28,0,0,1-.89.43Z"/><rect class="cls-7" x="79.89" y="153.63" width="135.09" height="41.5" rx="7"/><path class="cls-8" d="M203.64,165.61H118.07a1.29,1.29,0,0,1,0-2.57h85.57a1.29,1.29,0,0,1,0,2.57Z"/><path class="cls-8" d="M203.64,175H118.07a1.28,1.28,0,1,1,0-2.56h85.57a1.28,1.28,0,0,1,0,2.56Z"/><path class="cls-8" d="M186.32,184.44H118.07a1.29,1.29,0,0,1,0-2.57h68.25a1.29,1.29,0,0,1,0,2.57Z"/><circle class="cls-8" cx="99.2" cy="174.38" r="11.07"/><path class="cls-9" d="M98,179.57a1.33,1.33,0,0,1-.87-.33l-3.34-3a1.28,1.28,0,1,1,1.73-1.9l2.38,2.15,5.25-5.91a1.28,1.28,0,1,1,1.92,1.7L99,179.14a1.28,1.28,0,0,1-.89.43Z"/><path class="cls-10" d="M255.35,293.24a4.66,4.66,0,0,1,4.59,4.8l-2.22,163a2.7,2.7,0,0,1-2.66,2.77h-3.92a2.7,2.7,0,0,1-2.66-2.72L247.2,303.27Z"/><path class="cls-11" d="M254.36,292.24l-60.66-3.18a6.88,6.88,0,0,0-7.12,6.32L170.48,462.6a1.09,1.09,0,0,0,1.07,1.22h6.92a1.09,1.09,0,0,0,1.07-1l16-159.38a4.58,4.58,0,0,1,4.5-4.19l52.35,2Z"/><path class="cls-12" d="M335.11,381H238.19l27.46-138.48H332a6.9,6.9,0,0,1,7,6.81Z"/><path class="cls-13" d="M330.74,347.27H235.38L260.49,248c.8-3.17,4.64-5.47,9.12-5.47h51.86c5.12,0,9.27,3,9.27,6.66Z"/><path class="cls-13" d="M173.73,347.18h78.35a0,0,0,0,1,0,0V381a0,0,0,0,1,0,0H170.36a0,0,0,0,1,0,0V350.55A3.38,3.38,0,0,1,173.73,347.18Z"/><path class="cls-14" d="M202,421.53l1.8,24,14.44-.18s1.61-28.52,1.26-29.06S202,421.53,202,421.53Z"/><path class="cls-15" d="M224.18,464.2c-13.06.65-30.93,1.82-49.19.81,0,0-7.86-13,9.76-14.4s16.8-11.35,16.8-11.35c5.46-.5,12.36-.51,20.78-1.27Z"/><path class="cls-14" d="M158.58,362.55l-18.16,15.8,8.77,11.47s23.82-15.76,24.05-16.37S158.58,362.55,158.58,362.55Z"/><path class="cls-15" d="M137.61,405.82c-8.33-10.08-20-23.71-30.06-38.95,0,0,5.71-14.07,17.38-.79s19.14,6.68,19.14,6.68c3.66,4.08,7.8,9.61,13.45,15.9Z"/><path class="cls-16" d="M239.61,262.76s-.81,5.87-.89,8.53c0,0-9.92,2.34-12.15,4.69l15.7,6.16,8.69-1.39,2.48-9Z"/><path class="cls-17" d="M243,304.14l-14.73-5.64a23.88,23.88,0,0,0-21.5,7.73c-8.92,9.59-52.41,52.11-59,58.59a1.45,1.45,0,0,0-.2,1.83c2.15,3.38,9.28,14.31,13.93,18.58a1.47,1.47,0,0,0,2.07-.06c4.72-5,25.77-27.16,30.69-28.34,5.56-1.33,58.69-9.78,58.69-9.78,29.86,14.26,50.16,11.86,50.32-25.68l-59-19Z"/><path class="cls-18" d="M260.19,350.27s-38-21.1-50.47-14.09c-3.75,2.11-17.92,8.66-17.38,23.12,1.17,31.59,5.38,73,5.38,73a1.4,1.4,0,0,0,1.31,1.28c9.12.61,17.23.31,24-1.16a1.39,1.39,0,0,0,1.09-1.37s0-31.8,0-56.78C224.18,357.5,247.14,349.68,260.19,350.27Z"/><path class="cls-19" d="M294.52,214.63s30.43,1.76,32.69,22.1a24.91,24.91,0,0,1-.14,2.72c0,4.34-3.1,17.87-10.18,38.76a353.92,353.92,0,0,0-13.68,43.16s-27.86-6.93-60.22-17.23a307.31,307.31,0,0,0,9.5-31.64,45.77,45.77,0,0,1-16.75-12.42,2.59,2.59,0,0,1-.6-1.79h0a2.69,2.69,0,0,1,.72-1.72,135.45,135.45,0,0,0,15.29-19.8,13.21,13.21,0,0,1,5.45-4.87l20-9.64,16.07-7.7Z"/><path class="cls-16" d="M266.26,213.17s5.05,6.57.46,13.76a7.09,7.09,0,0,0-1.11,3.28c-.34,4.71.16,15.19,13.12,6.67a14.65,14.65,0,0,0,2.17-1.76,85.53,85.53,0,0,0,15.22-20.34s-11.83-11.05-17-21.76Z"/><path class="cls-14" d="M239.29,188.29l3.22,7.33s1.91,4.95,3.87,10.64c2.73,7.93,9.21,12.35,16.93,9.8,8.61-2.85,15.62-13.87,15.29-20.13l4.56-2.17,1.77-10.38-9.58-3.14-1.93,4.43L266.5,174.2Z"/><path class="cls-20" d="M233.33,191.27s.11-35.62,28.29-34a20.58,20.58,0,0,1,7.61,2l.09.05s23.46-9.14,21.83,29.8c-.1,2.42-2,12.85-4.61,15,0,0-4.31-.33-7.94-8.22,0,0,3.18-2.52,3.74-5.92.26-1.63.34-4.24-2-5.79-2.76-1.86-6.74,1.22-4.77,6.67-2.1.75-8-10.73-8.75-14.48,0,0-3,4.07-32.16,15.62A.94.94,0,0,1,233.33,191.27Z"/><ellipse class="cls-20" cx="257.63" cy="193.45" rx="1.63" ry="2.05" transform="translate(-52.18 105.04) rotate(-20.98)"/><ellipse class="cls-20" cx="246.38" cy="197.32" rx="1.28" ry="1.61" transform="translate(-54.31 101.27) rotate(-20.98)"/><path class="cls-21" d="M253.4,190.44a2.19,2.19,0,0,1,.16-1.89,2.77,2.77,0,0,1,1.59-1.26,3.59,3.59,0,0,1,1.92-.06,5.53,5.53,0,0,1,.86.31,4.73,4.73,0,0,1,.76.53,6.17,6.17,0,0,1-.88.17c-.28,0-.55.1-.81.12a10.24,10.24,0,0,0-1.41.3A3.94,3.94,0,0,0,253.4,190.44Z"/><path class="cls-21" d="M242.38,193.88a2.45,2.45,0,0,1,.32-1.53,2.71,2.71,0,0,1,1.22-1.12,2.29,2.29,0,0,1,1.7-.13,2.15,2.15,0,0,1,1.27,1c-.56.08-1,.07-1.37.16a3.35,3.35,0,0,0-1,.31A18.37,18.37,0,0,0,242.38,193.88Z"/><path class="cls-21" d="M253,210.77a13.25,13.25,0,0,1,1.46-1.13c.45-.3.88-.56,1.3-.79s.84-.47,1.3-.7.93-.5,1.62-.79a2.81,2.81,0,0,1-.41,2,3.87,3.87,0,0,1-1.45,1.39,4.32,4.32,0,0,1-1.88.53A3.23,3.23,0,0,1,253,210.77Z"/><path class="cls-21" d="M250.2,201.51a7.57,7.57,0,0,1,.29,1.4,11.16,11.16,0,0,1,.08,1.42v.36a.32.32,0,0,0,0,.14.28.28,0,0,0,.27.17c.25,0,.45.06.65.06a2.55,2.55,0,0,0,.67-.15,1.31,1.31,0,0,1-.56.53,2.74,2.74,0,0,1-.74.18.87.87,0,0,1-.91-.45,1,1,0,0,1-.12-.53l0-.34A15.94,15.94,0,0,1,250.2,201.51Z"/><path class="cls-22" d="M259.17,249.23c-.27,2-.67,4-1.13,6s-1,3.92-1.52,5.86-1.15,3.87-1.82,5.78-1.36,3.8-2.21,5.66c.27-2,.67-4,1.13-6s1-3.92,1.52-5.86,1.15-3.87,1.82-5.78S258.33,251.09,259.17,249.23Z"/><path class="cls-14" d="M242.63,280s29-3.26,43.71-2.18a32.93,32.93,0,0,1,4.71-7.55,96.23,96.23,0,0,0,20.25,6.55l-10.95,17.06s-1.83,5.44-26.57,1c-23.91-4.32-28-4-28-4Z"/><path class="cls-22" d="M296.85,235.47c-.39,2.76-.92,5.5-1.51,8.23-.81,2.66-1.62,5.33-2.49,8s-1.82,5.27-2.82,7.87c-.5,1.3-1,2.6-1.57,3.89-.27.64-.55,1.28-.85,1.92l-.43.95-.22.47a1.34,1.34,0,0,0-.09.31.52.52,0,0,0,.07.44.34.34,0,0,0,.14.12l.46.22c.62.3,1.24.58,1.87.87,1.26.57,2.53,1.1,3.8,1.63,2.56,1.05,5.14,2,7.76,2.87s5.28,1.6,7.95,2.25a65.93,65.93,0,0,0,8.06,2,51.33,51.33,0,0,1-8.38-.64,81.33,81.33,0,0,1-8.08-2.25q-4-1.31-7.85-2.9c-1.3-.54-2.58-1.08-3.85-1.66-.64-.28-1.28-.58-1.91-.88l-.48-.23a2,2,0,0,1-.65-.54,2,2,0,0,1-.34-1.54,2.65,2.65,0,0,1,.22-.69l.21-.47.43-.94c.29-.62.57-1.25.83-1.89.55-1.27,1.05-2.55,1.56-3.84,1-2.57,1.92-5.18,2.78-7.8s1.71-5.27,2.46-7.93Z"/><path class="cls-14" d="M242.63,280s-3.79,1.28-15.52-5.29a8.28,8.28,0,0,0-4.1-1c-3,0-8,.57-11.43,3.41a10.55,10.55,0,0,0-1,.75l-.44.47a7.57,7.57,0,0,0-2.08,6,9.43,9.43,0,0,0,1,3.94c1.29,1.85,2.17-1.09,2.17-1.09s.46,3.32,2.49,3.76a1,1,0,0,0,1.12-1.14l-.19-1.13s1.47,3.69,2.92,2.39a1.56,1.56,0,0,0,.47-1.36l-.09-.79s.76,3.64,2.66,3a1.84,1.84,0,0,0,1.19-1.95l-.13-1.29a1.7,1.7,0,0,1,0-.39c.14-.93,1-4.39,5.61-1.23a19.47,19.47,0,0,0,10.31,4.15c6,.44,8.13-.29,8.13-.29Z"/><path class="cls-16" d="M213.2,279.82a21.18,21.18,0,0,0-1.15,3.6c-.15.61-.26,1.22-.39,1.84s-.23,1.25-.39,1.89a8,8,0,0,1-.17-1.95,9.92,9.92,0,0,1,.25-1.95,8.91,8.91,0,0,1,.67-1.85A5,5,0,0,1,213.2,279.82Z"/><path class="cls-16" d="M216,282c-.29,1.14-.61,2.21-.85,3.3-.14.54-.22,1.09-.31,1.64s-.12,1.1-.17,1.7a5.59,5.59,0,0,1-.23-3.5,8.08,8.08,0,0,1,.59-1.67A5.77,5.77,0,0,1,216,282Z"/><path class="cls-16" d="M218.64,284c-.16.87-.34,1.64-.46,2.43-.07.39-.1.79-.14,1.19s0,.8,0,1.25a2.87,2.87,0,0,1-.51-1.22,4,4,0,0,1,0-1.33,4.61,4.61,0,0,1,.39-1.26A3.35,3.35,0,0,1,218.64,284Z"/><path class="cls-16" d="M236.67,279.14a8.13,8.13,0,0,1,4.76,2.72,8.42,8.42,0,0,1,.83,1.13,7.79,7.79,0,0,1,.61,1.27,7.45,7.45,0,0,1,.51,2.71,16.11,16.11,0,0,0-1-2.48,10.08,10.08,0,0,0-1.48-2.16,11.62,11.62,0,0,0-1.92-1.78A16.53,16.53,0,0,0,236.67,279.14Z"/><path class="cls-16" d="M277.14,193.08a1.45,1.45,0,0,0,1.11.26,1.61,1.61,0,0,0,.93-.6,5.92,5.92,0,0,0,1.05-2.08,5,5,0,0,0,.23-2.25,3,3,0,0,0-1-1.86,1.56,1.56,0,0,0-1.84-.24,2.86,2.86,0,0,0-.91,1.9,4.53,4.53,0,0,0,.19,2.28c.13.34.34.73.68.78s.62-.38.81-.72a2.18,2.18,0,0,1-.26.56.78.78,0,0,1-.56.35.85.85,0,0,1-.61-.29,2.15,2.15,0,0,1-.38-.53,4.88,4.88,0,0,1-.43-2.5,4.33,4.33,0,0,1,.28-1.26,2.28,2.28,0,0,1,.81-1.13,1.94,1.94,0,0,1,1.4-.33,2.73,2.73,0,0,1,1.27.57,3.61,3.61,0,0,1,1.24,2.32,5.19,5.19,0,0,1-.37,2.54,6.29,6.29,0,0,1-1.32,2.13,1.92,1.92,0,0,1-1.16.55A1.44,1.44,0,0,1,277.14,193.08Z"/><path class="cls-16" d="M276.5,190.2a2,2,0,0,1,0-.87,1.06,1.06,0,0,1,.24-.42,1,1,0,0,1,.47-.22,1.42,1.42,0,0,1,1.5,1.09,2.48,2.48,0,0,1-.33,1.8,1.87,1.87,0,0,1-1.37,1,2.29,2.29,0,0,0,1-1.23,2.54,2.54,0,0,0,.2-1.47,1,1,0,0,0-.94-.82C276.84,189,276.59,189.67,276.5,190.2Z"/><path class="cls-18" d="M145.19,293.66h63.27L201,251a2.51,2.51,0,0,0-2.48-2.08H138.25a2.52,2.52,0,0,0-2.48,2.95l6.94,39.68A2.52,2.52,0,0,0,145.19,293.66Z"/><path class="cls-18" d="M170.38,288.89h64.74a0,0,0,0,1,0,0v4.76a0,0,0,0,1,0,0H170.38a2.05,2.05,0,0,1-2.05-2.05v-.66A2.05,2.05,0,0,1,170.38,288.89Z" transform="translate(403.44 582.55) rotate(-180)"/><path class="cls-23" d="M167.69,271.38a4.08,4.08,0,0,1,4.1-4.5,4.84,4.84,0,0,1,4.72,4.34,4.07,4.07,0,0,1-4.11,4.49A4.82,4.82,0,0,1,167.69,271.38Zm2.4-1.93a2.3,2.3,0,0,0-.57,1.77h0a3,3,0,0,0,2.88,2.65,2.23,2.23,0,0,0,2.27-2.49,3,3,0,0,0-2.88-2.65A2.26,2.26,0,0,0,170.09,269.45Z"/><path class="cls-11" d="M271.93,462.35,286.86,299.6a6.88,6.88,0,0,1,6.78-6.36h45.68a4.66,4.66,0,0,1,4.59,4.69l-.55,163.12a2.7,2.7,0,0,1-2.66,2.77h-3.92a2.7,2.7,0,0,1-2.66-2.72l.67-157.83H296.68l-15,159.33a1.32,1.32,0,0,1-1.31,1.22h-7.18A1.32,1.32,0,0,1,271.93,462.35Z"/><polygon class="cls-24" points="72.57 300.2 61.42 300.2 46.11 463.82 51.95 463.82 72.57 300.2"/><polygon class="cls-24" points="116.58 300.2 105.43 300.2 90.12 463.82 95.96 463.82 116.58 300.2"/><polygon class="cls-24" points="364.39 300.2 375.54 300.2 390.85 463.82 385.01 463.82 364.39 300.2"/><polygon class="cls-24" points="320.38 300.2 331.53 300.2 346.84 463.82 341 463.82 320.38 300.2"/><rect class="cls-25" x="31.37" y="291.65" width="374.22" height="15.41"/><rect class="cls-26" x="344.07" y="291.65" width="61.52" height="15.41"/><path class="cls-27" d="M355,283.88V273.83h-5.11v10.05a7.77,7.77,0,0,0,7.78,7.77h5.11A7.77,7.77,0,0,1,355,283.88Z"/><path class="cls-28" d="M371.78,283.88V273.83H355v10.05a7.77,7.77,0,0,0,7.78,7.77H364A7.78,7.78,0,0,0,371.78,283.88Z"/><rect class="cls-28" x="343.91" y="289.78" width="34.36" height="1.87"/><path class="cls-28" d="M372.57,276.23a4.19,4.19,0,1,0,4.19,4.19A4.19,4.19,0,0,0,372.57,276.23Zm0,6.76a2.57,2.57,0,1,1,2.56-2.57A2.57,2.57,0,0,1,372.57,283Z"/><path class="cls-29" d="M356.56,261.18a4.28,4.28,0,0,0-.84,2.52,5.24,5.24,0,0,0,.72,2.29l.72,1.24a8.27,8.27,0,0,1,.61,1.5,3.75,3.75,0,0,1,.07,1.74,1.25,1.25,0,0,1-1.28,1.06,1,1,0,0,0,.38-1.13,4.93,4.93,0,0,0-.52-1.13c-.24-.37-.49-.75-.76-1.12l-.41-.58-.43-.7a4.66,4.66,0,0,1-.53-3.38A3.18,3.18,0,0,1,356.56,261.18Z"/><path class="cls-29" d="M361,258.55a5.22,5.22,0,0,0-1.38,3.12,5.82,5.82,0,0,0,.93,3l1,1.55a9.6,9.6,0,0,1,.84,1.84,4.18,4.18,0,0,1,.19,2.15,1.82,1.82,0,0,1-.58,1,1.37,1.37,0,0,1-1,.32,1.3,1.3,0,0,0,.66-1.39,4.75,4.75,0,0,0-.61-1.5c-.32-.48-.61-1-1-1.45-.19-.24-.36-.47-.54-.73l-.57-.85c-.17-.31-.32-.63-.47-.95s-.23-.68-.32-1a5,5,0,0,1,0-2.21A4,4,0,0,1,361,258.55Z"/><path class="cls-29" d="M366.13,261.18a4.28,4.28,0,0,0-.84,2.52A5.11,5.11,0,0,0,366,266l.72,1.24a8.24,8.24,0,0,1,.6,1.5,3.62,3.62,0,0,1,.08,1.74,1.25,1.25,0,0,1-1.28,1.06,1,1,0,0,0,.37-1.13,4.49,4.49,0,0,0-.51-1.13c-.24-.37-.49-.75-.76-1.12l-.41-.58-.43-.7a4.66,4.66,0,0,1-.53-3.38A3.18,3.18,0,0,1,366.13,261.18Z"/><rect class="cls-6" x="303.58" y="26.19" width="63.69" height="63.69"/><rect class="cls-8" x="309.3" y="31.92" width="52.24" height="52.24"/><path class="cls-6" d="M348.14,58a12.72,12.72,0,1,1-12.72-12.72V58Z"/><rect class="cls-6" x="387.38" y="26.19" width="63.69" height="63.69"/><rect class="cls-8" x="393.11" y="31.92" width="52.24" height="52.24"/><rect class="cls-30" x="403.07" y="41.87" width="10.92" height="10.92"/><rect class="cls-30" x="413.77" y="52.58" width="10.92" height="10.92"/><rect class="cls-30" x="424.48" y="63.28" width="10.92" height="10.92"/><rect class="cls-6" x="387.38" y="109.86" width="63.69" height="63.69"/><rect class="cls-8" x="393.11" y="115.58" width="52.24" height="52.24"/><path class="cls-6" d="M419.23,155.08a13.38,13.38,0,1,1,13.38-13.38A13.39,13.39,0,0,1,419.23,155.08Zm0-21.46a8.09,8.09,0,1,0,8.09,8.08A8.09,8.09,0,0,0,419.23,133.62Z"/><rect class="cls-31" y="463.58" width="496.96" height="3"/></g></g></svg>