<svg xmlns="http://www.w3.org/2000/svg" width="180" height="183.791" viewBox="0 0 180 183.791">
  <g id="Group_652" data-name="Group 652" transform="translate(-98 -315)">
    <g id="_71.-Site-Down" data-name="71.-Site-Down" transform="translate(29.252 236.916)">
      <path id="color_x5F_7" d="M248.748,539.781a1.4,1.4,0,0,1-1.4,1.4H70.149a1.4,1.4,0,1,1,0-2.8h53.915l.484.658h4l0,0,1.366,0a.356.356,0,0,0,.319-.514l-.072-.144h36.66c-.02.131-.037.261-.051.388-.034.33.219.225.55.225h16.732c.264,0,.436.115.318-.122l-.246-.492H214.3l.051.114h1.769l-.061-.114h1.035l.061.114h.58l-.035-.114h.946l.035.114h.267c-.009-.038-.017-.076-.025-.114h.932c.009.038.017.076.026.114h1.968c0-.038,0-.076,0-.114h.9c0,.038,0,.076,0,.114h1.55c.007-.038.017-.076.025-.114h.931c-.008.038-.017.076-.025.114h1.207c.017-.039.034-.076.05-.114h.982l-.051.114h1.6l.042-.114h.969l-.042.114h2.389l.084-.114h14.891A1.4,1.4,0,0,1,248.748,539.781Z" transform="translate(0 -279.306)" fill="#263238"/>
      <path id="color_x5F_6" d="M343.588,401.549l-.272-.021a5.7,5.7,0,0,0-1.242-1.5c.013-.05.023-.1.033-.152l.032.026A10.34,10.34,0,0,1,343.588,401.549Zm-12.66-.963,7.327.558a3.089,3.089,0,0,1-1.281-1.622q-3.4.04-6.79-.253a.909.909,0,0,0,.744,1.317Zm11.036.413c-.073-.064-.148-.123-.224-.182l0,0a4.881,4.881,0,0,1,.546.629l.158.012C342.288,401.3,342.13,401.144,341.963,401Zm2.023.581.742.057,2.538.193c.013.064.03.127.047.19a3.292,3.292,0,0,0,6.269.289l-3.972-.3.138-1.815,3.972.3a3.289,3.289,0,0,0-2.979-2.62,3.327,3.327,0,0,0-.794.036,3.291,3.291,0,0,0-2.543,2.1h0l-1.559-.119-2.882-.219a6.268,6.268,0,0,1,1.02,1.811A.164.164,0,0,1,343.986,401.579Z" transform="translate(-158.579 -194.041)"/>
      <path id="color_x5F_5" d="M266.448,345.622l-.131-.07a4.354,4.354,0,0,0-2.217-1.769,3.082,3.082,0,0,1-.484-1.42,68.48,68.48,0,0,1-16.635-6.317,24.108,24.108,0,0,0,5.123-5.7c4.4,3.178,9.891,6.826,13.429,9.635l-.008.011a9.743,9.743,0,0,1,2.659,2.359,5.493,5.493,0,0,1,1.754,3.617c.019.2-.273.268-.34.1a10.782,10.782,0,0,0-1.065-2.084l-.025-.033c-.022.048-.045.095-.069.14a6.042,6.042,0,0,1,1.064,2.889c.019.2-.273.268-.34.1a10.779,10.779,0,0,0-1.065-2.084c-.055-.079-.113-.156-.173-.231l0,0a6.185,6.185,0,0,1,.836,2.546c.019.2-.273.268-.34.1a10.784,10.784,0,0,0-1.065-2.084c-.024-.035-.05-.068-.075-.1l-.115.062a6.255,6.255,0,0,1,.692,2.293c.019.2-.273.268-.34.1a14.258,14.258,0,0,0-.635-1.368A7.339,7.339,0,0,0,266.448,345.622ZM255.26,379.427a2.49,2.49,0,0,0,1.414-.539l1.173-.935.038-.48-4.992.2.17,1.872ZM210.146,376l1.556.841.474-.157-1.663-4.1-2.852,1.124,1.213,1.47A2.49,2.49,0,0,0,210.146,376Zm33.115-80.5a51.039,51.039,0,0,1,3.437,5.295.885.885,0,0,0,1.58-.105l.973-2.309h0l.346-.822.448-1.064.705.272a4.224,4.224,0,0,0,5.463-2.418l.877-2.27,2.57-6.651-7.931-1.195-2.449,3.874-.737-.285.2-.523a1.422,1.422,0,0,0-.812-1.834h0a1.422,1.422,0,0,0-1.834.812l-.357.923a1.421,1.421,0,0,0,.264,1.452h0a5.858,5.858,0,0,0-.335,1.316l-.721,1.314-1.044,1.9-.733,1.337A.879.879,0,0,0,243.261,295.5Zm1.754,32.986q3.1.79,6.278,1.277,2.291.355,4.6.557,3.387.293,6.79.253a3.089,3.089,0,0,0,1.281,1.622,7.283,7.283,0,0,0,2.258.851,4.251,4.251,0,0,1,1.028,1.048c.1.142.37,0,.3-.184a2.535,2.535,0,0,0-.716-1.341l.1-.088c.033.027.066.052.1.08a7.138,7.138,0,0,1,1.283,1.406c.1.142.37,0,.3-.184a4.366,4.366,0,0,0-1.173-1.91l0,0c.076.058.151.118.224.182.167.146.324.3.477.463a13.4,13.4,0,0,1,1.062,1.3c.1.142.37,0,.3-.184a6.18,6.18,0,0,0-.492-1.049,5.7,5.7,0,0,0-1.242-1.5c.013-.05.023-.1.033-.152l.032.026A10.3,10.3,0,0,1,269.3,332.6c.03.041.061.08.091.121.086.117.277.042.307-.09a.164.164,0,0,0,0-.094,6.278,6.278,0,0,0-1.02-1.811,4.486,4.486,0,0,0-1.56-1.272,9.527,9.527,0,0,0-3.153-1.642l.005-.013c-4-1.813-9.979-3.946-14.937-5.913l-.431-.171A24.108,24.108,0,0,1,245.015,328.482Z" transform="translate(-84.292 -125.088)" fill="#ffd2bb"/>
      <path id="color_x5F_4" d="M216.27,359.978l-1.663-4.1-.2-.49,11.835-3.628.01,0c.139-.058.274-.109.412-.164a24.975,24.975,0,0,1,16.635-1.209l-10.507-15.929a11.456,11.456,0,0,1-6.613-12l.514-3.973c1.544-13.085,1.322-27.673,8.17-39.045,1.611-2.676,5.642-3.278,7.885-3.278.174.082.342.169.506.26.053.029.1.062.157.092.109.064.217.128.321.2.059.038.115.077.173.117q.142.1.279.2.084.063.166.129c.09.071.177.144.262.219.05.043.1.086.149.13.093.085.182.172.27.261.037.037.074.072.11.109.122.127.239.257.352.391l.05.062c.095.115.187.232.275.352.036.048.07.1.1.147.067.094.133.19.2.287.037.056.072.114.107.171q.087.141.169.285c.034.059.067.118.1.179.054.1.106.2.157.3.028.057.057.114.085.171.056.119.109.239.161.361.018.042.038.084.055.127q.1.247.193.5c.013.037.025.076.038.114.046.133.09.266.132.4.019.062.036.124.054.186.033.113.065.227.095.341q.027.1.052.206.041.167.077.336c.015.069.03.139.044.208.024.118.046.237.066.357.011.063.023.127.033.19.024.147.045.295.065.444,0,.035.011.071.015.106a20.728,20.728,0,0,1-.216,6.15,2.8,2.8,0,0,0,2.241,3.227l.055.01a2.826,2.826,0,0,0,3.274-2.136,23.22,23.22,0,0,0,.515-3.188c.011-.117.022-.235.031-.352,0-.03.006-.059.008-.089.02-.275.034-.551.044-.826,0-.082,0-.164.006-.246.005-.2.008-.39.008-.585,0-.1,0-.2,0-.295,0-.184-.007-.368-.014-.551,0-.1-.007-.192-.012-.288q-.016-.308-.04-.615c-.006-.07-.009-.14-.016-.21q-.036-.409-.087-.816c-.007-.06-.017-.12-.026-.18-.029-.212-.059-.423-.094-.634-.015-.093-.032-.185-.049-.278-.031-.174-.064-.348-.1-.522l.346-.822a12.026,12.026,0,0,1,1.157,11.471c-.375.885-.747,1.8-1.116,2.743-1.091,2.782-2.15,5.8-3.153,9.077-.625-.263-1.221-.521-1.776-.773-1.051-4.976-3.026-16.209-4.077-21.184-2.763-6.924-12.041-4.518-10.379,2.644l8.025,24.844a64.191,64.191,0,0,0,6.134,1.944q-.662,2.648-1.269,5.481c-.048.222-.1.443-.143.667l.048,3.3,16.563,4.737.637.182,3.19.912a4.414,4.414,0,0,1,.661.185,4.368,4.368,0,0,1,2.779,5.156c-.029.12-.059.239-.1.359L265,352.206l-.087.289-2.472,8.256-.464.019-4.992.2-.622.026.3-7.162.011-.254.137-3.254c-.056-6.489,1.064-11.2,4.83-16.487l-14.488.858L252,352.876a4.389,4.389,0,0,1,.077,1.106c0,.083-.009.166-.019.247a4.379,4.379,0,0,1-4.082,3.886L216.4,360.309Zm47.485-91.257,2.472.372,1.835.276-1.836-2.539-.4-3.4a7.606,7.606,0,0,0-7.755-6.726c-.572.015-1.265.066-2.018.16a8.247,8.247,0,0,0-7.106,9.626l.99.149,5.881.886Z" transform="translate(-88.386 -108.385)" fill="#1b1464"/>
      <path id="color_x5F_3" d="M302.585,288.6l-.721,1.314a9.21,9.21,0,0,1-.1-5.11,16.885,16.885,0,0,1,1-2.825l5.881.886-2.449,3.874-.737-.285.2-.523a1.422,1.422,0,0,0-.812-1.834h0a1.422,1.422,0,0,0-1.834.812l-.357.923a1.421,1.421,0,0,0,.264,1.452h0A5.891,5.891,0,0,0,302.585,288.6ZM314,290.707a4.983,4.983,0,0,0,2.526-.315c1.291-.579,2.126-2.358,1.24-3.462l.035-.006a1.766,1.766,0,0,0,1.24-2.5l-2.472-.372Z" transform="translate(-141.204 -123.72)" fill="#e9575d"/>
      <path id="color_x5F_2" d="M265.237,213.736q.119-.715.219-1.436a.184.184,0,0,1,.2-.155.181.181,0,0,1,.155.2q-.1.725-.22,1.445a.182.182,0,0,1-.179.152l-.03,0A.182.182,0,0,1,265.237,213.736Zm1.113-7.934q.018-.728.018-1.461v-.114a.182.182,0,0,0-.363,0v.114q0,.728-.018,1.452a.182.182,0,0,0,.177.186h0A.182.182,0,0,0,266.35,205.8Zm-.419,4.174a.182.182,0,0,0,.18-.164q.068-.726.119-1.456a.182.182,0,1,0-.362-.025q-.05.726-.118,1.447a.182.182,0,0,0,.164.2Zm-.337-13.913a.181.181,0,0,0-.154.205q.1.717.185,1.44a.182.182,0,0,0,.18.161h.021a.182.182,0,0,0,.16-.2q-.084-.727-.186-1.449A.179.179,0,0,0,265.594,196.063Zm.266,4.174q.051.722.085,1.449a.182.182,0,0,0,.181.173h.008a.181.181,0,0,0,.173-.19q-.033-.732-.085-1.459a.184.184,0,0,0-.194-.168A.182.182,0,0,0,265.86,200.238Zm-2.673-14.072a.188.188,0,0,0,.058-.009.181.181,0,0,0,.114-.23q-.234-.694-.485-1.379a.182.182,0,0,0-.341.125q.249.681.482,1.37A.181.181,0,0,0,263.187,186.165Zm-.617,37.744q-.249.685-.516,1.362a.181.181,0,0,0,.1.236.174.174,0,0,0,.067.013.181.181,0,0,0,.169-.115q.269-.682.519-1.371a.182.182,0,1,0-.341-.124Zm-5.232-50.2a.181.181,0,0,0-.057.25q.385.613.755,1.237a.181.181,0,1,0,.312-.186q-.372-.628-.76-1.244A.182.182,0,0,0,257.338,173.713Zm1.975,57.5q-.343.642-.7,1.275a.182.182,0,0,0,.069.248.181.181,0,0,0,.247-.068q.36-.637.705-1.283a.182.182,0,0,0-.32-.171ZM155.431,183.229a.182.182,0,0,0-.235.1q-.267.681-.518,1.371a.182.182,0,0,0,.109.233.189.189,0,0,0,.062.011.181.181,0,0,0,.171-.12q.249-.685.514-1.362A.181.181,0,0,0,155.431,183.229ZM260.11,178.8a.181.181,0,0,0,.162-.263q-.327-.652-.671-1.294a.182.182,0,0,0-.32.171q.341.638.667,1.285A.182.182,0,0,0,260.11,178.8Zm5.131,15.112a.181.181,0,0,0,.145-.212q-.135-.72-.287-1.433a.182.182,0,0,0-.355.076q.151.708.285,1.424a.182.182,0,0,0,.178.148A.192.192,0,0,0,265.241,193.907Zm-3.463-11.482a.175.175,0,0,0,.07-.014.182.182,0,0,0,.1-.238q-.28-.673-.578-1.336a.182.182,0,1,0-.331.149q.3.659.574,1.328A.181.181,0,0,0,261.777,182.425Zm-.707,45.194q-.3.665-.61,1.322a.182.182,0,0,0,.328.157q.316-.661.614-1.33a.182.182,0,1,0-.332-.148Zm-108.394-11.11a.2.2,0,0,0,.038,0,.182.182,0,0,0,.14-.215q-.151-.709-.284-1.424a.182.182,0,0,0-.357.066q.134.719.285,1.433A.182.182,0,0,0,152.676,216.508Zm.795,3.753a.182.182,0,0,0,.174.132.173.173,0,0,0,.05-.007.181.181,0,0,0,.124-.225q-.2-.7-.383-1.4a.182.182,0,1,0-.352.092Q153.27,219.561,153.471,220.262Zm94.755-57.436a.182.182,0,0,0,.125-.314q-.531-.5-1.075-.99a.181.181,0,1,0-.243.27q.54.485,1.068.984A.18.18,0,0,0,248.226,162.825Zm-95.214,28.046a.181.181,0,0,0-.219.135q-.168.71-.319,1.426a.182.182,0,0,0,.14.215.176.176,0,0,0,.038,0,.181.181,0,0,0,.177-.144q.15-.712.317-1.417A.181.181,0,0,0,153.012,190.871Zm-.8,3.924a.179.179,0,0,0-.208.149q-.119.72-.219,1.445a.181.181,0,0,0,.155.2l.025,0a.182.182,0,0,0,.18-.157q.1-.721.217-1.436A.181.181,0,0,0,152.213,194.795Zm74.518,64.074a.182.182,0,0,0-.229-.117c-.373.122-.749.236-1.126.35l.637.182c.2-.063.4-.122.6-.187A.181.181,0,0,0,226.731,258.868Zm5.759-2.246a.179.179,0,0,0,.153.1v-.373l-.063.03A.182.182,0,0,0,232.49,256.622Zm-78.405-69.609a.181.181,0,0,0-.228.119q-.218.7-.419,1.4a.182.182,0,0,0,.35.1q.2-.7.416-1.391A.181.181,0,0,0,154.085,187.013Zm17.527-26.37a.182.182,0,0,0-.256-.02q-.554.475-1.1.964a.181.181,0,0,0,.122.316.179.179,0,0,0,.122-.047q.539-.486,1.09-.958A.181.181,0,0,0,171.612,160.643ZM264.334,190a.182.182,0,0,0,.175-.227q-.185-.708-.387-1.409a.182.182,0,1,0-.349.1q.2.7.385,1.4A.182.182,0,0,0,264.334,190Zm.249,27.865a.173.173,0,0,0,.042.005.181.181,0,0,0,.177-.139q.169-.71.32-1.426a.182.182,0,1,0-.355-.076q-.15.712-.318,1.417A.182.182,0,0,0,264.583,217.868Zm-110.238,4.6a.181.181,0,0,0-.114.23q.233.694.484,1.379a.182.182,0,1,0,.341-.125q-.249-.681-.48-1.37A.181.181,0,0,0,154.346,222.473Zm109.684-2.491a.179.179,0,0,0-.225.125q-.2.7-.417,1.391a.181.181,0,0,0,.119.227.174.174,0,0,0,.054.009.181.181,0,0,0,.173-.127q.219-.7.42-1.4A.181.181,0,0,0,264.03,219.982ZM151.258,202.938q-.017.7-.017,1.4v.057a.182.182,0,1,0,.363,0v-.057q0-.7.017-1.394a.182.182,0,0,0-.177-.186A.178.178,0,0,0,151.258,202.938Zm.724,9.627.026,0a.181.181,0,0,0,.155-.2q-.1-.717-.184-1.44a.181.181,0,1,0-.361.041q.084.727.185,1.449A.181.181,0,0,0,151.982,212.565Zm-.418-3.982h.013a.182.182,0,0,0,.168-.194q-.05-.723-.083-1.45a.182.182,0,1,0-.363.016q.032.732.083,1.458A.183.183,0,0,0,151.564,208.583Zm-.007-8a.181.181,0,0,0,.181-.169q.049-.726.117-1.447a.182.182,0,0,0-.362-.034q-.068.725-.118,1.456a.182.182,0,0,0,.169.193Zm56.8-53.618a.189.189,0,0,0-.184-.18q-.733.008-1.459.034a.182.182,0,0,0,.006.363h.007q.723-.025,1.45-.034A.182.182,0,0,0,208.357,146.961Zm-17.36,3a.175.175,0,0,0,.056-.009q.689-.225,1.386-.433a.182.182,0,0,0-.1-.348q-.7.209-1.4.435a.182.182,0,0,0,.057.354Zm-3.761,1.375a.182.182,0,0,0,.068-.013q.672-.273,1.352-.529a.182.182,0,1,0-.128-.34q-.685.258-1.361.532a.182.182,0,0,0,.068.35Zm11.557-3.319q.713-.126,1.433-.234a.182.182,0,1,0-.054-.359q-.724.109-1.442.236a.181.181,0,0,0,.031.36Zm-13.726,4.07a.182.182,0,0,0-.241-.089q-.663.3-1.316.624a.181.181,0,0,0,.16.326q.649-.319,1.308-.62A.181.181,0,0,0,185.067,152.084Zm17.678-4.626q.72-.076,1.446-.134a.181.181,0,1,0-.029-.362q-.73.058-1.455.135a.182.182,0,0,0,.019.362ZM166.41,243.012a.181.181,0,0,0-.011.256q.494.538,1,1.064a.182.182,0,1,0,.261-.252q-.5-.522-.995-1.057A.182.182,0,0,0,166.41,243.012ZM164.963,167.6q.467-.556.947-1.1a.182.182,0,0,0-.272-.24q-.483.548-.953,1.108a.182.182,0,0,0,.278.234Zm2.671-2.968q.5-.523,1.021-1.032a.181.181,0,1,0-.255-.258q-.52.513-1.027,1.038a.181.181,0,0,0,.131.307A.185.185,0,0,0,167.634,164.632Zm83.4,1.044a.181.181,0,0,0,.133-.3q-.495-.537-1-1.062a.182.182,0,1,0-.261.252q.5.521,1,1.055A.18.18,0,0,0,251.038,165.676ZM162.5,170.747q.428-.588.869-1.165a.182.182,0,1,0-.289-.221q-.445.58-.874,1.172a.182.182,0,0,0,.04.254.182.182,0,0,0,.254-.04Zm7.787,76.375a.181.181,0,1,0,.243-.269q-.54-.486-1.067-.986a.181.181,0,0,0-.249.264Q169.747,246.634,170.29,247.122Zm-6.474-7.158a.181.181,0,0,0-.029.255q.455.572.925,1.13a.181.181,0,1,0,.278-.233q-.467-.556-.919-1.123A.181.181,0,0,0,163.816,239.965Zm15.144,13.183a.182.182,0,0,0-.19.31q.624.382,1.257.749a.182.182,0,0,0,.182-.314Q179.58,253.528,178.96,253.148Zm-2.181-96.208q.6-.406,1.211-.8a.182.182,0,1,0-.2-.306q-.615.393-1.218.8a.182.182,0,0,0,.2.3ZM159.3,233.37a.182.182,0,0,0-.064.249q.372.628.759,1.245a.182.182,0,0,0,.308-.193q-.385-.613-.754-1.238A.183.183,0,0,0,159.3,233.37ZM172.2,248.536a.182.182,0,0,0,.025.256q.564.465,1.14.915a.181.181,0,0,0,.255-.031.182.182,0,0,0-.031-.255q-.572-.448-1.133-.909A.182.182,0,0,0,172.2,248.536Zm1.353-89.247q.57-.447,1.153-.88a.182.182,0,0,0-.217-.291q-.586.436-1.16.885a.181.181,0,0,0,.112.324A.177.177,0,0,0,173.556,159.289Zm1.819,91.7a.181.181,0,0,0,.042.253q.6.424,1.2.834a.182.182,0,0,0,.2-.3q-.6-.408-1.194-.829A.182.182,0,0,0,175.375,250.985Zm6.9,4.453q.649.338,1.307.66a.179.179,0,0,0,.079.018.182.182,0,0,0,.08-.345q-.655-.32-1.3-.655a.181.181,0,1,0-.167.322Zm3.778,1.4a.182.182,0,0,0-.144.333q.671.291,1.351.566a.182.182,0,0,0,.236-.1.182.182,0,0,0-.1-.237Q186.717,257.127,186.05,256.837ZM161,172.585a.181.181,0,0,0-.252.051q-.4.61-.792,1.231a.181.181,0,0,0,.058.25.179.179,0,0,0,.1.028.182.182,0,0,0,.154-.085q.386-.617.786-1.223A.181.181,0,0,0,161,172.585Zm19.152-17.763q.626-.363,1.262-.711a.181.181,0,1,0-.174-.318q-.64.35-1.27.715a.181.181,0,1,0,.182.314Zm-18.714,81.923a.182.182,0,0,0-.046.253q.415.6.844,1.191a.181.181,0,1,0,.293-.214q-.426-.586-.839-1.184A.181.181,0,0,0,161.441,236.745Zm-4.048-6.889a.182.182,0,0,0-.081.244q.327.652.669,1.295a.182.182,0,0,0,.32-.171q-.34-.638-.665-1.286A.181.181,0,0,0,157.392,229.855Zm74.114-78.032a.182.182,0,1,0,.145-.333q-.672-.291-1.353-.565a.182.182,0,0,0-.136.337Q230.839,151.534,231.506,151.823ZM158.9,176a.182.182,0,0,0-.247.069q-.36.637-.7,1.283a.182.182,0,0,0,.075.246.179.179,0,0,0,.085.021.182.182,0,0,0,.16-.1q.342-.643.7-1.276A.182.182,0,0,0,158.9,176Zm-1.861,3.554a.183.183,0,0,0-.242.086q-.314.661-.613,1.331a.181.181,0,1,0,.331.148q.3-.665.609-1.322A.181.181,0,0,0,157.038,179.552Zm39.4-31.258a.181.181,0,0,0-.217-.138q-.714.159-1.422.336a.182.182,0,0,0,.044.358.169.169,0,0,0,.044-.006q.7-.176,1.413-.334A.181.181,0,0,0,196.439,148.294Zm31.341,2.069a.179.179,0,0,0,.06.01.182.182,0,0,0,.061-.353q-.691-.243-1.39-.468a.181.181,0,1,0-.111.345Q227.094,150.122,227.781,150.363Zm7.422,3.2a.182.182,0,0,0,.083-.343q-.649-.337-1.309-.658a.181.181,0,0,0-.159.326q.655.319,1.3.654A.187.187,0,0,0,235.2,153.56Zm-12.555-5.107a.182.182,0,0,0-.087.353q.706.174,1.4.366a.188.188,0,0,0,.048.006.182.182,0,0,0,.048-.357Q223.358,148.628,222.647,148.453Zm-10.479-1.215h.011a.181.181,0,0,0,.011-.363q-.728-.042-1.46-.066h-.006a.182.182,0,0,0-.006.363Q211.445,147.2,212.168,147.238Zm7.949,1.018a.181.181,0,0,0,.035-.359q-.715-.143-1.437-.268a.182.182,0,0,0-.062.358q.717.124,1.427.267A.212.212,0,0,0,220.118,148.256Zm-3.975-.649.024,0a.182.182,0,0,0,.022-.362q-.723-.093-1.451-.167a.184.184,0,0,0-.2.162.181.181,0,0,0,.162.2Q215.423,147.515,216.142,147.607Zm29.08,12.568a.182.182,0,0,0,.115-.322q-.564-.464-1.141-.914a.182.182,0,1,0-.223.286q.573.447,1.134.908A.179.179,0,0,0,245.222,160.175Zm10.811,11.747a.181.181,0,0,0,.149-.285q-.415-.6-.845-1.19a.182.182,0,0,0-.294.214q.428.586.84,1.182A.18.18,0,0,0,256.033,171.923Zm-100.293,54.3a.181.181,0,0,0-.1.238q.28.673.577,1.337a.182.182,0,1,0,.331-.149q-.295-.66-.573-1.329A.183.183,0,0,0,155.74,226.219Zm97.9-57.506a.181.181,0,0,0,.142-.295q-.456-.57-.926-1.129a.182.182,0,0,0-.278.234q.468.554.92,1.121A.182.182,0,0,0,253.644,168.713Zm-11.709-11.007a.182.182,0,0,0,.211-.3q-.6-.424-1.2-.833a.182.182,0,1,0-.2.3Q241.343,157.285,241.935,157.707Zm-3.335-2.2a.182.182,0,0,0,.19-.31q-.624-.382-1.258-.747a.182.182,0,0,0-.181.315Q237.98,155.125,238.6,155.5Zm-48.325,29.062H184.8v-3.16h4.9v-2.449h-4.9v-2.765H190v-2.469h-8.216v13.313h8.493v-2.469Zm12.109,2.469H199.3a16.667,16.667,0,0,1-.928-3.1c-.355-1.659-.928-2.113-2.153-2.133h-.909v5.234H192.33V173.9a26.441,26.441,0,0,1,4.009-.276,6.794,6.794,0,0,1,4.306,1.047,3.379,3.379,0,0,1,1.224,2.785,3.532,3.532,0,0,1-2.351,3.279v.059a3.357,3.357,0,0,1,1.778,2.489C201.713,184.784,202.127,186.522,202.384,187.036Zm-3.5-9.323c0-1.224-.829-1.837-2.212-1.857a7.5,7.5,0,0,0-1.363.1v3.674H196.5C198,179.628,198.888,178.878,198.888,177.713Zm9.047,4.089h-.909v5.234h-2.982V173.9a26.441,26.441,0,0,1,4.009-.276,6.794,6.794,0,0,1,4.306,1.047,3.379,3.379,0,0,1,1.224,2.785,3.532,3.532,0,0,1-2.351,3.279v.059a3.357,3.357,0,0,1,1.778,2.489c.415,1.5.83,3.239,1.086,3.753h-3.081a16.669,16.669,0,0,1-.928-3.1C209.733,182.275,209.16,181.821,207.935,181.8Zm-.909-2.173h1.185c1.5,0,2.39-.751,2.39-1.916,0-1.224-.829-1.837-2.212-1.857a7.5,7.5,0,0,0-1.363.1v3.674Zm8.04.849c0-3.99,2.548-6.972,6.478-6.972,4.088,0,6.32,3.061,6.32,6.735,0,4.365-2.647,7.012-6.538,7.012C217.377,187.253,215.067,184.27,215.067,180.478Zm3.18-.059c0,2.607,1.224,4.444,3.239,4.444,2.034,0,3.2-1.936,3.2-4.523,0-2.39-1.145-4.444-3.22-4.444C219.432,175.9,218.246,177.831,218.246,180.419Zm11.6-6.518a26.442,26.442,0,0,1,4.009-.276,6.793,6.793,0,0,1,4.306,1.047,3.378,3.378,0,0,1,1.224,2.785,3.532,3.532,0,0,1-2.351,3.279v.059a3.357,3.357,0,0,1,1.778,2.489c.415,1.5.829,3.239,1.086,3.753h-3.082a16.678,16.678,0,0,1-.928-3.1c-.355-1.659-.928-2.113-2.153-2.133h-.909v5.234h-2.982V173.9Zm2.982,5.728h1.185c1.5,0,2.39-.751,2.39-1.916,0-1.224-.829-1.837-2.212-1.857a7.5,7.5,0,0,0-1.363.1Zm46.963,121.131v-1.851c-.226.617-.451,1.233-.673,1.851Zm-5.406,0h.931a91.825,91.825,0,0,1,4.152-13.423c.1-.28.216-.557.323-.836v-2.492c-.414,1.023-.819,2.05-1.2,3.085A91.373,91.373,0,0,0,274.381,300.759Zm-19.508,0h9.482c-.511-1.176-1.035-2.347-1.585-3.506-.611-1.288-1.39-2.511-2.027-3.793a11.9,11.9,0,0,1,.175-2.4c1.635,2.891,3.17,5.837,4.713,8.779.16.306.322.61.483.916h1.035c-.147-.275-.295-.549-.44-.825-1.79-3.411-3.563-6.83-5.482-10.169q.14-.473.319-.932c.53,1.01,1.054,2.023,1.543,3.054.252.531,1.04.068.789-.461-.586-1.234-1.223-2.444-1.863-3.651a13.351,13.351,0,0,1,.959-1.629c1.786,4.8,3.288,9.706,4.78,14.613h.946c-1.583-5.2-3.171-10.39-5.082-15.473.147-.182.3-.358.459-.532.258.78.518,1.558.8,2.33.2.549,1.082.312.881-.243-.34-.939-.654-1.886-.965-2.834a14.336,14.336,0,0,1,1.314-1.125,147,147,0,0,0,2.872,17.878h.932a147.107,147.107,0,0,1-2.949-18.476,14.1,14.1,0,0,1,3.1-1.512,64.152,64.152,0,0,0-.049,10.542c.054.58.968.586.913,0A65.147,65.147,0,0,1,271,280.49a12.509,12.509,0,0,1,3.2-.418c.063,0,.125,0,.187,0-1.333,6.878-2.762,13.772-2.487,20.683h.9c-.294-6.889,1.14-13.775,2.479-20.636a12.935,12.935,0,0,1,2.246.41,55.877,55.877,0,0,0-2.232,8.37c-.1.575.781.822.881.243A55.8,55.8,0,0,1,278.4,280.8a14.317,14.317,0,0,1,1.387.567V234.587H267.852l-12.978,20.253Zm21.67,0h.982c.745-1.709,1.558-3.37,2.261-4.946v-2.222l-.925,2.067C278.133,297.284,277.3,299,276.544,300.759Zm-22.848-48.5,9.674-15.1H246.8l-5.374,8.387a3.3,3.3,0,0,1,3.773,2.585l-3.972-.3-.138,1.815,3.972.3a3.292,3.292,0,0,1-6.269-.289l-1.665,2.6H253.7Zm-21.052,46.772a3.593,3.593,0,0,0-1.083-.409l-2.525-.5c-1.309-.262-2.842-.678-3.629-1.756l-1.48-2.063-.314.25-1.173.935a2.493,2.493,0,0,1-1.414.539l-2.2.122-.5.028a20.753,20.753,0,0,0-1.453,4.585c-.02.131-.037.261-.051.388-.034.33.219.225.55.225h16.732c.264,0,.436.115.318-.122l-.246-.492-.106-.212A3.6,3.6,0,0,0,232.643,299.034Zm-54.036,2.383,0,0,1.366,0a.356.356,0,0,0,.319-.514l-.072-.144-.278-.561a3.606,3.606,0,0,0-2.513-1.93l-.25-.051a4.36,4.36,0,0,1-.216-2.714l.9-1.856-.394-.214-1.556-.841a2.494,2.494,0,0,1-1.273-.82l-1.213-1.47-.5-.609a19.622,19.622,0,0,0-4.9,1.736.556.556,0,0,0-.172.81l6.267,8.519.484.658h4Zm26.475-91.605c.109.064.217.128.321.2.059.038.115.077.173.117.095.065.188.131.279.2q.084.063.166.129c.09.071.177.144.262.219.05.043.1.086.149.13.093.085.182.172.27.261.037.037.074.072.11.109.121.127.239.257.352.391l.05.062c.095.115.187.232.275.352.036.048.07.1.1.147.067.094.133.19.2.287.037.056.072.114.107.171q.087.141.169.285c.034.059.067.118.1.179.054.1.106.2.157.3.028.057.057.114.085.171.056.119.109.239.161.361.018.042.038.084.055.127q.1.247.193.5c.013.037.025.076.038.114.046.133.09.266.132.4.019.062.036.124.054.186.033.113.065.227.095.341q.027.1.052.206.041.167.077.336c.015.069.03.139.044.208.024.118.046.237.066.357.011.063.023.127.033.19.024.147.045.295.065.444,0,.035.011.071.015.106h0a20.727,20.727,0,0,1-.216,6.15,2.8,2.8,0,0,0,2.241,3.227l.055.01a2.826,2.826,0,0,0,3.274-2.136,23.22,23.22,0,0,0,.515-3.188v0c.011-.116.023-.232.032-.348,0-.029.006-.059.008-.088.02-.275.034-.551.044-.827,0-.082,0-.164.006-.246.005-.2.008-.39.008-.585,0-.1,0-.2,0-.295,0-.184-.007-.368-.014-.551,0-.1-.007-.192-.012-.288-.01-.205-.024-.41-.04-.615-.006-.07-.009-.14-.016-.21q-.036-.409-.087-.816c-.007-.06-.017-.12-.026-.18q-.042-.318-.094-.634c-.015-.093-.032-.185-.049-.278q-.047-.261-.1-.521l-.973,2.309a.885.885,0,0,1-1.58.105,50.971,50.971,0,0,0-3.437-5.295.88.88,0,0,1-.086-.98l.733-1.337a22.59,22.59,0,0,0-5.254-.317c.174.082.342.169.506.26C204.979,209.749,205.03,209.781,205.082,209.812Zm5.392,26.857c-1.051-4.976-3.026-16.209-4.077-21.184-2.763-6.924-12.041-4.518-10.379,2.644l8.025,24.844a64.2,64.2,0,0,0,6.134,1.944q-.662,2.648-1.269,5.481,1.881,1.186,3.838,2.246a24.108,24.108,0,0,0,5.123-5.7c-.275-.2-.545-.4-.811-.591q-3.167-.491-6.278-1.277a24.109,24.109,0,0,0,3.586-6.771l.431.171c.189-3.238.422-6.918.607-10.114-1.091,2.782-2.15,5.8-3.153,9.077C211.625,237.178,211.029,236.92,210.474,236.668Z" transform="translate(-50.057 -41.685)" fill="#e11f27"/>
      <path id="color_x5F_1" d="M86.411,192.942a84.292,84.292,0,0,1,6.384-74.6,2.9,2.9,0,0,0,.249.155,83.623,83.623,0,0,0-6.362,74.357Q86.542,192.893,86.411,192.942Zm78.1-114.613a83.8,83.8,0,0,1,74.909,46.38c.088-.043.18-.081.275-.116a84,84,0,0,0-134.549-21.919,85.094,85.094,0,0,0-8.53,9.959c.081.057.158.117.232.18A83.646,83.646,0,0,1,164.512,78.329Zm-20.469,164.88a84.063,84.063,0,0,1-54.586-44.135,2.937,2.937,0,0,1-.259.143,84.338,84.338,0,0,0,54.423,44.16l.01,0C143.77,243.315,143.9,243.264,144.043,243.209Zm30.012,1.991q-2.284.26-4.6.4c0,.083-.009.166-.019.247q2.318-.133,4.611-.391Zm74.41-83.162a83.869,83.869,0,0,0-5.963-31.182c-.084.043-.171.082-.261.117a83.59,83.59,0,0,1-6.747,75.384v.565A83.4,83.4,0,0,0,248.466,162.038ZM84.758,258.6c-2.053-3.917-4.1-7.838-6.272-11.686a15.856,15.856,0,0,0-.234,3.189c.848,1.706,1.885,3.334,2.7,5.049.615,1.3,1.2,2.6,1.778,3.917h2.277C84.924,258.918,84.841,258.761,84.758,258.6Zm.631-22.578a19.01,19.01,0,0,0-1.749,1.5c.414,1.262.831,2.524,1.284,3.773.267.738-.908,1.053-1.173.323-.373-1.027-.72-2.064-1.062-3.1-.208.232-.415.467-.611.709,2.452,6.521,4.5,13.18,6.536,19.847h.431A197.6,197.6,0,0,1,85.39,236.027Zm-4.168,4.346a17.754,17.754,0,0,0-1.277,2.168c.852,1.607,1.7,3.217,2.48,4.86.334.7-.714,1.32-1.05.614-.652-1.372-1.349-2.721-2.054-4.066-.158.407-.3.82-.425,1.24,2.554,4.445,4.914,9,7.3,13.536.061.117.124.233.186.349h.978C85.445,252.794,83.508,246.523,81.222,240.373Zm15.191-8.08c-.083,0-.166-.006-.249-.006a16.667,16.667,0,0,0-4.266.557,86.7,86.7,0,0,0-.092,14.407c.073.78-1.144.773-1.216,0a85.387,85.387,0,0,1,.065-14.032,18.738,18.738,0,0,0-4.127,2.012,197.708,197.708,0,0,0,3.759,23.843h2.795C92.844,250.126,94.687,241.2,96.413,232.293Zm8.941,20.376c1.341-3.488,2.677-7,4.317-10.359.392-.8.8-1.606,1.193-2.414q-.28-.369-.578-.723c-.548,1.026-1.087,2.058-1.608,3.1-1.792,3.582-3.419,7.236-5.046,10.894-.84,1.888-1.8,3.871-2.71,5.907h2.053Q104.134,255.86,105.354,252.669ZM102,241.634q1.315-3.539,2.8-7.006a18.879,18.879,0,0,0-3.047-1.366,74.281,74.281,0,0,0-2.958,11.1c-.133.771-1.3.442-1.173-.323a74.379,74.379,0,0,1,2.971-11.14,17.223,17.223,0,0,0-2.99-.545c-1.734,8.884-3.583,17.8-3.323,26.719h2.285A125.821,125.821,0,0,1,102,241.634Zm.37,11.4c1.819-4.06,3.613-8.126,5.624-12.1.464-.916.947-1.821,1.436-2.722q-.405-.423-.836-.822c-.879,1.419-1.76,2.836-2.695,4.219-.436.646-1.489.036-1.05-.614.977-1.446,1.9-2.929,2.815-4.413a20.177,20.177,0,0,0-1.818-1.326q-1.416,3.314-2.675,6.7a126.565,126.565,0,0,0-5.362,17.117h1.8C100.527,256.993,101.5,254.966,102.368,253.033Zm12.181-2.087a17.665,17.665,0,0,0-.454-4.29c-.015-.064-.034-.128-.05-.193a20.529,20.529,0,0,0-4.124,6.588c-.26.733-1.434.416-1.173-.323a22.872,22.872,0,0,1,4.908-7.6,18.1,18.1,0,0,0-2-4.1c-1.8,3.66-3.362,7.385-4.836,11.188-.882,2.275-1.729,4.564-2.559,6.858h3.509C109.87,256.244,112.217,253.563,114.549,250.946Zm80.04-44.975a3.291,3.291,0,0,1,2.543-2.1l5.374-8.387h16.57l-9.674,15.1h-16.57l1.665-2.6c-.017-.063-.034-.126-.047-.19l-2.538-.193-3.563,5.561v2.735a9.517,9.517,0,0,1,1.305,1.376,5.493,5.493,0,0,1,1.754,3.617c.019.2-.273.268-.34.1A10.78,10.78,0,0,0,190,218.9l-.025-.033c-.022.048-.045.095-.069.14a6.042,6.042,0,0,1,1.064,2.889c.019.2-.273.268-.34.1a10.782,10.782,0,0,0-1.065-2.084c-.055-.079-.113-.156-.173-.231l0,0a6.185,6.185,0,0,1,.836,2.546c.019.2-.273.268-.34.1a10.782,10.782,0,0,0-1.065-2.084c-.024-.035-.05-.068-.075-.1l-.115.062a6.256,6.256,0,0,1,.692,2.293c.019.2-.273.268-.34.1a14.252,14.252,0,0,0-.635-1.368v.522a4.338,4.338,0,0,1,0,2.08v18.431q-2.941.875-5.97,1.537l-.086.289q3.062-.657,6.056-1.539v14.778a3.6,3.6,0,0,1,1.435,1.514l.106.212h20.69V213.155L223.559,192.9H201.329l-8.3,12.952,1.559.118S194.589,205.971,194.589,205.971Zm22.037,43.408a11.9,11.9,0,0,0-.175,2.4c.637,1.282,1.416,2.505,2.027,3.793.55,1.159,1.074,2.329,1.585,3.506l.051.114h1.769l-.061-.114c-.161-.305-.323-.61-.483-.916C219.8,255.216,218.262,252.27,216.627,249.379Zm3.873-7.058c.311.948.625,1.9.965,2.834.2.554-.682.791-.881.243-.28-.772-.541-1.55-.8-2.33-.156.175-.311.35-.459.532,1.911,5.083,3.5,10.277,5.082,15.473l.035.114h.267c-.009-.038-.017-.076-.025-.114a147.006,147.006,0,0,1-2.872-17.878A14.409,14.409,0,0,0,220.5,242.321Zm-2.776,3.769c.64,1.208,1.277,2.417,1.863,3.651.251.529-.537.992-.789.461-.49-1.031-1.013-2.045-1.543-3.054q-.178.459-.319.931c1.919,3.339,3.692,6.759,5.482,10.169.145.276.293.55.44.825l.061.114h.58l-.035-.114c-1.492-4.906-2.995-9.808-4.78-14.613A13.25,13.25,0,0,0,217.724,246.09Zm12.372-7.7c-.062,0-.124,0-.187,0a12.528,12.528,0,0,0-3.205.418,65.149,65.149,0,0,0-.07,10.824c.055.586-.859.58-.913,0a64.148,64.148,0,0,1,.049-10.542,14.1,14.1,0,0,0-3.1,1.512,147.181,147.181,0,0,0,2.949,18.476c.009.038.017.076.026.114h1.968c0-.038,0-.076,0-.114C227.333,252.163,228.763,245.269,230.1,238.391Zm3.087,20.8h1.6l.042-.114c.221-.618.447-1.235.673-1.851.431-1.178.867-2.353,1.318-3.524,1.008-2.62,2.011-5.258,3.244-7.782.295-.6.6-1.206.9-1.813q-.211-.277-.434-.543-.618,1.157-1.208,2.329c-1.346,2.691-2.568,5.436-3.791,8.185l-.025.055c-.7,1.576-1.517,3.236-2.261,4.946C233.216,259.113,233.2,259.15,233.182,259.189Zm-1.3-11.729c-.1.579-.98.332-.881-.243a55.925,55.925,0,0,1,2.232-8.37,12.933,12.933,0,0,0-2.246-.41c-1.339,6.861-2.773,13.748-2.479,20.636,0,.038,0,.076,0,.114h1.55c.007-.038.017-.076.025-.114a91.386,91.386,0,0,1,4.2-13.665c.385-1.035.789-2.063,1.2-3.085.295-.729.593-1.456.9-2.178-.295-.165-.6-.317-.9-.46a14.324,14.324,0,0,0-1.387-.567A55.754,55.754,0,0,0,231.885,247.46Zm-.866,11.614c-.008.038-.017.076-.025.114H232.2c.017-.039.034-.076.05-.114.755-1.762,1.59-3.475,2.318-5.1l.925-2.067c1.059-2.36,2.13-4.712,3.3-7.021.349-.688.711-1.368,1.079-2.045q-.3-.318-.628-.617c-.661,1.066-1.322,2.131-2.024,3.17-.328.485-1.119.027-.789-.461.734-1.086,1.425-2.2,2.115-3.315a15.025,15.025,0,0,0-1.366-1c-.592,1.385-1.15,2.785-1.687,4.194-.107.279-.219.556-.323.836A91.8,91.8,0,0,0,231.019,259.074Zm7.118.114.084-.114a81.8,81.8,0,0,1,5.5-6.669,13.266,13.266,0,0,0-.341-3.223c-.011-.049-.026-.1-.037-.145a15.427,15.427,0,0,0-3.1,4.949c-.2.551-1.078.312-.881-.243a17.179,17.179,0,0,1,3.687-5.712,13.576,13.576,0,0,0-1.5-3.078c-1.351,2.749-2.526,5.548-3.633,8.405q-1.1,2.843-2.128,5.715l-.042.114h2.388Z" transform="translate(-5.764)" fill="#504b78"/>
    </g>
  </g>
</svg>
