<svg xmlns="http://www.w3.org/2000/svg" viewBox="0 0 339.13 438.27"><defs><style>.cls-1{fill:#085d66;}.cls-2{fill:#296d47;}.cls-3{fill:#225a3d;}.cls-4{fill:#08747f;}.cls-5{fill:#00ab45;}.cls-6{fill:#e0a4ab;}.cls-7{fill:#121e21;}.cls-8{fill:#ffcdc2;}.cls-9{fill:#008e39;}.cls-10{fill:#414042;}.cls-11{fill:#5286d8;}.cls-12{fill:#ea9898;}.cls-13{fill:#e56c6c;}</style></defs><g id="Layer_2" data-name="Layer 2"><g id="Layer_2-2" data-name="Layer 2"><path class="cls-1" d="M339.13,438.27H.6s-9.38-85.22,46-117.26l82.69,63.32s9-26.52,40.31-36.36,72.41-4.87,93.27-24,45.38,12.87,45.38,12.87S337.05,346.48,339.13,438.27Z"/><path class="cls-2" d="M166.41,351.24s-5.64,7.43-9.47,21.11a87.62,87.62,0,0,0-1.87,38.15c.88,5.25,2,11,3.18,13.46h5.51s-10.58-42,9.57-75.54C170.49,348.6,168,349.3,166.41,351.24Z"/><ellipse class="cls-3" cx="161.54" cy="426.4" rx="5.9" ry="5.92"/><path class="cls-2" d="M88.07,354.08s-11.63,36.71.89,67.75l6.41-2.49s-12.52-29.5-1.49-61.24Z"/><path class="cls-4" d="M111.42,250a140.3,140.3,0,0,1-42,21.41c-20.51,6.25-32.2,32.23-21.34,52.93A36.33,36.33,0,0,0,61,338c13.57,8.56,57,36.66,68.87,52.44,0,0,17.43-38.44,46.49-41.8s70-8.49,85.82-19.89,28.39-12.29,46.05,8.05c0,0,24.8-13,0-56.1-22.9-39.82-41-45.55-75.34-53.75q-7.45-1.78-15-3.18c-8.26-1.54-22.76-4.69-29.2-8.73C188.7,215,155.63,246,111.42,250Z"/><path class="cls-5" d="M108.86,309.06S120.4,342.61,129.64,352l27.11-35.9s-12.35,9.66-26.37,6.24S118.33,321.7,108.86,309.06Z"/><path class="cls-6" d="M113.84,248.89s8.38,26.82-2.2,42.2c0,0-10.72,10.84,5.82,18s34.86,5.37,49.5-6.7c0,0,27.37-25.46,33.17-32.4,0,0-10.3-6.19-10-42.1L189,197.57S143.64,250.38,113.84,248.89Z"/><path class="cls-7" d="M44.56,113.59s-16.84,3.17-12.82-33.82S74.88,16.18,74.88,16.18s59.66-39.59,94,5.09a3,3,0,0,0,3.67.87c6.52-3.21,26.86-10,46.13,17.29C242.06,72.5,230.88,116,230.88,116l-3.42,13.48-9.86,26.67s-7.22,24.69-28.59,41.44c0,0,13.94-22.44,12.45-29s11.92-7,14.45-14.9,17.73-26.07,3-34.27c0,0-13.43,4.89-34.14,40.2,0,0-.28-4.2-3.41-17.95S169,103.94,159.14,98.78s-14.6-25-14.6-25-28.76,36.65-97.75,40.53Z"/><path class="cls-8" d="M44.56,113.59c82.39-10.28,100.57-44.1,100.57-44.1,3.88,15.05,37.59,42.29,39.49,83.62.08,1.72,6-5.65,10.25-13.44a73.65,73.65,0,0,0,5.4-13A18.33,18.33,0,0,1,214,117.05c6.63-.82,10.34,2.53,12.4,6.13A16.78,16.78,0,0,1,228,135.27a51,51,0,0,1-24.94,32.86s-14,53.1-68.06,76.49c-29.4,12.73-40.81-1.93-46.83-6C27.77,194.52,62.94,142,44.56,113.59Z"/><path class="cls-6" d="M201.42,153.92a5.23,5.23,0,0,0,3.86,1.71,6.91,6.91,0,0,0,3.79-1.53,27.14,27.14,0,0,0,5.66-6.52,18.56,18.56,0,0,0,3-7.71,9.78,9.78,0,0,0-1.68-7.31,5.19,5.19,0,0,0-6-2.14c-2.13.68-3.77,3.29-5.05,5.75a17.21,17.21,0,0,0-1.76,8.21c.08,1.33.46,2.89,1.54,3.24s2.57-.82,3.62-1.81c-.82,1.19-1.76,2.8-3.78,2.75A3,3,0,0,1,202.5,147a7.79,7.79,0,0,1-.93-2.34,17.51,17.51,0,0,1,.92-9.56,18.52,18.52,0,0,1,2.27-4.34,9.71,9.71,0,0,1,4.1-3.48,7.79,7.79,0,0,1,5.66-.14,9.51,9.51,0,0,1,4.41,3.27,13,13,0,0,1,2.17,10,20,20,0,0,1-4.11,8.82,25,25,0,0,1-7,6.39,8.18,8.18,0,0,1-4.78,1A5.15,5.15,0,0,1,201.42,153.92Z"/><path class="cls-6" d="M202,143.09a7,7,0,0,1,.88-3.2A3.57,3.57,0,0,1,206.2,138c2.84,0,5,2.93,4.72,5.58a9.6,9.6,0,0,1-3.19,6.25c-1.62,1.51-3.91,2.81-6.15,2.33,2-.65,3.33-2.3,4.53-3.78a10.43,10.43,0,0,0,2.17-4.95,3.24,3.24,0,0,0-2.27-3.49C204.59,139.42,203,141.23,202,143.09Z"/><path class="cls-8" d="M173.15,234.43a27.66,27.66,0,0,1,1,7.67,37,37,0,0,1-.83,7.7,31.77,31.77,0,0,1-2.6,7.36,20.87,20.87,0,0,1-4.72,6.18c.92-2.44,1.83-4.71,2.54-7.08s1.33-4.7,1.85-7.1,1-4.81,1.42-7.26S172.64,237,173.15,234.43Z"/><path class="cls-9" d="M108.28,299.7s-4,18.17,17.33,22.94a50.61,50.61,0,0,0,10.12,1.28,31.14,31.14,0,0,0,25.19-12.27L171,298.59s-17.44,14.33-31.52,13.77S116.27,309.69,108.28,299.7Z"/><path class="cls-1" d="M129.64,352c5.17-9.5,11.58-18.25,18.17-26.78,3.28-4.29,6.76-8.41,10.2-12.57s7.06-8.16,10.67-12.16,7.34-7.9,11-11.81c1.86-1.95,3.78-3.84,5.67-5.76s3.8-3.82,5.73-5.71q5.81-5.61,11.73-11.11c4-3.6,8-7.2,12.15-10.67-3.5,4.11-7.13,8.08-10.75,12.06s-7.22,8-10.89,11.9c-7.22,8-14.56,15.8-21.72,23.79-1.81,2-3.65,3.94-5.42,5.95s-3.56,4-5.37,6c-3.58,4-7.11,8-10.65,12.07C143.2,335.31,136.18,343.43,129.64,352Z"/><path class="cls-1" d="M181.6,290a82,82,0,0,1,13.11-8.55,86.06,86.06,0,0,1,14.53-6.12,61.68,61.68,0,0,1,15.66-2.94c.67,0,1.33-.11,2-.11l2,.06c1.34,0,2.74.07,3.94.15a36.73,36.73,0,0,0,7.36-.3,19.86,19.86,0,0,0,6.71-2.09,12.62,12.62,0,0,0,4.83-4.56,7.81,7.81,0,0,0,.82-6.1,8.25,8.25,0,0,0-1.4-2.87,8.92,8.92,0,0,0-1.1-1.22c-.45-.41-.91-.81-1.4-1.19a35.46,35.46,0,0,0-13.45-6.35,64.3,64.3,0,0,0-15.3-1.77,51.88,51.88,0,0,1,15.69-.16,35.29,35.29,0,0,1,14.93,5.78c.56.39,1.11.81,1.64,1.24a12.53,12.53,0,0,1,1.61,1.57,11.71,11.71,0,0,1,2.15,4,11.52,11.52,0,0,1-.9,8.95,16,16,0,0,1-6.22,6.11,23.45,23.45,0,0,1-8,2.62,39.91,39.91,0,0,1-8.16.24c-1.39-.1-2.59-.13-3.84-.19l-1.87-.08c-.63,0-1.25,0-1.88.05a63.57,63.57,0,0,0-7.52.64l-3.73.68c-1.25.24-2.48.56-3.72.84a106.17,106.17,0,0,0-14.54,4.89A125.32,125.32,0,0,0,181.6,290Z"/><path class="cls-1" d="M153.18,343.2a17.85,17.85,0,0,1,3.27-7.81,37.07,37.07,0,0,1,5.71-6.42,68.65,68.65,0,0,1,14.24-9.53c5.06-2.61,10.52-4.61,15.62-6.66s10.22-4.34,15.18-6.91,10.2-4.9,15.46-7.05c2.64-1.06,5.31-2.06,8-2.94,1.36-.44,2.75-.85,4.16-1.2s2.73-.61,4.07-.94a59.23,59.23,0,0,0,7.74-2.71,60.88,60.88,0,0,0,7.39-3.73,59.09,59.09,0,0,0,6.9-4.65,31.15,31.15,0,0,0,5.91-5.9,27.43,27.43,0,0,1-5.18,6.73,55.46,55.46,0,0,1-6.56,5.47,57.79,57.79,0,0,1-15.32,7.79c-2.86.87-5.38,1.48-8,2.46s-5.15,2-7.7,3.11c-5.1,2.21-10.14,4.62-15.13,7.14a162.75,162.75,0,0,1-15.6,6.85c-5.4,1.93-10.54,3.73-15.65,5.94a77.39,77.39,0,0,0-14.33,8.23,37.92,37.92,0,0,0-6.08,5.59A18.72,18.72,0,0,0,153.18,343.2Z"/><path class="cls-1" d="M205.93,330.53a42,42,0,0,1,10.59-5.88,57.67,57.67,0,0,1,11.8-3.2,60,60,0,0,1,12.27-.76l2.95.09a13.43,13.43,0,0,0,1.42,0c.46,0,.94,0,1.4-.06a28.76,28.76,0,0,0,5.54-.93,30.93,30.93,0,0,0,10.17-4.72,35.93,35.93,0,0,0,4.41-3.6,45.93,45.93,0,0,0,3.86-4.25,45.39,45.39,0,0,0,9.19-21.37,38.92,38.92,0,0,1-15.25,32.29,32,32,0,0,1-5.41,3.29,31.51,31.51,0,0,1-6,2.23,33.44,33.44,0,0,1-6.29,1c-.53.05-1.06,0-1.59,0s-1.06,0-1.59,0l-1.58-.09-1.46-.09a72.54,72.54,0,0,0-23.26,2.05A57,57,0,0,0,205.93,330.53Z"/><path class="cls-1" d="M111.61,263.34A143,143,0,0,0,98.2,280.55,76,76,0,0,0,93,289.91c-.33.82-.74,1.6-1.06,2.42L91,294.8a16.37,16.37,0,0,0-.81,4.8,30.32,30.32,0,0,0,1.72,10.09,72.52,72.52,0,0,0,4.13,9.86,174.86,174.86,0,0,0,11.23,18.74,82.16,82.16,0,0,1-14-17.23,58.79,58.79,0,0,1-5-10.13,32.59,32.59,0,0,1-2.13-11.44,20.51,20.51,0,0,1,1.11-6l1.06-2.67c.36-.88.8-1.72,1.22-2.57a62.61,62.61,0,0,1,6-9.52,78.37,78.37,0,0,1,7.43-8.32A68.6,68.6,0,0,1,111.61,263.34Z"/><path class="cls-1" d="M81.36,281.52a29.77,29.77,0,0,0-8.26,16.23,39.84,39.84,0,0,0,1.78,17.9,62.89,62.89,0,0,0,7.82,16.62,36.31,36.31,0,0,0,13.78,12.25c-6.33-1.27-12.11-5.26-16.26-10.36a45.74,45.74,0,0,1-5.44-8.22,60.23,60.23,0,0,1-3.72-9.11,36.5,36.5,0,0,1-1-19.72C71.74,290.64,75.74,284.72,81.36,281.52Z"/><path class="cls-1" d="M129.64,352a82.81,82.81,0,0,1-10-12.86A98.92,98.92,0,0,1,112,324.73,71.39,71.39,0,0,1,107.16,309a37.45,37.45,0,0,1,.35-16.36,63.66,63.66,0,0,0,2.71,15.65,130.71,130.71,0,0,0,5.43,14.85c2.07,4.86,4.36,9.66,6.72,14.44S127.2,347.14,129.64,352Z"/><path class="cls-1" d="M129.86,390.44a44,44,0,0,1-2.54-9.48,65.83,65.83,0,0,1-.83-9.72,60,60,0,0,1,.63-9.74,40,40,0,0,1,2.52-9.5c.39,3.3.47,6.48.62,9.67s.18,6.35.22,9.53,0,6.34,0,9.54S130.24,387.15,129.86,390.44Z"/><ellipse class="cls-3" cx="93.72" cy="423.96" rx="5.9" ry="5.92"/><path class="cls-6" d="M91.83,174.85c1.12,1,2.06,2,3,2.93s1.75,1.92,2.63,2.79a26.16,26.16,0,0,0,2.71,2.47,15.44,15.44,0,0,0,3.42,1.94,6,6,0,0,1-4.49.16,9.71,9.71,0,0,1-3.78-2.47,12.28,12.28,0,0,1-2.46-3.59A10.31,10.31,0,0,1,91.83,174.85Z"/><path class="cls-10" d="M125.81,115.28c2.51.45,4.85.83,7.18,1.15s4.61.61,6.91.76,4.61.32,7,.32c1.19.08,2.36,0,3.58.08s2.43,0,3.74.13a20.93,20.93,0,0,1-3.37,1.79,22,22,0,0,1-3.62,1.13,25.53,25.53,0,0,1-15-1.19A17.25,17.25,0,0,1,125.81,115.28Z"/><path class="cls-10" d="M55.34,133.09l11.51-6.52c1.87-1.07,3.76-2.13,5.71-3.17,1-.51,1.94-1.06,3-1.53a30.06,30.06,0,0,1,3.19-1.4,23,23,0,0,1-2,2.93,28.49,28.49,0,0,1-2.37,2.54,28.79,28.79,0,0,1-5.58,4.11,27.14,27.14,0,0,1-6.46,2.63A16.3,16.3,0,0,1,55.34,133.09Z"/><path class="cls-11" d="M146.11,142.87s20.83,35,14.48,83a108.8,108.8,0,0,1-11.76,10.57c6.94-52.48-16.49-92.36-16.49-92.36Z"/><path class="cls-10" d="M130.83,146.1c-4.31,0-7.41-.16-7.73-.17a2,2,0,0,1-1.89-2.11,2,2,0,0,1,2.11-1.89c.2,0,20,1,30.26-2.19a2,2,0,1,1,1.2,3.82C148,145.68,137.81,146.1,130.83,146.1Z"/><path class="cls-11" d="M57.81,202.68c-2.7-43,7.37-53.16,7.37-53.16l11.29-3.22s-13.74,12.84-8,74.16A76.36,76.36,0,0,1,57.81,202.68Z"/><path class="cls-10" d="M55.34,151.52a2,2,0,0,1,0-4c.14,0,14.2-.27,22.57-4.21a2,2,0,0,1,1.7,3.62c-9.15,4.3-23.6,4.58-24.21,4.59Z"/><path class="cls-12" d="M135.46,204.62c-2.39-5.42-8-6.91-11.31-7.31a7.28,7.28,0,0,1-4.13-1.83c-5.51-5.07-14.28-.32-18.87,2.82a8,8,0,0,1-6.35,1.17c-4.41-1-11.7-1.09-12.25,9.67-.31,6,2.13,9.63,4.9,11.77.23-.3,17.31-22,39.78,0a13.43,13.43,0,0,0,5.2-3.11A11.71,11.71,0,0,0,135.46,204.62Z"/><path class="cls-13" d="M87.45,220.91a16,16,0,0,0,5.58,2.7,7.5,7.5,0,0,1,2.74,1.86c3.75,3.13,11.57,2.95,15.73-.84a15.41,15.41,0,0,1,7-3.4,14.08,14.08,0,0,1,4.25,0,10.33,10.33,0,0,0,4.45-.36C104.76,198.91,87.68,220.61,87.45,220.91Z"/></g></g></svg>