<svg id="Layer_3" data-name="Layer 3" xmlns="http://www.w3.org/2000/svg" viewBox="0 0 32 32"><defs><style>.cls-1{fill:#747987;}</style></defs><title>Barter</title><path class="cls-1" d="M27.67,13a1,1,0,0,0,1-1V4.38a1,1,0,0,0-1-1H20.06a1,1,0,0,0-1,1V12a1,1,0,0,0,1,1Zm-6.61-7.6h5.61V11H21.06Z"/><path class="cls-1" d="M8.37,28.79A5.09,5.09,0,1,0,3.28,23.7,5.1,5.1,0,0,0,8.37,28.79Zm0-8.18A3.09,3.09,0,1,1,5.28,23.7,3.09,3.09,0,0,1,8.37,20.61Z"/><path class="cls-1" d="M24.85,7h-2a1,1,0,0,0,0,2h2a1,1,0,1,0,0-2Z"/><path class="cls-1" d="M7.09,24.7H9.66a1,1,0,0,0,0-2H7.09a1,1,0,0,0,0,2Z"/><path class="cls-1" d="M16,23.38a1,1,0,1,0,0,2h2.92A7.07,7.07,0,0,0,26,18.63l.3.34a1,1,0,0,0,.75.34,1,1,0,0,0,.66-.25,1,1,0,0,0,.09-1.41l-2-2.31A1,1,0,0,0,25,15a1,1,0,0,0-.75.32l-2.11,2.31A1,1,0,0,0,23.62,19L24,18.6a5.07,5.07,0,0,1-5,4.78Z"/><path class="cls-1" d="M16,6.62H13.08A7.07,7.07,0,0,0,6,13.37L5.72,13a1,1,0,1,0-1.5,1.32l2,2.31A1,1,0,0,0,7,17H7a1,1,0,0,0,.74-.32l2.11-2.31A1,1,0,1,0,8.38,13L8,13.4a5.07,5.07,0,0,1,5.05-4.78H16a1,1,0,0,0,0-2Z"/></svg>