<svg id="Layer_3" data-name="Layer 3" xmlns="http://www.w3.org/2000/svg" viewBox="0 0 32 32"><defs><style>.cls-1{fill:#747987;}</style></defs><title>Coupon</title><path class="cls-1" d="M26.93,7.69H21.54a1,1,0,0,0-.59.19l-1.34,1-1.4-1a1,1,0,0,0-.58-.18H5.07A1.74,1.74,0,0,0,3.33,9.42v3.86a1,1,0,0,0,1,1h.44a1.72,1.72,0,1,1,0,3.44H4.33a1,1,0,0,0-1,1v3.86a1.74,1.74,0,0,0,1.74,1.73H17.65a1,1,0,0,0,.66-.25l1.31-1.15L21,24.07a1,1,0,0,0,.65.24h5.3a1.74,1.74,0,0,0,1.74-1.73V18.72a1,1,0,0,0-1-1h-.44a1.72,1.72,0,1,1,0-3.44h.44a1,1,0,0,0,1-1V9.42A1.74,1.74,0,0,0,26.93,7.69Zm-.26,4.63a3.72,3.72,0,0,0,0,7.36v2.63H22l-1.39-1.19v-.63a1,1,0,1,0-2,0v.64l-1.34,1.18H5.33V19.68a3.72,3.72,0,0,0,0-7.36V9.69h12l1.3.92v.67a1,1,0,1,0,2,0V10.6l1.26-.91h4.8Z"/><path class="cls-1" d="M19.61,13.73a1,1,0,0,0-1,1V17a1,1,0,0,0,2,0v-2.3A1,1,0,0,0,19.61,13.73Z"/></svg>