<svg id="Layer_3" data-name="Layer 3" xmlns="http://www.w3.org/2000/svg" viewBox="0 0 32 32"><defs><style>.cls-1{fill:#747987;}</style></defs><title>Delivery2</title><path class="cls-1" d="M4.31,24.6h.81a3.13,3.13,0,0,0,6.21,0h.81a1,1,0,0,0,1-1v-.25h7a3.49,3.49,0,0,0-.1.79,3.22,3.22,0,1,0,6.44,0,3,3,0,0,0-.11-.79h1.32a1,1,0,0,0,.73-.32,1,1,0,0,0,.26-.75c-.17-2.54-1.47-6.94-5-8.42h3.17a1,1,0,0,0,1-1,.93.93,0,0,0,0-.23,1,1,0,0,0,.86-1v-6a1,1,0,0,0-1-1H21a1,1,0,0,0-1,1v6a1.18,1.18,0,0,0,0,.2H17a1,1,0,0,0-1,1,1,1,0,0,0,.35.75,1,1,0,0,0-.35.74v2.9a.09.09,0,0,1-.1.1H14.07c-1.83-1.32-3.38-2.72-4-5.41h2.73a1,1,0,0,0,0-2H10.53v-2a1,1,0,0,0-1-1H8A2.52,2.52,0,0,0,5.5,9.43a2.49,2.49,0,0,0,1.34,2.2A13.2,13.2,0,0,0,6,18.13a4.91,4.91,0,0,0-2.68,4.35V23.6A1,1,0,0,0,4.31,24.6Zm3.91.76a1.13,1.13,0,0,1-1.06-.76H9.29A1.14,1.14,0,0,1,8.22,25.36Zm16.26-1.22a1.22,1.22,0,1,1-2.44,0,1.18,1.18,0,0,1,.29-.79h1.85A1.19,1.19,0,0,1,24.48,24.14ZM22,6.64h1.35v.57a1,1,0,1,0,2,0V6.64h1.36v4H22ZM8,8.92h.51v1H8a.51.51,0,1,1,0-1Zm.36,4.31c.89,2.95,2.84,4.55,4.8,5.94a1,1,0,0,0,.57.18h2.17a2.1,2.1,0,0,0,2.1-2.1v-1.9h3.1c3.84,0,5.06,4,5.42,6H13a4.91,4.91,0,0,0-4.77-3.78l-.27,0A11.42,11.42,0,0,1,8.38,13.23ZM5.31,22.48a2.92,2.92,0,0,1,5.83,0v.12H5.31Z"/></svg>