<svg id="Layer_3" data-name="Layer 3" xmlns="http://www.w3.org/2000/svg" viewBox="0 0 32 32"><defs><style>.cls-1{fill:#747987;}</style></defs><title>Discount</title><path class="cls-1" d="M5,9.52v13a4.58,4.58,0,0,0,4.57,4.57h13a4.58,4.58,0,0,0,4.57-4.57v-13A4.58,4.58,0,0,0,22.48,5h-13A4.58,4.58,0,0,0,5,9.52Zm2,0A2.57,2.57,0,0,1,9.52,7h13a2.57,2.57,0,0,1,2.57,2.57v13a2.57,2.57,0,0,1-2.57,2.57h-13A2.57,2.57,0,0,1,7,22.48Z"/><path class="cls-1" d="M10.7,21.56a1,1,0,0,0,1.41,0l9.74-9.73a1,1,0,0,0-1.42-1.41L10.7,20.15A1,1,0,0,0,10.7,21.56Z"/><path class="cls-1" d="M12.05,14.69a2.64,2.64,0,1,0-2.63-2.64A2.64,2.64,0,0,0,12.05,14.69Zm0-3.27a.64.64,0,1,1-.63.63A.64.64,0,0,1,12.05,11.42Z"/><path class="cls-1" d="M20,17.31A2.64,2.64,0,1,0,22.58,20,2.64,2.64,0,0,0,20,17.31Zm0,3.27a.64.64,0,1,1,.63-.63A.64.64,0,0,1,20,20.58Z"/></svg>