<svg id="Layer_3" data-name="Layer 3" xmlns="http://www.w3.org/2000/svg" viewBox="0 0 32 32"><defs><style>.cls-1{fill:#747987;}</style></defs><title>Favorite1</title><path class="cls-1" d="M15.28,25.52a1,1,0,0,0,.71.29,1,1,0,0,0,.7-.29L24.26,18c3.39-3.39,2.91-7.42.68-9.66-2.08-2.08-5.73-2.64-9,0A6.88,6.88,0,0,0,9.81,6.74a6.14,6.14,0,0,0-4.32,4.32A7.11,7.11,0,0,0,7.71,18ZM7.42,11.58a4.1,4.1,0,0,1,2.9-2.9,4,4,0,0,1,1.08-.15,5.59,5.59,0,0,1,3.88,1.85,1,1,0,0,0,.71.29,1,1,0,0,0,.7-.29c2.58-2.57,5.35-2.15,6.83-.67s1.9,4.25-.67,6.82L16,23.39,9.13,16.53A5.1,5.1,0,0,1,7.42,11.58Z"/></svg>