<svg id="Layer_1" data-name="Layer 1" xmlns="http://www.w3.org/2000/svg" viewBox="0 0 32 32"><defs><style>.cls-1{fill:#747987;}</style></defs><path class="cls-1" d="M20.61,10.38H18.66a1.88,1.88,0,0,1-1.69-1A3.86,3.86,0,0,0,13.5,7.2H11.39A5.4,5.4,0,0,0,6,12.6v6.8a5.4,5.4,0,0,0,5.4,5.4h9.22A5.4,5.4,0,0,0,26,19.4V15.79A5.41,5.41,0,0,0,20.61,10.38Zm3.4,9a3.4,3.4,0,0,1-3.4,3.4H11.39A3.4,3.4,0,0,1,8,19.4V12.6a3.4,3.4,0,0,1,3.4-3.4H13.5a1.85,1.85,0,0,1,1.68,1,3.88,3.88,0,0,0,3.48,2.14h1.95A3.41,3.41,0,0,1,24,15.79Z"/></svg>