<svg id="Layer_3" data-name="Layer 3" xmlns="http://www.w3.org/2000/svg" viewBox="0 0 32 32"><defs><style>.cls-1{fill:#747987;}</style></defs><title>Info</title><path class="cls-1" d="M16,27.08A11.08,11.08,0,1,0,4.92,16,11.09,11.09,0,0,0,16,27.08ZM16,6.92A9.08,9.08,0,1,1,6.92,16,9.1,9.1,0,0,1,16,6.92Z"/><path class="cls-1" d="M16.35,12.4a1.28,1.28,0,1,0-1.28-1.28A1.28,1.28,0,0,0,16.35,12.4Z"/><path class="cls-1" d="M14.25,22.08a1.5,1.5,0,0,0,.88.29,1.42,1.42,0,0,0,.63-.15l.84-.39A1,1,0,0,0,15.92,20l1.39-5.06a.58.58,0,0,0,0-.14,1.48,1.48,0,0,0-.61-1.4,1.5,1.5,0,0,0-1.53-.12l-.94.47a1,1,0,0,0-.44,1.34,1,1,0,0,0,1.24.49l-1.38,5a.59.59,0,0,0,0,.14A1.48,1.48,0,0,0,14.25,22.08Z"/></svg>