<svg id="Layer_3" data-name="Layer 3" xmlns="http://www.w3.org/2000/svg" viewBox="0 0 32 32"><defs><style>.cls-1{fill:#747987;}</style></defs><title>List</title><path class="cls-1" d="M23.1,6.53H18.62a2.86,2.86,0,0,0,.11-.73,2.73,2.73,0,0,0-5.46,0,2.86,2.86,0,0,0,.11.73H8.9A2.83,2.83,0,0,0,6.07,9.36V26.09A2.83,2.83,0,0,0,8.9,28.92H23.1a2.83,2.83,0,0,0,2.83-2.83V9.36A2.83,2.83,0,0,0,23.1,6.53ZM15.27,5.8a.73.73,0,1,1,.73.73A.73.73,0,0,1,15.27,5.8Zm3.41,2.73V9.65H13.32V8.53Zm5.25,17.56a.83.83,0,0,1-.83.83H8.9a.83.83,0,0,1-.83-.83V9.36a.83.83,0,0,1,.83-.83h2.42v2.12a1,1,0,0,0,1,1h7.36a1,1,0,0,0,1-1V8.53H23.1a.83.83,0,0,1,.83.83Z"/><path class="cls-1" d="M21.16,14.72H16.67a1,1,0,1,0,0,2h4.49a1,1,0,1,0,0-2Z"/><path class="cls-1" d="M11,17.5a1,1,0,0,0,.69.33h.06a1,1,0,0,0,.67-.25l2.26-2a1,1,0,0,0,.08-1.41,1,1,0,0,0-1.42-.08l-1.5,1.35-.23-.26a1,1,0,0,0-1.51,1.32Z"/><path class="cls-1" d="M21.16,21.13H16.67a1,1,0,0,0,0,2h4.49a1,1,0,0,0,0-2Z"/><path class="cls-1" d="M13.33,20.14l-1.5,1.35-.23-.26a1,1,0,0,0-1.51,1.32l.9,1a1,1,0,0,0,.69.34h.06a1,1,0,0,0,.67-.26l2.26-2a1,1,0,1,0-1.34-1.49Z"/></svg>