<?xml version="1.0" encoding="UTF-8"?>
<!-- Generator: visioncortex VTracer 0.6.3 -->
<svg version="1.1" xmlns="http://www.w3.org/2000/svg" width="1280" height="1280">
<path d="M0 0 C1.93 -0 3.87 -0.01 5.8 -0.01 C9.8 -0.02 13.8 -0.02 17.8 -0.01 C22.93 -0.01 28.05 -0.03 33.18 -0.05 C37.15 -0.06 41.12 -0.06 45.09 -0.06 C46.98 -0.06 48.87 -0.07 50.77 -0.08 C53.39 -0.09 56.01 -0.08 58.64 -0.07 C59.8 -0.08 59.8 -0.08 60.99 -0.09 C66.2 -0.04 66.2 -0.04 68.73 1.68 C69.71 3.3 69.71 3.3 69.41 5.56 C69.18 6.47 68.95 7.37 68.71 8.3 C67.48 24.77 71.15 42.65 80.71 56.3 C80.71 57.29 80.71 58.28 80.71 59.3 C81.37 59.3 82.03 59.3 82.71 59.3 C84 60.88 84 60.88 85.46 62.99 C87.46 65.78 89.38 68.04 92.08 70.18 C92.95 70.88 93.81 71.58 94.71 72.3 C94.71 72.96 94.71 73.62 94.71 74.3 C95.27 74.58 95.83 74.86 96.41 75.14 C97.96 75.92 99.5 76.72 101.04 77.52 C102.27 78.15 102.27 78.15 103.52 78.8 C104.33 79.22 105.14 79.65 105.98 80.08 C113.09 83.26 119.29 83.59 127 83.56 C128.7 83.57 128.7 83.57 130.43 83.57 C134.22 83.58 138 83.58 141.79 83.58 C144.5 83.58 147.22 83.58 149.93 83.59 C156.54 83.6 163.15 83.61 169.76 83.6 C175.13 83.6 180.5 83.6 185.88 83.61 C186.64 83.61 187.41 83.61 188.19 83.61 C189.75 83.61 191.3 83.61 192.86 83.61 C207.43 83.62 222.01 83.62 236.58 83.62 C249.9 83.61 263.23 83.62 276.55 83.64 C290.24 83.66 303.93 83.67 317.62 83.66 C325.31 83.66 332.99 83.66 340.67 83.68 C347.21 83.69 353.75 83.69 360.29 83.68 C363.63 83.67 366.96 83.67 370.3 83.69 C373.92 83.7 377.54 83.69 381.16 83.68 C382.73 83.69 382.73 83.69 384.33 83.7 C389.94 83.66 394.59 83.03 399.85 81.01 C402.09 80.15 404.34 79.68 406.71 79.3 C406.71 78.64 406.71 77.98 406.71 77.3 C408.22 76.53 408.22 76.53 409.77 75.74 C414.48 73.06 419.25 69.21 421.71 64.3 C422.37 64.3 423.03 64.3 423.71 64.3 C424.02 63.52 424.33 62.73 424.64 61.93 C425.71 59.3 425.71 59.3 426.71 57.3 C427.37 57.3 428.03 57.3 428.71 57.3 C428.83 56.31 428.83 56.31 428.96 55.3 C430.13 50.61 432.5 46.56 434.77 42.32 C435.73 40.24 436.29 38.35 436.77 36.11 C436.93 35.42 437.08 34.72 437.24 34.01 C438.63 25.92 438.79 18.07 438.58 9.88 C438.56 8.67 438.56 8.67 438.55 7.43 C438.53 6.71 438.51 5.99 438.5 5.24 C438.71 3.3 438.71 3.3 440.71 0.3 C443.4 0 445.87 -0.1 448.57 -0.07 C449.38 -0.08 450.2 -0.08 451.04 -0.08 C453.74 -0.09 456.45 -0.08 459.16 -0.06 C461.06 -0.06 462.95 -0.06 464.85 -0.06 C468.84 -0.06 472.83 -0.05 476.82 -0.04 C481.87 -0.01 486.92 -0.01 491.97 -0.02 C495.9 -0.02 499.83 -0.02 503.76 -0.01 C505.62 -0 507.47 -0 509.33 -0 C531.72 -0.01 552 1.31 572.71 10.3 C574.37 10.97 576.04 11.64 577.71 12.3 C577.71 12.96 577.71 13.62 577.71 14.3 C578.25 14.38 578.79 14.46 579.34 14.55 C587.76 17.23 595.49 25.43 600.71 32.3 C601.3 33.07 601.9 33.84 602.51 34.64 C620 58.38 620.88 87.48 620.83 115.81 C620.84 117.51 620.84 119.22 620.84 120.93 C620.84 125.57 620.84 130.22 620.84 134.86 C620.84 139.89 620.84 144.91 620.84 149.94 C620.85 159.76 620.85 169.58 620.84 179.41 C620.84 187.39 620.84 195.37 620.84 203.35 C620.84 205.06 620.84 205.06 620.84 206.8 C620.84 209.11 620.84 211.42 620.84 213.73 C620.85 235.37 620.84 257 620.84 278.64 C620.83 297.21 620.83 315.78 620.84 334.36 C620.84 355.94 620.84 377.52 620.84 399.1 C620.84 401.4 620.84 403.69 620.84 405.99 C620.84 407.12 620.84 408.25 620.84 409.42 C620.84 417.4 620.84 425.38 620.84 433.36 C620.85 443.07 620.85 452.78 620.84 462.49 C620.84 467.44 620.84 472.4 620.84 477.36 C620.84 481.89 620.84 486.42 620.84 490.95 C620.83 492.6 620.84 494.24 620.84 495.88 C620.84 498.11 620.84 500.33 620.83 502.56 C620.83 503.8 620.83 505.04 620.83 506.31 C620.71 509.3 620.71 509.3 619.71 512.3 C614.26 511.82 609.7 510.27 604.59 508.35 C575.81 497.91 539.41 498.01 510.71 508.3 C509.71 508.63 508.72 508.95 507.7 509.29 C492.26 514.51 477.34 521.96 464.5 532.04 C462.71 533.3 462.71 533.3 460.71 533.3 C460.71 533.96 460.71 534.62 460.71 535.3 C459.2 536.82 459.2 536.82 457.14 538.55 C456.04 539.49 456.04 539.49 454.92 540.45 C453.59 541.56 452.25 542.66 450.9 543.74 C446.35 547.43 442.92 551.64 439.41 556.32 C438.85 556.98 438.28 557.63 437.71 558.3 C437.05 558.3 436.39 558.3 435.71 558.3 C435.4 559.08 435.09 559.87 434.77 560.68 C433.71 563.3 433.71 563.3 432.71 565.3 C432.05 565.3 431.39 565.3 430.71 565.3 C430.43 565.86 430.16 566.42 429.88 567 C428.65 569.42 427.34 571.8 426.02 574.18 C420.69 583.94 415.47 593.81 411.71 604.3 C411.37 605.23 411.37 605.23 411.03 606.19 C400.65 635.95 400.49 669.26 409.71 699.3 C410.02 700.38 410.33 701.46 410.64 702.57 C412.23 707.97 413.84 713.13 416.52 718.08 C417.81 720.49 418.99 722.93 420.18 725.39 C422.96 731.09 425.93 736.47 429.64 741.63 C430.71 743.3 430.71 743.3 430.71 745.3 C431.37 745.3 432.03 745.3 432.71 745.3 C435.71 749.69 435.71 749.69 435.71 752.3 C436.37 752.3 437.03 752.3 437.71 752.3 C437.38 753.62 437.05 754.94 436.71 756.3 C377.75 756.32 318.79 756.34 259.83 756.35 C252.88 756.35 245.92 756.35 238.96 756.36 C238.27 756.36 237.57 756.36 236.86 756.36 C214.42 756.36 191.98 756.37 169.54 756.38 C145.82 756.39 122.1 756.39 98.39 756.39 C84.18 756.4 69.97 756.4 55.76 756.41 C46.02 756.41 36.28 756.42 26.55 756.41 C20.92 756.41 15.3 756.41 9.68 756.42 C4.54 756.42 -0.61 756.43 -5.76 756.42 C-7.62 756.42 -9.48 756.42 -11.34 756.43 C-13.87 756.43 -16.41 756.43 -18.94 756.42 C-20.02 756.43 -20.02 756.43 -21.12 756.43 C-34.12 756.39 -34.12 756.39 -38.29 754.3 C-39.62 754.17 -40.96 754.07 -42.29 753.99 C-46.9 753.52 -50.68 752.15 -54.9 750.32 C-57.49 749.17 -57.49 749.17 -61.11 748.11 C-76.4 742.4 -88.81 728.66 -95.92 714.36 C-100.83 702.76 -103.45 690.72 -104.42 678.19 C-104.5 677.15 -104.59 676.11 -104.67 675.04 C-105.52 663.61 -105.57 652.2 -105.55 640.75 C-105.55 638.37 -105.55 636 -105.56 633.62 C-105.56 627.84 -105.56 622.05 -105.56 616.27 C-105.55 609.33 -105.56 602.39 -105.56 595.45 C-105.57 581.85 -105.57 568.25 -105.56 554.65 C-105.56 542.75 -105.56 530.85 -105.56 518.95 C-105.56 518.16 -105.56 517.37 -105.56 516.55 C-105.56 513.34 -105.56 510.12 -105.56 506.91 C-105.57 476.79 -105.56 446.68 -105.55 416.57 C-105.54 389.86 -105.54 363.16 -105.55 336.46 C-105.56 306.4 -105.57 276.34 -105.56 246.28 C-105.56 243.07 -105.56 239.86 -105.56 236.65 C-105.56 235.86 -105.56 235.07 -105.56 234.25 C-105.56 222.37 -105.56 210.48 -105.57 198.59 C-105.57 185.06 -105.57 171.54 -105.56 158.01 C-105.55 151.12 -105.55 144.22 -105.56 137.33 C-105.56 131 -105.56 124.68 -105.55 118.35 C-105.55 116.08 -105.55 113.81 -105.55 111.54 C-105.64 70.4 -105.64 70.4 -100.29 54.3 C-99.96 53.19 -99.62 52.08 -99.27 50.94 C-95.83 40.37 -90.69 30.68 -83.29 22.3 C-82.63 22.3 -81.97 22.3 -81.29 22.3 C-81.29 21.64 -81.29 20.98 -81.29 20.3 C-68.22 8.15 -50.43 2.7 -33.06 1.19 C-32.11 1.11 -31.15 1.03 -30.17 0.94 C-20.11 0.11 -10.09 -0.01 0 0 Z M59.29 225.86 C54.47 231.96 53.4 238.21 53.89 245.86 C55.01 254.86 57.93 261.09 64.71 267.3 C68.19 269.51 71.08 269.55 75.16 269.56 C75.8 269.57 76.45 269.57 77.12 269.58 C79.3 269.59 81.49 269.58 83.67 269.58 C85.24 269.59 86.82 269.59 88.4 269.6 C92.74 269.62 97.08 269.62 101.42 269.62 C106.1 269.62 110.78 269.64 115.45 269.65 C125.69 269.68 135.92 269.69 146.16 269.7 C152.54 269.71 158.93 269.72 165.32 269.72 C183.01 269.75 200.69 269.77 218.38 269.78 C219.51 269.78 220.64 269.78 221.81 269.78 C222.95 269.78 224.08 269.78 225.25 269.78 C227.55 269.78 229.85 269.78 232.15 269.78 C233.86 269.78 233.86 269.78 235.61 269.78 C254.09 269.79 272.58 269.83 291.06 269.87 C310.03 269.92 329.01 269.94 347.98 269.95 C358.64 269.95 369.29 269.96 379.95 270 C389.02 270.03 398.09 270.04 407.17 270.02 C411.8 270.01 416.42 270.01 421.05 270.04 C425.29 270.07 429.53 270.07 433.77 270.04 C435.3 270.04 436.84 270.04 438.37 270.06 C447.32 270.16 453.83 269.52 460.71 263.3 C461.54 262.56 462.37 261.82 463.23 261.06 C468.53 255.13 471.87 249.88 471.58 241.74 C469.55 233.75 466.72 227.21 460.71 221.3 C458.59 220.5 458.59 220.5 456.71 220.3 C456.71 219.64 456.71 218.98 456.71 218.3 C451.97 216.79 448.01 216.05 442.99 216.05 C441.67 216.04 440.35 216.03 439 216.03 C437.54 216.03 436.09 216.04 434.64 216.04 C433.09 216.04 431.53 216.03 429.98 216.03 C425.72 216.02 421.47 216.02 417.21 216.02 C412.61 216.03 408.02 216.02 403.43 216.01 C394.43 216 385.43 216 376.43 216 C369.12 216 361.81 216 354.5 215.99 C353.45 215.99 352.41 215.99 351.34 215.99 C349.23 215.99 347.11 215.99 345 215.99 C325.18 215.98 305.35 215.98 285.53 215.99 C267.39 215.99 249.25 215.98 231.11 215.96 C212.49 215.94 193.86 215.93 175.24 215.94 C164.78 215.94 154.32 215.94 143.87 215.92 C134.97 215.91 126.07 215.91 117.17 215.92 C112.62 215.93 108.08 215.93 103.54 215.92 C99.38 215.91 95.23 215.91 91.07 215.92 C89.56 215.93 88.06 215.92 86.56 215.91 C74.85 215.86 67.51 216.79 59.29 225.86 Z M51.71 386.3 C47.22 391.8 47.04 396.77 47.26 403.79 C48.4 412.75 53.7 419.74 60.23 425.68 C66.86 430.62 74.25 430 82.13 429.93 C83.71 429.93 85.29 429.94 86.87 429.95 C91.19 429.97 95.52 429.96 99.84 429.94 C104.51 429.93 109.18 429.94 113.85 429.95 C122.99 429.97 132.14 429.96 141.28 429.95 C148.71 429.93 156.14 429.93 163.57 429.93 C165.15 429.93 165.15 429.93 166.77 429.93 C168.92 429.93 171.07 429.93 173.21 429.94 C192.21 429.94 211.2 429.93 230.19 429.9 C248.62 429.87 267.05 429.86 285.49 429.88 C305.56 429.89 325.63 429.9 345.7 429.88 C347.84 429.88 349.98 429.88 352.12 429.87 C353.17 429.87 354.22 429.87 355.31 429.87 C362.73 429.87 370.15 429.87 377.57 429.88 C386.61 429.88 395.66 429.88 404.7 429.85 C409.31 429.84 413.93 429.83 418.54 429.84 C422.76 429.85 426.99 429.85 431.21 429.82 C432.74 429.82 434.27 429.82 435.8 429.83 C437.87 429.84 439.95 429.83 442.03 429.81 C443.76 429.81 443.76 429.81 445.52 429.8 C451.21 428.91 455.08 425.47 458.54 420.98 C463.55 413.75 465.81 406 464.35 397.12 C463.88 395.49 463.3 393.89 462.71 392.3 C462.37 390.97 462.03 389.64 461.71 388.3 C461.05 388.3 460.39 388.3 459.71 388.3 C459.44 387.71 459.18 387.11 458.91 386.5 C457.66 384.21 456.47 382.88 454.52 381.18 C453.69 380.43 453.69 380.43 452.85 379.67 C447.99 376.57 442.64 376.05 437 376.05 C435.68 376.04 434.36 376.03 433 376.03 C431.55 376.03 430.1 376.04 428.64 376.04 C427.09 376.04 425.54 376.03 423.99 376.03 C419.74 376.02 415.48 376.02 411.22 376.02 C406.63 376.03 402.04 376.02 397.45 376.01 C388.45 376 379.46 376 370.46 376 C363.15 376 355.84 376 348.53 375.99 C347.49 375.99 346.45 375.99 345.38 375.99 C343.27 375.99 341.16 375.99 339.04 375.99 C319.22 375.98 299.4 375.98 279.58 375.99 C261.45 375.99 243.32 375.98 225.19 375.96 C206.57 375.94 187.95 375.93 169.33 375.94 C158.88 375.94 148.43 375.94 137.97 375.92 C129.07 375.91 120.18 375.91 111.28 375.92 C106.74 375.93 102.2 375.93 97.66 375.92 C93.5 375.91 89.35 375.91 85.19 375.92 C83.69 375.93 82.18 375.92 80.68 375.91 C68.56 375.85 60.33 377.21 51.71 386.3 Z M67.71 533.3 C67.71 533.96 67.71 534.62 67.71 535.3 C66.62 535.61 66.62 535.61 65.52 535.93 C60.42 538.42 57.3 543.02 55.27 548.26 C52.98 556.52 52.91 565.02 56.97 572.68 C59.96 577.43 63 581.22 67.71 584.3 C72.48 585.21 77.1 585.43 81.96 585.43 C82.65 585.44 83.35 585.44 84.06 585.44 C86.37 585.45 88.68 585.45 91 585.45 C92.66 585.45 94.33 585.45 95.99 585.46 C100.5 585.47 105.01 585.47 109.51 585.47 C112.33 585.47 115.15 585.47 117.97 585.47 C127.81 585.48 137.64 585.49 147.48 585.49 C156.65 585.49 165.81 585.5 174.97 585.51 C182.85 585.52 190.72 585.53 198.6 585.53 C203.3 585.53 208 585.53 212.7 585.54 C217.12 585.55 221.54 585.55 225.96 585.55 C227.57 585.54 229.19 585.55 230.81 585.55 C233.03 585.56 235.24 585.56 237.46 585.55 C238.7 585.55 239.93 585.55 241.21 585.55 C247.86 585.08 254.17 582.99 259.71 579.3 C259.71 578.64 259.71 577.98 259.71 577.3 C260.37 577.3 261.03 577.3 261.71 577.3 C261.71 576.64 261.71 575.98 261.71 575.3 C262.37 575.3 263.03 575.3 263.71 575.3 C265.04 573.62 265.04 573.62 266.27 571.49 C266.7 570.78 267.14 570.07 267.59 569.34 C270.77 563.54 270.55 556.31 269.21 549.95 C267.6 545.25 265.16 541.84 261.71 538.3 C261.05 538.3 260.39 538.3 259.71 538.3 C259.71 537.64 259.71 536.98 259.71 536.3 C253.83 532.03 247.51 531.05 240.39 531.05 C239.69 531.04 238.98 531.04 238.26 531.04 C235.92 531.03 233.59 531.04 231.25 531.04 C229.57 531.04 227.89 531.04 226.2 531.03 C221.64 531.02 217.09 531.03 212.53 531.03 C207.75 531.04 202.98 531.03 198.2 531.03 C190.18 531.03 182.15 531.03 174.13 531.04 C164.87 531.05 155.6 531.05 146.34 531.04 C138.38 531.03 130.41 531.03 122.45 531.03 C117.7 531.03 112.94 531.03 108.19 531.03 C103.72 531.02 99.25 531.03 94.78 531.04 C93.15 531.04 91.51 531.04 89.88 531.04 C87.63 531.03 85.39 531.04 83.15 531.05 C81.9 531.05 80.65 531.05 79.36 531.05 C75.23 531.33 71.68 532.19 67.71 533.3 Z " fill="#000000" transform="translate(345.29296875,269.69921875)"/>
<path d="M0 0 C2.57 0.02 5.13 0 7.7 -0.02 C17.22 -0.03 25.88 0.66 35.07 3.39 C35.79 3.59 36.51 3.79 37.25 3.99 C59.41 10.34 82.44 24.18 97.07 42.39 C98.28 45.12 98.28 45.12 99.07 47.39 C99.73 47.39 100.39 47.39 101.07 47.39 C102.91 49.88 104.6 52.35 106.26 54.95 C106.75 55.72 107.24 56.48 107.75 57.27 C126.09 86.4 131.22 119.87 124.07 153.39 C122.64 159.35 120.57 164.8 118.07 170.39 C117.4 172.08 116.73 173.76 116.07 175.45 C114.58 179.21 112.95 182.81 111.07 186.39 C110.41 186.39 109.75 186.39 109.07 186.39 C108.95 186.97 108.82 187.55 108.7 188.14 C108.06 190.41 107.18 192.32 106.07 194.39 C105.41 194.39 104.75 194.39 104.07 194.39 C103.95 194.99 103.82 195.59 103.7 196.2 C103.07 198.39 103.07 198.39 101.07 201.39 C100.41 201.39 99.75 201.39 99.07 201.39 C98.8 201.97 98.53 202.55 98.26 203.14 C97.04 205.45 95.77 207.41 94.07 209.39 C93.41 209.39 92.75 209.39 92.07 209.39 C91.8 210.03 91.53 210.67 91.26 211.33 C90.07 213.39 90.07 213.39 87.07 214.39 C87.07 215.05 87.07 215.71 87.07 216.39 C81.59 221.39 81.59 221.39 79.07 221.39 C79.07 222.05 79.07 222.71 79.07 223.39 C76.51 225.69 75.59 226.39 72.07 226.39 C72.07 227.05 72.07 227.71 72.07 228.39 C69.17 230.43 67.67 231.39 64.07 231.39 C64.07 232.05 64.07 232.71 64.07 233.39 C54.77 238.03 45.83 242.11 35.73 244.7 C33.12 245.28 33.12 245.28 31.07 246.39 C23.48 247.95 15.8 248.93 8.07 249.39 C7.22 249.45 6.37 249.5 5.49 249.56 C-1.44 249.77 -8.2 248.98 -15.05 248.08 C-15.97 247.96 -16.89 247.84 -17.84 247.72 C-26.71 246.48 -34.75 244.04 -42.93 240.39 C-43.64 240.13 -44.35 239.87 -45.09 239.59 C-52.87 236.71 -59.82 232.61 -66.93 228.39 C-66.93 227.73 -66.93 227.07 -66.93 226.39 C-68 226.02 -68 226.02 -69.1 225.64 C-72.24 224.25 -74.57 222.55 -77.24 220.39 C-78.12 219.69 -79.01 218.99 -79.92 218.27 C-80.91 217.34 -80.91 217.34 -81.93 216.39 C-81.93 215.73 -81.93 215.07 -81.93 214.39 C-82.92 214.06 -83.91 213.73 -84.93 213.39 C-84.93 212.73 -84.93 212.07 -84.93 211.39 C-85.59 211.39 -86.25 211.39 -86.93 211.39 C-92.67 205.97 -97.77 199.07 -101.93 192.39 C-101.93 191.4 -101.93 190.41 -101.93 189.39 C-102.59 189.39 -103.25 189.39 -103.93 189.39 C-105.23 187.02 -106.52 184.64 -107.8 182.27 C-108.35 181.27 -108.35 181.27 -108.91 180.25 C-111 176.37 -112.64 172.63 -113.93 168.39 C-114.4 167.19 -114.88 166 -115.37 164.77 C-123.66 142.61 -123.53 119.25 -118.93 96.39 C-118.76 95.46 -118.6 94.54 -118.43 93.58 C-117.54 88.96 -115.99 84.94 -113.98 80.68 C-112.94 78.41 -112.09 76.12 -111.24 73.77 C-107.12 63.39 -100.72 53.85 -93.56 45.34 C-91.78 43.28 -91.78 43.28 -89.93 40.39 C-89.27 40.39 -88.61 40.39 -87.93 40.39 C-87.68 39.81 -87.43 39.24 -87.18 38.64 C-85.75 36.06 -84.14 34.33 -81.93 32.39 C-81.27 32.39 -80.61 32.39 -79.93 32.39 C-79.93 31.73 -79.93 31.07 -79.93 30.39 C-78.09 28.75 -76.26 27.25 -74.3 25.77 C-73.72 25.32 -73.14 24.88 -72.54 24.42 C-59.88 14.99 -45.21 7.42 -29.93 3.39 C-28.67 3.02 -28.67 3.02 -27.38 2.64 C-18.2 0.19 -9.45 -0.07 0 0 Z M64.2 76.95 C61.85 79.1 61.85 79.1 62.07 81.39 C61.08 81.72 60.09 82.05 59.07 82.39 C59.07 83.05 59.07 83.71 59.07 84.39 C58.41 84.39 57.75 84.39 57.07 84.39 C57.07 85.05 57.07 85.71 57.07 86.39 C56.08 86.72 55.09 87.05 54.07 87.39 C54.07 88.05 54.07 88.71 54.07 89.39 C53.41 89.39 52.75 89.39 52.07 89.39 C52.07 90.05 52.07 90.71 52.07 91.39 C51.08 91.72 50.09 92.05 49.07 92.39 C49.07 93.05 49.07 93.71 49.07 94.39 C48.5 94.64 47.93 94.88 47.34 95.13 C44.67 96.61 42.9 98.35 40.77 100.53 C39.96 101.36 39.14 102.18 38.31 103.03 C37.05 104.32 37.05 104.32 35.76 105.64 C30.82 110.68 25.93 115.63 20.51 120.14 C18.64 121.76 17.07 123.54 15.51 125.45 C13.36 127.99 11.24 130.2 8.63 132.27 C7.79 132.97 6.94 133.67 6.07 134.39 C6.07 135.05 6.07 135.71 6.07 136.39 C5.41 136.39 4.75 136.39 4.07 136.39 C4.07 137.05 4.07 137.71 4.07 138.39 C2.59 138.89 2.59 138.89 1.07 139.39 C1.07 140.05 1.07 140.71 1.07 141.39 C0.41 141.39 -0.25 141.39 -0.93 141.39 C-0.93 142.05 -0.93 142.71 -0.93 143.39 C-2.41 143.89 -2.41 143.89 -3.93 144.39 C-3.93 145.05 -3.93 145.71 -3.93 146.39 C-4.59 146.39 -5.25 146.39 -5.93 146.39 C-5.93 147.05 -5.93 147.71 -5.93 148.39 C-7.41 148.89 -7.41 148.89 -8.93 149.39 C-8.93 150.05 -8.93 150.71 -8.93 151.39 C-9.55 151.68 -10.17 151.97 -10.8 152.27 C-13.06 153.33 -13.06 153.33 -14.93 155.39 C-17.55 156.02 -17.55 156.02 -19.93 156.39 C-19.93 155.73 -19.93 155.07 -19.93 154.39 C-20.59 154.39 -21.25 154.39 -21.93 154.39 C-22.26 153.4 -22.59 152.41 -22.93 151.39 C-23.59 151.39 -24.25 151.39 -24.93 151.39 C-24.93 150.73 -24.93 150.07 -24.93 149.39 C-25.59 149.39 -26.25 149.39 -26.93 149.39 C-27.26 148.4 -27.59 147.41 -27.93 146.39 C-28.59 146.39 -29.25 146.39 -29.93 146.39 C-29.93 145.73 -29.93 145.07 -29.93 144.39 C-30.59 144.39 -31.25 144.39 -31.93 144.39 C-32.26 143.4 -32.59 142.41 -32.93 141.39 C-33.59 141.39 -34.25 141.39 -34.93 141.39 C-34.93 140.73 -34.93 140.07 -34.93 139.39 C-35.59 139.39 -36.25 139.39 -36.93 139.39 C-37.26 138.4 -37.59 137.41 -37.93 136.39 C-38.59 136.39 -39.25 136.39 -39.93 136.39 C-39.93 135.73 -39.93 135.07 -39.93 134.39 C-40.59 134.39 -41.25 134.39 -41.93 134.39 C-42.26 133.4 -42.59 132.41 -42.93 131.39 C-43.59 131.39 -44.25 131.39 -44.93 131.39 C-44.93 130.73 -44.93 130.07 -44.93 129.39 C-45.59 129.39 -46.25 129.39 -46.93 129.39 C-47.26 128.4 -47.59 127.41 -47.93 126.39 C-48.59 126.39 -49.25 126.39 -49.93 126.39 C-49.93 125.73 -49.93 125.07 -49.93 124.39 C-50.59 124.39 -51.25 124.39 -51.93 124.39 C-52.26 123.4 -52.59 122.41 -52.93 121.39 C-53.59 121.39 -54.25 121.39 -54.93 121.39 C-54.93 120.73 -54.93 120.07 -54.93 119.39 C-55.59 119.39 -56.25 119.39 -56.93 119.39 C-57.27 118.52 -57.27 118.52 -57.62 117.64 C-59.39 114.6 -60.89 113.2 -63.93 111.39 C-68.48 110.56 -71.83 110.76 -75.87 113.08 C-79.04 116.63 -79.9 118.93 -79.99 123.7 C-77.58 132.06 -69.36 138.04 -63.29 144 C-59.03 148.18 -59.03 148.18 -57.93 150.39 C-57.27 150.39 -56.61 150.39 -55.93 150.39 C-55.93 151.05 -55.93 151.71 -55.93 152.39 C-54.6 154.06 -54.6 154.06 -52.93 155.39 C-52.27 155.39 -51.61 155.39 -50.93 155.39 C-50.93 156.05 -50.93 156.71 -50.93 157.39 C-49.6 159.06 -49.6 159.06 -47.93 160.39 C-47.27 160.39 -46.61 160.39 -45.93 160.39 C-45.93 161.05 -45.93 161.71 -45.93 162.39 C-44.6 164.06 -44.6 164.06 -42.93 165.39 C-42.27 165.39 -41.61 165.39 -40.93 165.39 C-40.93 166.05 -40.93 166.71 -40.93 167.39 C-39.6 169.06 -39.6 169.06 -37.93 170.39 C-37.27 170.39 -36.61 170.39 -35.93 170.39 C-35.93 171.05 -35.93 171.71 -35.93 172.39 C-34.6 174.06 -34.6 174.06 -32.93 175.39 C-32.27 175.39 -31.61 175.39 -30.93 175.39 C-30.93 176.05 -30.93 176.71 -30.93 177.39 C-29.6 179.06 -29.6 179.06 -27.93 180.39 C-27.27 180.39 -26.61 180.39 -25.93 180.39 C-25.93 181.05 -25.93 181.71 -25.93 182.39 C-23.59 185.03 -21.21 185.77 -17.8 186.14 C-11.11 185.93 -7.37 180.87 -2.93 176.39 C-0.75 174.5 1.46 172.65 3.67 170.8 C5.31 169.49 5.31 169.49 5.07 167.39 C5.73 167.39 6.39 167.39 7.07 167.39 C8.74 166.06 8.74 166.06 10.07 164.39 C10.07 163.73 10.07 163.07 10.07 162.39 C11.03 161.99 11.03 161.99 12.01 161.58 C14.4 160.5 14.4 160.5 15.07 157.39 C16.39 156.7 17.73 156.04 19.07 155.39 C20.43 154.19 21.75 152.94 23.03 151.65 C23.79 150.88 24.55 150.11 25.34 149.32 C26.57 148.08 26.57 148.08 27.82 146.81 C28.67 145.95 29.51 145.1 30.39 144.22 C33.1 141.49 35.8 138.75 38.51 136.02 C41.21 133.29 43.91 130.56 46.62 127.83 C48.3 126.14 49.98 124.44 51.66 122.74 C54.73 119.65 57.71 116.68 61.13 113.96 C61.77 113.44 62.41 112.93 63.07 112.39 C63.07 111.73 63.07 111.07 63.07 110.39 C63.73 110.39 64.39 110.39 65.07 110.39 C66.74 109.06 66.74 109.06 68.07 107.39 C68.07 106.73 68.07 106.07 68.07 105.39 C68.73 105.39 69.39 105.39 70.07 105.39 C71.74 104.06 71.74 104.06 73.07 102.39 C73.07 101.73 73.07 101.07 73.07 100.39 C73.73 100.39 74.39 100.39 75.07 100.39 C76.74 99.06 76.74 99.06 78.07 97.39 C78.07 96.73 78.07 96.07 78.07 95.39 C78.73 95.39 79.39 95.39 80.07 95.39 C83.03 92.51 85.7 89.3 86.5 85.18 C86.51 82.03 86.07 79.38 85.07 76.39 C84.41 76.39 83.75 76.39 83.07 76.39 C83.07 75.73 83.07 75.07 83.07 74.39 C75.33 70.17 70.75 71.11 64.2 76.95 Z " fill="#000000" transform="translate(913.92919921875,806.60888671875)"/>
<path d="M0 0 C0.81 -0 1.62 -0 2.45 -0 C5.15 -0.01 7.85 -0.01 10.55 -0 C12.49 -0 14.43 -0.01 16.37 -0.01 C21.63 -0.01 26.89 -0.01 32.15 -0.01 C37.66 -0 43.17 -0.01 48.68 -0.01 C57.93 -0.01 67.18 -0.01 76.43 -0 C87.12 0 97.81 0 108.5 -0.01 C117.68 -0.01 126.86 -0.01 136.05 -0.01 C141.53 -0.01 147.01 -0.01 152.49 -0.01 C157.65 -0.01 162.8 -0.01 167.96 -0 C169.85 -0 171.74 -0 173.63 -0.01 C176.21 -0.01 178.79 -0 181.38 0 C182.12 -0 182.87 -0 183.64 -0.01 C190.35 0.02 196.07 0.29 201.81 3.94 C202.62 4.44 203.43 4.94 204.26 5.46 C209.2 8.85 212.58 12.01 215.88 17.06 C216.89 18.59 216.89 18.59 217.92 20.15 C223.92 30.23 225.04 41.77 222.5 53.06 C220.63 60.01 217.67 66.15 213.69 72.13 C213.03 72.13 212.37 72.13 211.69 72.13 C211.42 72.77 211.15 73.41 210.88 74.06 C209.69 76.13 209.69 76.13 206.69 77.13 C206.69 77.79 206.69 78.45 206.69 79.13 C196.21 86.17 186.67 85.97 174.47 85.87 C172.44 85.88 170.41 85.88 168.39 85.89 C162.91 85.91 157.44 85.89 151.97 85.87 C146.23 85.84 140.49 85.85 134.74 85.86 C125.11 85.86 115.47 85.84 105.84 85.8 C94.71 85.76 83.58 85.75 72.45 85.76 C61.73 85.77 51 85.76 40.28 85.74 C35.72 85.73 31.16 85.73 26.61 85.73 C21.24 85.74 15.88 85.72 10.51 85.69 C8.55 85.68 6.58 85.68 4.62 85.68 C1.93 85.69 -0.76 85.67 -3.45 85.65 C-4.61 85.66 -4.61 85.66 -5.79 85.67 C-14.86 85.53 -22.72 81.19 -29.31 75.13 C-31.54 72.6 -33.45 69.94 -35.31 67.13 C-36.03 66.1 -36.76 65.06 -37.5 64 C-43.06 53.73 -43.35 41.32 -40.59 30.22 C-37.84 21.74 -32.96 14.11 -26.31 8.13 C-25.65 8.13 -24.99 8.13 -24.31 8.13 C-24.31 7.47 -24.31 6.81 -24.31 6.13 C-22.97 5.3 -21.61 4.49 -20.25 3.69 C-19.49 3.24 -18.74 2.78 -17.96 2.32 C-12.31 -0.22 -6.1 -0.02 0 0 Z " fill="#000000" transform="translate(511.3115234375,225.87301635742188)"/>
</svg>
