<?xml version="1.0" encoding="UTF-8"?>
<!-- Generator: visioncortex VTracer 0.6.3 -->
<svg version="1.1" xmlns="http://www.w3.org/2000/svg" width="1280" height="1280">
<path d="M0 0 C422.4 0 844.8 0 1280 0 C1280 422.4 1280 844.8 1280 1280 C857.6 1280 435.2 1280 0 1280 C0 857.6 0 435.2 0 0 Z " fill="#000000" transform="translate(0,0)"/>
<path d="M0 0 C422.4 0 844.8 0 1280 0 C1280 422.4 1280 844.8 1280 1280 C857.6 1280 435.2 1280 0 1280 C0 857.6 0 435.2 0 0 Z M467 84 C464.89 84.88 464.89 84.88 462.81 85.56 C460.75 86.2 460.75 86.2 459 87 C458.67 87.66 458.34 88.32 458 89 C456.26 89.75 454.52 90.5 452.77 91.21 C450.58 92.19 448.87 93.5 447 95 C446.28 95.42 445.55 95.84 444.81 96.27 C441.4 98.37 438.32 100.76 435.19 103.25 C434.57 103.74 433.95 104.23 433.31 104.74 C426.68 110.02 420.43 115.26 414.93 121.75 C411.78 125.42 408.44 128.94 405.14 132.48 C403.29 134.65 402.18 136.45 401 139 C399.67 140.33 398.33 141.67 397 143 C394.65 146.53 392.85 150.29 391.06 154.13 C390 156 390 156 388.46 157.48 C386.7 159.31 386.26 160.75 385.56 163.19 C384.6 166.3 383.52 169.12 382 172 C380.18 175.49 378.91 179.01 377.72 182.76 C376.61 186.22 375.29 189.6 374 193 C373.67 193.99 373.34 194.98 373 196 C371.9 196 371.9 196 370.77 196.01 C352.86 196.07 334.95 196.14 317.04 196.24 C308.38 196.28 299.71 196.32 291.05 196.35 C283.5 196.37 275.95 196.4 268.4 196.45 C264.4 196.47 260.41 196.49 256.41 196.5 C252.64 196.5 248.88 196.52 245.11 196.55 C243.73 196.56 242.36 196.57 240.98 196.57 C230.84 196.56 224.13 197.47 216.44 204.39 C214.38 206.7 213.71 209.02 213 212 C212.66 212.58 212.33 213.15 211.98 213.75 C210.63 216.85 210.67 219.57 210.59 222.95 C210.56 223.94 210.56 223.94 210.53 224.95 C210.47 227.05 210.42 229.15 210.38 231.25 C210.34 232.68 210.3 234.1 210.26 235.53 C210.16 239.02 210.08 242.51 210 246 C209.03 246 209.03 246 208.05 246 C192.35 246.04 176.65 246.1 160.95 246.18 C153.35 246.22 145.76 246.26 138.17 246.27 C131.54 246.28 124.92 246.31 118.3 246.35 C114.79 246.38 111.29 246.39 107.79 246.39 C103.87 246.39 99.94 246.42 96.02 246.45 C94.88 246.45 93.73 246.44 92.55 246.44 C84.99 246.54 77.83 247.54 71 251 C70.67 251.99 70.34 252.98 70 254 C68.97 254.19 67.94 254.37 66.88 254.56 C62.01 255.72 60.17 259.39 57.58 263.39 C52.5 271.77 49.88 277.45 49.87 287.47 C49.87 288.76 49.87 290.05 49.87 291.38 C49.87 292.81 49.87 294.24 49.87 295.68 C49.87 297.2 49.87 298.73 49.87 300.26 C49.87 304.48 49.87 308.7 49.87 312.91 C49.87 317.5 49.87 322.08 49.87 326.66 C49.86 334.7 49.86 342.73 49.87 350.77 C49.87 362.72 49.87 374.67 49.87 386.62 C49.86 407.96 49.86 429.3 49.86 450.64 C49.87 469.32 49.87 487.99 49.87 506.67 C49.87 507.91 49.87 509.14 49.87 510.42 C49.87 515.44 49.87 520.47 49.86 525.49 C49.86 560.57 49.86 595.64 49.87 630.72 C49.87 631.38 49.87 632.04 49.87 632.72 C49.87 643.46 49.87 654.2 49.87 664.94 C49.87 707.52 49.87 750.11 49.87 792.69 C49.87 803.42 49.87 814.15 49.87 824.88 C49.87 825.54 49.87 826.2 49.87 826.88 C49.86 862.55 49.86 898.22 49.87 933.88 C49.87 938.9 49.87 943.91 49.87 948.93 C49.87 950.16 49.87 951.4 49.87 952.67 C49.87 971.34 49.87 990 49.86 1008.67 C49.86 1029.89 49.86 1051.11 49.87 1072.33 C49.87 1084.21 49.87 1096.1 49.87 1107.98 C49.86 1115.91 49.87 1123.84 49.87 1131.77 C49.87 1136.3 49.87 1140.82 49.87 1145.34 C49.87 1149.46 49.87 1153.57 49.87 1157.69 C49.87 1159.16 49.87 1160.64 49.87 1162.12 C49.86 1169.5 49.99 1176.69 51 1184 C51.66 1184 52.32 1184 53 1184 C53 1184.99 53 1185.98 53 1187 C53.66 1187 54.32 1187 55 1187 C55.07 1187.88 55.13 1188.77 55.2 1189.68 C56.19 1193.77 57.72 1195.3 60.75 1198.19 C61.61 1199.03 62.47 1199.87 63.36 1200.73 C73.93 1209.81 86.28 1211.74 99.74 1211.63 C101.29 1211.64 102.85 1211.65 104.41 1211.65 C108.68 1211.68 112.95 1211.66 117.22 1211.65 C121.86 1211.64 126.51 1211.65 131.16 1211.67 C139.31 1211.69 147.45 1211.69 155.59 1211.68 C167.7 1211.66 179.81 1211.67 191.92 1211.69 C213.55 1211.72 235.18 1211.72 256.8 1211.71 C275.73 1211.7 294.66 1211.7 313.59 1211.71 C316.13 1211.71 318.67 1211.71 321.21 1211.71 C325.03 1211.71 328.86 1211.71 332.69 1211.72 C368.26 1211.73 403.83 1211.74 439.4 1211.72 C440.07 1211.72 440.74 1211.72 441.44 1211.72 C452.32 1211.72 463.2 1211.71 474.09 1211.71 C517.25 1211.69 560.41 1211.69 603.57 1211.73 C614.44 1211.74 625.32 1211.74 636.19 1211.75 C636.86 1211.75 637.53 1211.75 638.22 1211.75 C674.4 1211.78 710.57 1211.78 746.74 1211.77 C751.83 1211.77 756.92 1211.77 762.01 1211.76 C763.26 1211.76 764.51 1211.76 765.8 1211.76 C784.72 1211.76 803.63 1211.77 822.55 1211.79 C844.06 1211.81 865.57 1211.81 887.08 1211.78 C899.12 1211.76 911.15 1211.76 923.19 1211.79 C931.23 1211.8 939.28 1211.8 947.32 1211.77 C951.9 1211.76 956.48 1211.76 961.06 1211.78 C965.24 1211.8 969.41 1211.79 973.59 1211.76 C975.08 1211.76 976.57 1211.76 978.07 1211.78 C986.12 1211.85 993.31 1210.98 1000.88 1208.2 C1001.57 1207.95 1002.25 1207.7 1002.96 1207.45 C1005.81 1206.3 1007.67 1205.55 1009.29 1202.87 C1009.53 1202.25 1009.76 1201.63 1010 1201 C1011.65 1200.28 1013.31 1199.62 1015 1199 C1017.39 1197.2 1017.93 1196.43 1018.44 1193.44 C1018.62 1192.63 1018.81 1191.83 1019 1191 C1019.96 1190.56 1019.96 1190.56 1020.93 1190.11 C1023.14 1189.18 1023.14 1189.18 1024.01 1187.08 C1024.23 1186.33 1024.46 1185.58 1024.69 1184.81 C1025.03 1183.71 1025.03 1183.71 1025.39 1182.58 C1026.97 1175.93 1027.15 1169.5 1027.16 1162.7 C1027.17 1161.68 1027.18 1160.65 1027.18 1159.6 C1027.2 1156.18 1027.21 1152.76 1027.22 1149.34 C1027.23 1146.88 1027.24 1144.42 1027.26 1141.97 C1027.28 1135.99 1027.31 1130.02 1027.33 1124.05 C1027.35 1119.19 1027.37 1114.34 1027.39 1109.49 C1027.39 1108.79 1027.39 1108.1 1027.39 1107.39 C1027.4 1105.99 1027.41 1104.58 1027.41 1103.18 C1027.47 1090.01 1027.52 1076.85 1027.57 1063.69 C1027.61 1052.39 1027.65 1041.1 1027.7 1029.8 C1027.76 1016.68 1027.82 1003.56 1027.87 990.44 C1027.87 989.05 1027.88 987.65 1027.88 986.25 C1027.88 985.56 1027.89 984.87 1027.89 984.16 C1027.91 979.31 1027.93 974.46 1027.95 969.61 C1027.98 963.09 1028 956.56 1028.02 950.04 C1028.03 947.64 1028.04 945.24 1028.06 942.85 C1028.07 939.58 1028.08 936.31 1028.09 933.05 C1028.1 932.09 1028.1 931.14 1028.11 930.16 C1028.11 925.97 1028.08 922.08 1027 918 C1032.88 914.79 1038.36 912.96 1044.88 911.5 C1051.16 910.02 1057.12 908.44 1063.04 905.83 C1065 905 1065 905 1068.62 904 C1072.04 902.99 1074.87 901.59 1078.01 899.94 C1080 899 1080 899 1083.81 897.94 C1086.95 897.3 1086.95 897.3 1088.44 895.5 C1090.32 893.69 1091.47 893.58 1094 893.06 C1097.79 892.24 1098.79 891.21 1101 888 C1102.99 887.29 1104.99 886.63 1107 886 C1109.03 884.71 1111.03 883.38 1113 882 C1114.36 881.2 1114.36 881.2 1115.75 880.38 C1118.09 879.06 1118.09 879.06 1120 877 C1120.95 876.71 1121.9 876.42 1122.88 876.12 C1126.34 874.88 1127.48 873.61 1130 871 C1131.71 869.54 1133.44 868.11 1135.19 866.69 C1136.17 865.89 1137.15 865.09 1138.16 864.27 C1140.46 862.43 1142.81 860.68 1145.19 858.94 C1156.07 850.53 1165.76 839.96 1174 829 C1175.35 827.33 1176.71 825.66 1178.06 824 C1180.78 820.59 1183.43 817.15 1186 813.62 C1186.58 812.83 1187.15 812.04 1187.75 811.23 C1189.33 808.84 1189.33 808.84 1189 805 C1189.62 804.75 1190.24 804.49 1190.88 804.23 C1193.36 802.79 1193.87 801.84 1195 799.25 C1196.17 796.71 1197.29 794.58 1198.88 792.25 C1205.01 782.86 1209.2 772.34 1212.96 761.82 C1213.93 759.2 1214.98 756.64 1216.06 754.06 C1217.96 749.39 1219.17 744.67 1220.29 739.76 C1221 737 1221 737 1221.98 734.68 C1223.05 731.87 1223.57 729.3 1224.04 726.33 C1224.2 725.27 1224.37 724.22 1224.55 723.13 C1224.72 722.03 1224.89 720.94 1225.06 719.81 C1225.4 717.63 1225.75 715.45 1226.1 713.27 C1226.25 712.31 1226.4 711.34 1226.55 710.35 C1227 708 1227 708 1228 706 C1229.14 696.98 1229.16 687.88 1229.13 678.8 C1229.13 676.7 1229.13 674.6 1229.14 672.5 C1229.14 659.61 1228.99 646.85 1225.75 634.3 C1224.91 630.6 1224.43 626.89 1224 623.12 C1223.35 617.86 1222.27 613.82 1220 609 C1219.51 607.13 1219.06 605.26 1218.62 603.38 C1215.86 591.78 1210.95 580.72 1205.56 570.12 C1203.18 565.41 1200.93 560.67 1198.83 555.82 C1197.74 553.43 1196.39 551.23 1195 549 C1194.51 547.97 1194.01 546.94 1193.5 545.88 C1192.25 543.1 1192.25 543.1 1190.68 541.75 C1187.71 538.65 1185.65 534.83 1183.4 531.18 C1181.21 527.69 1179.01 524.86 1176 522 C1174.69 520.41 1173.4 518.81 1172.12 517.19 C1165.73 509.12 1159.11 501.84 1151.44 494.94 C1146.33 490.34 1146.33 490.34 1143.94 487.88 C1141.93 485.94 1139.92 484.54 1137.56 483.06 C1133.07 480.14 1129.61 476.76 1126 472.81 C1124.11 470.89 1124.11 470.89 1121.68 470.08 C1118.88 468.95 1116.68 467.56 1114.19 465.88 C1108.9 462.44 1103.44 459.61 1097.78 456.85 C1094.14 455.08 1090.61 453.24 1087.12 451.19 C1083.34 449.03 1079.53 447.83 1075.34 446.68 C1072.1 445.74 1069.1 444.33 1066 443 C1055.33 439.35 1044.2 436.96 1033.22 434.43 C1032.06 434.16 1030.89 433.9 1029.69 433.62 C1028.8 433.41 1027.91 433.21 1027 433 C1027 432.25 1027.01 431.5 1027.01 430.73 C1027.07 412.45 1027.12 394.17 1027.16 375.89 C1027.17 367.05 1027.19 358.2 1027.23 349.36 C1027.26 341.65 1027.28 333.94 1027.28 326.23 C1027.29 322.15 1027.3 318.07 1027.32 313.99 C1027.34 310.14 1027.34 306.29 1027.34 302.44 C1027.34 301.04 1027.35 299.64 1027.36 298.24 C1027.49 281.16 1025.19 268.58 1013 256 C999.69 242.69 979.36 245.54 961.98 245.52 C959.27 245.51 956.55 245.49 953.84 245.48 C947.47 245.44 941.09 245.41 934.71 245.4 C923.26 245.36 911.8 245.3 900.35 245.24 C896.99 245.22 893.63 245.21 890.27 245.2 C886.54 245.19 882.82 245.17 879.09 245.16 C877.98 245.16 876.86 245.16 875.71 245.15 C874.2 245.15 874.2 245.15 872.66 245.14 C871.78 245.14 870.9 245.13 869.99 245.13 C868 245 868 245 867 244 C866.88 242.28 866.82 240.55 866.79 238.82 C866.76 237.75 866.73 236.67 866.7 235.56 C866.65 233.31 866.61 231.06 866.57 228.8 C866.4 216.24 866.4 216.24 860.62 205.69 C859.76 205.13 858.89 204.57 858 204 C857.16 202.96 856.35 201.89 855.56 200.81 C852.5 197.46 851.39 197.45 847 197 C844.97 196.91 842.94 196.87 840.91 196.86 C839.11 196.85 839.11 196.85 837.28 196.85 C835.97 196.84 834.67 196.84 833.33 196.84 C831.94 196.84 830.54 196.83 829.15 196.83 C826.15 196.82 823.16 196.81 820.16 196.8 C815.42 196.79 810.69 196.77 805.95 196.75 C792.49 196.69 779.03 196.63 765.57 196.6 C758.12 196.58 750.68 196.55 743.24 196.51 C739.3 196.49 735.37 196.47 731.43 196.47 C727.73 196.47 724.04 196.45 720.34 196.43 C718.33 196.42 716.32 196.42 714.32 196.43 C713.13 196.41 711.94 196.4 710.71 196.39 C709.67 196.39 708.64 196.39 707.57 196.38 C705 196 705 196 703.2 194.65 C701.48 192.28 701.1 189.97 700.5 187.12 C699.59 182.79 698.34 179.75 696 176 C695.38 174.35 694.79 172.68 694.25 171 C691.11 162.09 686.36 153.89 681.25 145.97 C679.27 142.84 677.45 139.61 675.62 136.39 C673.7 133.55 671.47 131.4 669 129 C667.88 127.81 666.76 126.6 665.65 125.4 C655.24 114.11 645.28 103.39 631.81 95.75 C629.11 94.07 627.22 92.26 625 90 C622.69 88.95 620.35 87.95 618 87 C616.33 86 614.67 85 613 84 C605.24 80.43 597.12 77.64 589 75 C588.2 74.71 587.4 74.41 586.57 74.11 C553.03 63.69 496.05 61.3 467 84 Z " fill="#FCFCFC" transform="translate(0,0)"/>
<path d="M0 0 C9.35 -0.02 18.71 -0.04 28.06 -0.05 C32.4 -0.06 36.74 -0.06 41.09 -0.08 C45.28 -0.09 49.46 -0.09 53.65 -0.09 C55.25 -0.1 56.85 -0.1 58.45 -0.11 C60.69 -0.11 62.93 -0.11 65.16 -0.11 C66.44 -0.12 67.71 -0.12 69.03 -0.12 C72 0 72 0 74 1 C75.16 4.21 75.12 7.34 75.14 10.73 C75.16 11.84 75.18 12.96 75.2 14.11 C75.23 16.43 75.25 18.75 75.25 21.07 C75.42 28.69 76.57 34.67 81 41 C83.92 43.48 83.92 43.48 87 45 C88.08 45.84 88.08 45.84 89.19 46.69 C92.17 48.85 94.75 49.13 98.32 49.13 C99.2 49.13 100.09 49.14 101.01 49.14 C101.99 49.14 102.97 49.14 103.97 49.14 C105.54 49.14 105.54 49.14 107.13 49.15 C110.66 49.16 114.18 49.16 117.71 49.16 C120.25 49.17 122.79 49.17 125.33 49.18 C131.6 49.19 137.87 49.2 144.14 49.2 C151.65 49.21 159.16 49.22 166.67 49.23 C185.68 49.27 204.69 49.29 223.7 49.3 C228.85 49.31 234 49.31 239.15 49.32 C271.11 49.35 303.06 49.38 335.02 49.39 C342.42 49.4 349.83 49.4 357.23 49.41 C358.15 49.41 359.07 49.41 360.02 49.41 C389.85 49.42 419.68 49.46 449.51 49.51 C480.17 49.56 510.83 49.6 541.49 49.6 C545.82 49.61 550.15 49.61 554.48 49.61 C555.76 49.61 555.76 49.61 557.06 49.61 C570.78 49.61 584.49 49.64 598.21 49.67 C612 49.7 625.79 49.71 639.58 49.7 C647.77 49.69 655.96 49.7 664.15 49.74 C670.27 49.76 676.39 49.75 682.5 49.73 C684.98 49.73 687.45 49.74 689.93 49.75 C707.07 50.35 707.07 50.35 722 43 C723.01 42.22 724.02 41.43 725.06 40.62 C730.38 33.42 729.39 23.61 729.56 15.06 C729.62 12.43 729.69 9.79 729.75 7.16 C729.78 6 729.8 4.84 729.83 3.65 C730 1 730 1 731 0 C733.3 -0.09 735.6 -0.12 737.91 -0.11 C738.63 -0.11 739.35 -0.11 740.09 -0.11 C742.49 -0.11 744.89 -0.11 747.29 -0.1 C748.94 -0.1 750.6 -0.09 752.26 -0.09 C756.63 -0.09 761 -0.08 765.37 -0.07 C769.83 -0.06 774.29 -0.05 778.74 -0.05 C787.5 -0.04 796.25 -0.02 805 0 C806.13 2.27 806.13 3.5 806.13 6.02 C806.14 6.86 806.14 7.71 806.15 8.57 C806.15 9.5 806.15 10.42 806.15 11.38 C806.15 12.83 806.15 12.83 806.16 14.32 C806.16 17.55 806.17 20.77 806.17 24 C806.17 26.23 806.17 28.47 806.18 30.7 C806.18 35.39 806.19 40.08 806.19 44.77 C806.19 50.79 806.2 56.8 806.22 62.82 C806.23 67.44 806.23 72.05 806.23 76.67 C806.23 78.89 806.23 81.11 806.24 83.33 C806.25 86.43 806.25 89.53 806.24 92.62 C806.25 93.55 806.25 94.47 806.26 95.43 C806.25 96.69 806.25 96.69 806.25 97.98 C806.25 98.71 806.25 99.44 806.25 100.2 C806 102 806 102 804 104 C802.21 104.51 802.21 104.51 800.03 104.89 C799.22 105.04 798.41 105.19 797.58 105.34 C796.27 105.58 796.27 105.58 794.94 105.81 C782.5 108.17 770.32 110.85 759.15 117.01 C756.85 118.07 755.02 118.37 752.5 118.56 C751.35 118.71 750.19 118.85 749 119 C748.69 119.65 748.38 120.3 748.05 120.96 C747 123 747 123 744.98 123.69 C744.2 123.79 743.42 123.89 742.62 124 C738.43 124.75 736.93 125.87 734 129 C731.67 129.67 729.33 130.33 727 131 C725.65 132.31 724.31 133.65 723 135 C721 135.67 719 136.33 717 137 C714.94 138.81 714.94 138.81 713 141 C710.15 143.54 707.62 145.7 704.19 147.38 C695.19 151.96 688.34 159.44 681.38 166.59 C678.54 169.5 675.65 172.36 672.75 175.21 C663.58 184.27 655.64 193.9 649 205 C647.35 206.85 646.22 207.89 644 209 C643.71 210.13 643.42 211.27 643.12 212.44 C642.75 213.61 642.38 214.79 642 216 C640.67 216.68 639.34 217.35 638 218 C637.86 218.87 637.71 219.73 637.56 220.62 C636.91 224.55 635.43 226.72 633.27 229.99 C631.47 232.84 630.27 235.88 629 239 C628.48 240.01 627.97 241.02 627.44 242.06 C625.93 244.97 625.93 244.97 625 248.12 C624 251 624 251 622.44 252.94 C620.43 255.81 620.47 258.55 620 262 C619.05 264.35 618.05 266.69 617 269 C616.3 270.99 615.63 272.99 615 275 C614.65 276.11 614.3 277.23 613.94 278.38 C613.23 281.11 612.79 283.48 612.5 286.25 C612 290 612 290 610 293 C608.99 297.8 608.46 302.69 607.88 307.56 C607.79 308.29 607.7 309.02 607.61 309.77 C604.04 339.77 604.74 370.57 612 400 C612.32 401.42 612.63 402.84 612.94 404.26 C614.68 412.18 616.72 419.56 620 427 C620.49 428.27 620.97 429.54 621.44 430.81 C621.67 431.45 621.91 432.08 622.16 432.73 C622.83 434.54 623.49 436.34 624.16 438.14 C626.39 444.1 628.71 449.56 632 455 C632.3 455.77 632.59 456.54 632.89 457.34 C634.14 460.34 635.73 462.9 637.5 465.62 C638.11 466.57 638.72 467.51 639.34 468.48 C640.56 470.32 641.78 472.16 643 474 C643 474.99 643 475.98 643 477 C643.99 477.33 644.98 477.66 646 478 C647.33 479.91 647.33 479.91 648.81 482.5 C659.43 499.74 674.11 515.55 690 528 C692 529.68 694 531.37 696 533.06 C710.63 545.22 727.34 556.69 745 564 C747.2 564.97 749.4 565.95 751.59 566.94 C752.39 567.29 753.18 567.64 754 568 C755.04 568.47 756.08 568.93 757.16 569.41 C761.68 571.34 766.33 572.89 771 574.44 C771.92 574.74 772.84 575.05 773.79 575.37 C780.43 577.55 787.11 579.43 793.88 581.16 C803.83 583.83 803.83 583.83 807 587 C807.19 589.72 807.26 592.34 807.24 595.06 C807.24 596.33 807.24 596.33 807.25 597.62 C807.25 600.46 807.24 603.3 807.23 606.14 C807.23 608.17 807.23 610.2 807.23 612.23 C807.23 617.75 807.22 623.28 807.2 628.8 C807.19 634.57 807.19 640.34 807.19 646.1 C807.18 657.03 807.16 667.96 807.14 678.89 C807.12 691.33 807.11 703.77 807.1 716.21 C807.08 741.81 807.04 767.4 807 793 C803.69 794.98 801.2 795.25 797.37 795.25 C796.21 795.26 795.06 795.26 793.87 795.27 C791.96 795.26 791.96 795.26 790.01 795.25 C788.64 795.25 787.27 795.26 785.9 795.26 C782.11 795.27 778.33 795.26 774.54 795.26 C770.43 795.25 766.32 795.26 762.21 795.26 C755 795.27 747.8 795.27 740.59 795.27 C729.87 795.26 719.14 795.26 708.42 795.27 C689.28 795.28 670.14 795.28 650.99 795.27 C634.24 795.27 617.49 795.27 600.74 795.27 C599.63 795.27 598.52 795.27 597.38 795.27 C592.87 795.27 588.37 795.27 583.86 795.27 C541.58 795.28 499.3 795.27 457.02 795.26 C419.42 795.25 381.83 795.25 344.23 795.26 C302.03 795.27 259.82 795.28 217.61 795.27 C213.12 795.27 208.62 795.27 204.13 795.27 C203.02 795.27 201.91 795.27 200.77 795.27 C184.03 795.26 167.28 795.27 150.54 795.27 C131.5 795.28 112.47 795.28 93.44 795.27 C82.78 795.26 72.12 795.26 61.46 795.27 C54.34 795.27 47.23 795.27 40.12 795.26 C36.07 795.26 32.01 795.25 27.95 795.26 C24.26 795.27 20.58 795.26 16.89 795.25 C14.93 795.25 12.96 795.26 11 795.27 C9.85 795.26 8.69 795.26 7.5 795.25 C6.51 795.25 5.51 795.25 4.48 795.25 C2 795 2 795 -1 793 C-1.37 790.66 -1.37 790.66 -1.37 787.67 C-1.37 786.53 -1.38 785.38 -1.38 784.21 C-1.37 782.94 -1.36 781.67 -1.35 780.37 C-1.35 779.01 -1.36 777.66 -1.36 776.31 C-1.36 772.55 -1.35 768.8 -1.33 765.05 C-1.32 760.98 -1.32 756.91 -1.32 752.84 C-1.32 745.69 -1.3 738.55 -1.28 731.4 C-1.25 720.78 -1.23 710.16 -1.22 699.53 C-1.21 681.66 -1.17 663.8 -1.13 645.93 C-1.09 628.23 -1.06 610.53 -1.03 592.83 C-1.03 591.73 -1.03 590.63 -1.03 589.5 C-1.02 583.92 -1.01 578.33 -1 572.75 C-0.95 533.18 -0.88 493.61 -0.8 454.04 C-0.72 415.59 -0.65 377.15 -0.59 338.7 C-0.59 336.92 -0.59 336.92 -0.59 335.11 C-0.57 323.21 -0.55 311.32 -0.53 299.42 C-0.49 275.19 -0.45 250.96 -0.41 226.72 C-0.41 225.61 -0.41 224.49 -0.41 223.35 C-0.29 148.9 -0.14 74.45 0 0 Z " fill="#FCFCFC" transform="translate(136,331)"/>
<path d="M0 0 C2.71 0.34 5.43 0.67 8.15 0.99 C9.89 1.2 11.64 1.42 13.38 1.64 C14.18 1.74 14.99 1.83 15.81 1.93 C20.53 2.55 24.05 3.68 28.26 6.03 C30.77 6.63 33.25 7.02 35.79 7.4 C38.69 8.14 40.73 9.46 43.26 11.03 C44.97 11.7 46.7 12.32 48.45 12.9 C53.97 14.85 59.09 17.27 64.26 20.03 C65.08 20.47 65.9 20.9 66.74 21.35 C72.65 24.56 72.65 24.56 75.27 26.55 C77.19 27.98 79.05 28.97 81.2 30.03 C87.36 33.39 92.47 38.04 97.71 42.66 C99.09 43.88 100.49 45.08 101.89 46.29 C114.63 57.39 126.13 70.42 135.32 84.59 C135.72 85.2 136.11 85.81 136.52 86.43 C139.26 90.77 139.26 90.77 139.26 93.03 C139.92 93.03 140.58 93.03 141.26 93.03 C143.6 95.46 144.34 97.3 145.26 100.59 C145.93 103.94 145.93 103.94 147.73 105.47 C149.59 107.36 150.03 108.87 150.76 111.4 C151.59 114.12 152.33 116.15 153.82 118.59 C155.42 121.31 156.02 123.7 156.63 126.77 C157.24 129.19 157.24 129.19 158.63 131.96 C161.04 137.47 162.11 143.37 163.38 149.22 C163.65 150.37 163.91 151.53 164.18 152.72 C167.03 165.59 167.45 178.17 167.44 191.29 C167.45 193.76 167.46 196.23 167.48 198.7 C167.53 212.25 166.41 225.37 163.26 238.59 C163.09 239.32 162.93 240.05 162.76 240.8 C159.96 252.98 159.96 252.98 157.26 257.03 C156.8 258.29 156.39 259.56 156.01 260.84 C152.15 272.71 146.64 283.37 140.26 294.03 C139.76 294.89 139.26 295.75 138.74 296.63 C137.18 299.15 135.5 301.49 133.7 303.84 C133.1 304.63 132.5 305.42 131.88 306.24 C131.35 306.83 130.81 307.42 130.26 308.03 C129.6 308.03 128.94 308.03 128.26 308.03 C128.02 308.92 127.77 309.81 127.52 310.72 C126.16 314.28 124.68 316.17 122.07 318.9 C119.31 321.84 116.62 324.78 114.07 327.9 C107.64 335.31 98.05 344.74 89.2 349.03 C87.12 349.97 87.12 349.97 85.38 351.9 C81 356.28 75.98 358.72 70.31 361 C68.2 361.92 68.2 361.92 66.71 363.59 C64.4 365.88 61.34 366.15 58.26 367.03 C57.78 367.51 57.3 368 56.81 368.5 C54.95 370.33 53.5 370.8 51.01 371.53 C48.15 372.41 45.62 373.33 42.88 374.59 C38.83 376.2 35.02 376.83 30.71 377.4 C27.95 378.11 27.18 379.01 25.26 381.03 C23.27 381.3 21.27 381.56 19.27 381.72 C15.29 382.13 11.38 382.82 7.45 383.53 C6.71 383.66 5.96 383.79 5.2 383.93 C1.32 384.59 1.32 384.59 -2.48 385.56 C-5.85 386.26 -9.21 386.23 -12.64 386.27 C-13.41 386.28 -14.19 386.29 -14.99 386.3 C-17.51 386.32 -20.03 386.33 -22.55 386.34 C-23.41 386.34 -24.27 386.35 -25.15 386.35 C-43.1 386.36 -59.47 383.84 -76.74 379.03 C-77.93 378.71 -79.12 378.4 -80.35 378.07 C-93.38 374.52 -105.06 369.76 -116.62 362.86 C-119.69 361 -119.69 361 -122.83 359.54 C-125.83 357.98 -128.13 356.16 -130.74 354.03 C-132.41 352.97 -134.07 351.91 -135.75 350.88 C-141.46 347.38 -146.37 343.86 -150.96 338.92 C-152.77 337 -154.67 335.3 -156.68 333.59 C-163.96 327.31 -170.53 320.37 -176.74 313.03 C-177.44 312.21 -177.44 312.21 -178.14 311.37 C-179.35 309.93 -180.55 308.48 -181.74 307.03 C-182.44 306.2 -183.14 305.38 -183.87 304.53 C-185.9 301.81 -187.22 299.06 -188.74 296.03 C-189.68 294.6 -190.64 293.19 -191.62 291.78 C-194.26 287.88 -196.42 283.92 -198.46 279.68 C-199.35 277.84 -200.28 276.02 -201.24 274.22 C-204.74 267.62 -207.04 261.2 -208.88 253.96 C-209.63 250.88 -209.63 250.88 -211.74 248.03 C-212.4 245.81 -212.4 245.81 -212.96 243.23 C-213.17 242.27 -213.38 241.31 -213.6 240.32 C-213.81 239.32 -214.02 238.31 -214.24 237.28 C-214.45 236.32 -214.67 235.36 -214.89 234.38 C-217.69 221.37 -219.06 208.62 -218.95 195.35 C-218.93 193.2 -218.93 191.05 -218.93 188.91 C-218.9 179.88 -218.76 170.87 -216.74 162.03 C-216.49 160.67 -216.49 160.67 -216.24 159.28 C-215.74 157.03 -215.74 157.03 -214.74 156.03 C-214.11 152.33 -213.55 148.62 -213.02 144.91 C-212.28 140.06 -211.1 136.39 -208.74 132.03 C-208.13 129.8 -208.13 129.8 -207.8 127.65 C-207.02 123.83 -205.79 120.77 -203.95 117.34 C-201.84 113.3 -200 109.13 -198.11 104.98 C-197.43 103.52 -197.43 103.52 -196.74 102.03 C-196.39 101.26 -196.04 100.49 -195.69 99.7 C-194.74 98.03 -194.74 98.03 -192.74 97.03 C-191.94 95.1 -191.34 93.13 -190.72 91.13 C-189.5 88.51 -187.8 87.04 -185.74 85.03 C-184.64 83.37 -183.57 81.68 -182.55 79.97 C-172.22 63.52 -157.83 48.87 -141.74 38.03 C-140.17 36.81 -138.61 35.58 -137.05 34.34 C-133.65 31.67 -130.17 29.3 -126.47 27.07 C-124.86 26.1 -123.3 25.07 -121.74 24.03 C-120.77 23.74 -119.8 23.45 -118.8 23.15 C-115.67 22.26 -115.67 22.26 -113.8 19.97 C-110.99 17.32 -108.5 17.57 -104.74 17.03 C-104.1 16.39 -103.46 15.75 -102.8 15.09 C-100.37 12.65 -98.32 12.28 -95.01 11.59 C-91.7 10.77 -88.66 9.45 -85.53 8.13 C-78.82 5.48 -72.31 3.55 -65.18 2.53 C-63.98 2.35 -63.98 2.35 -62.76 2.17 C-60.09 1.77 -57.41 1.4 -54.74 1.03 C-53.75 0.89 -52.76 0.75 -51.73 0.61 C-48.61 0.17 -45.49 -0.25 -42.37 -0.66 C-41.4 -0.79 -40.44 -0.92 -39.45 -1.06 C-26.08 -2.76 -13.3 -1.69 0 0 Z " fill="#FCFCFC" transform="translate(1009.740966796875,481.971435546875)"/>
<path d="M0 0 C1.32 0 1.32 0 2.66 0.01 C3.58 0 4.51 0 5.47 -0 C8.61 -0.01 11.76 -0.01 14.91 -0 C17.17 -0.01 19.43 -0.01 21.69 -0.01 C27.94 -0.02 34.19 -0.02 40.44 -0.02 C46.48 -0.02 52.52 -0.03 58.56 -0.04 C74.74 -0.05 90.92 -0.06 107.11 -0.06 C114.76 -0.07 122.41 -0.07 130.06 -0.07 C156.24 -0.09 182.41 -0.1 208.59 -0.1 C210.23 -0.1 211.88 -0.1 213.52 -0.1 C215.17 -0.1 216.82 -0.1 218.47 -0.1 C221.77 -0.1 225.08 -0.1 228.39 -0.1 C229.62 -0.1 229.62 -0.1 230.87 -0.1 C257.46 -0.11 284.06 -0.12 310.65 -0.15 C338.74 -0.17 366.84 -0.18 394.94 -0.19 C398.02 -0.19 401.1 -0.19 404.18 -0.19 C404.94 -0.19 405.7 -0.19 406.48 -0.19 C418.72 -0.19 430.95 -0.2 443.18 -0.21 C455.47 -0.23 467.76 -0.23 480.04 -0.22 C486.71 -0.22 493.37 -0.22 500.03 -0.23 C506.12 -0.25 512.21 -0.25 518.3 -0.23 C520.51 -0.23 522.72 -0.23 524.93 -0.24 C527.93 -0.25 530.92 -0.25 533.91 -0.24 C535.21 -0.25 535.21 -0.25 536.54 -0.26 C540.05 -0.23 542.37 -0.18 545.51 1.46 C547.85 4.15 547.5 7.12 547.44 10.51 C547.44 11.26 547.45 12.01 547.45 12.78 C547.45 15.26 547.42 17.73 547.4 20.2 C547.39 21.92 547.39 23.64 547.39 25.36 C547.38 28.95 547.36 32.55 547.33 36.15 C547.29 40.77 547.27 45.39 547.26 50.01 C547.25 54.41 547.23 58.81 547.21 63.2 C547.21 64.05 547.2 64.89 547.2 65.76 C547.19 68.13 547.17 70.51 547.15 72.89 C547.15 73.6 547.14 74.31 547.14 75.03 C547.09 79.91 547.09 79.91 545.97 82.14 C534.29 84.14 521.78 83.28 509.97 83.28 C507.75 83.28 505.53 83.28 503.31 83.29 C497.23 83.29 491.16 83.3 485.09 83.3 C479.21 83.3 473.32 83.3 467.44 83.31 C451.7 83.33 435.95 83.33 420.21 83.34 C412.77 83.34 405.32 83.34 397.87 83.35 C372.37 83.36 346.87 83.37 321.37 83.37 C319.77 83.37 318.18 83.37 316.58 83.38 C314.98 83.38 313.37 83.38 311.77 83.38 C308.56 83.38 305.34 83.38 302.13 83.38 C300.94 83.38 300.94 83.38 299.72 83.38 C273.84 83.38 247.97 83.4 222.09 83.42 C194.72 83.44 167.35 83.46 139.98 83.46 C136.98 83.46 133.98 83.46 130.98 83.46 C129.87 83.46 129.87 83.46 128.74 83.46 C116.83 83.46 104.92 83.47 93.02 83.49 C81.07 83.5 69.12 83.5 57.17 83.5 C50.69 83.49 44.21 83.49 37.73 83.51 C31.81 83.52 25.89 83.52 19.97 83.51 C17.82 83.51 15.67 83.51 13.52 83.52 C10.61 83.53 7.7 83.52 4.8 83.51 C3.53 83.52 3.53 83.52 2.23 83.53 C-1.11 83.5 -3.58 83.38 -6.55 81.78 C-8.75 79.34 -8.52 77.51 -8.5 74.27 C-8.5 73.06 -8.5 71.85 -8.51 70.6 C-8.49 69.29 -8.47 67.98 -8.45 66.63 C-8.45 65.26 -8.45 63.89 -8.44 62.52 C-8.44 59.63 -8.42 56.75 -8.38 53.87 C-8.35 50.23 -8.33 46.58 -8.32 42.94 C-8.31 39.42 -8.29 35.9 -8.27 32.38 C-8.26 31.09 -8.25 29.8 -8.24 28.48 C-8.17 21.72 -7.97 14.99 -7.58 8.25 C-7.54 7.55 -7.5 6.86 -7.46 6.14 C-7.05 -0.23 -6.29 0.02 0 0 Z " fill="#FCFCFC" transform="translate(269.0281890928745,246.86321020126343)"/>
<path d="M0 0 C1.3 -0.01 2.59 -0.01 3.93 -0.02 C7.46 -0.03 10.99 -0.03 14.52 -0.03 C17.48 -0.03 20.44 -0.03 23.4 -0.04 C30.37 -0.05 37.35 -0.05 44.33 -0.04 C51.52 -0.03 58.7 -0.05 65.89 -0.07 C72.07 -0.09 78.26 -0.09 84.44 -0.09 C88.13 -0.09 91.81 -0.09 95.5 -0.1 C99.61 -0.12 103.72 -0.11 107.84 -0.1 C109.65 -0.11 109.65 -0.11 111.51 -0.12 C119.86 -0.07 127.08 0.79 133.6 6.62 C138.19 12.39 140.04 20.41 140.06 27.63 C140.06 28.72 140.07 29.8 140.08 30.92 C140.08 32.7 140.08 32.7 140.08 34.52 C140.08 35.77 140.09 37.03 140.09 38.32 C140.11 41.76 140.11 45.2 140.12 48.63 C140.12 50.79 140.13 52.94 140.13 55.09 C140.14 61.83 140.15 68.56 140.16 75.3 C140.16 83.06 140.18 90.83 140.21 98.59 C140.23 104.6 140.24 110.61 140.24 116.62 C140.24 120.2 140.25 123.79 140.27 127.37 C140.29 131.37 140.28 135.38 140.27 139.38 C140.28 140.56 140.29 141.74 140.3 142.95 C140.26 150.42 139.69 157.31 135.3 163.58 C131.72 166.89 128.46 169.33 123.92 171.27 C123.59 171.6 123.26 171.93 122.92 172.27 C121.17 172.39 119.43 172.43 117.68 172.45 C116.54 172.46 115.4 172.47 114.23 172.49 C112.97 172.5 111.72 172.51 110.42 172.52 C109.1 172.53 107.78 172.54 106.43 172.55 C94.24 172.67 82.06 172.73 69.87 172.77 C60.87 172.8 51.87 172.86 42.87 172.96 C36.53 173.02 30.2 173.06 23.86 173.07 C20.08 173.08 16.31 173.1 12.53 173.15 C8.96 173.2 5.4 173.21 1.83 173.2 C-0.08 173.2 -1.99 173.24 -3.91 173.28 C-13.13 173.18 -19.14 170.34 -26.08 164.27 C-33.13 156.12 -33.52 149.6 -33.47 139.12 C-33.48 137.8 -33.48 136.49 -33.49 135.14 C-33.5 131.55 -33.49 127.96 -33.49 124.37 C-33.48 120.61 -33.48 116.85 -33.49 113.09 C-33.49 106.79 -33.49 100.48 -33.47 94.18 C-33.46 86.88 -33.46 79.59 -33.48 72.3 C-33.49 66.03 -33.49 59.76 -33.49 53.5 C-33.48 49.76 -33.48 46.01 -33.49 42.27 C-33.5 38.11 -33.49 33.95 -33.47 29.78 C-33.48 28.54 -33.48 27.29 -33.49 26.01 C-33.48 24.88 -33.47 23.76 -33.46 22.59 C-33.46 21.61 -33.46 20.62 -33.46 19.61 C-33.33 18.84 -33.21 18.07 -33.08 17.27 C-32.09 16.61 -31.1 15.95 -30.08 15.27 C-29.65 14.2 -29.22 13.13 -28.77 12.02 C-27.11 7.94 -24.84 4.66 -21.08 2.27 C-14.04 0.01 -7.35 -0.02 0 0 Z " fill="#000000" transform="translate(226.08203125,463.725341796875)"/>
<path d="M0 0 C1.13 -0 2.27 -0.01 3.44 -0.01 C4.68 -0.01 5.92 -0 7.19 -0 C8.5 -0 9.81 -0.01 11.16 -0.01 C14.75 -0.01 18.34 -0.01 21.93 -0.01 C25.69 -0 29.44 -0.01 33.2 -0.01 C39.51 -0.01 45.82 -0.01 52.13 -0 C59.43 0 66.72 0 74.01 -0.01 C80.27 -0.01 86.54 -0.01 92.8 -0.01 C96.54 -0.01 100.28 -0.01 104.02 -0.01 C108.19 -0.01 112.36 -0.01 116.53 -0 C117.77 -0 119.01 -0.01 120.28 -0.01 C121.42 -0.01 122.56 -0 123.73 0 C125.21 0 125.21 0 126.72 0 C129.42 0.13 131.82 0.4 134.43 1.13 C136.43 3.44 136.43 3.44 138.43 6.13 C140.09 7.47 141.75 8.8 143.43 10.13 C148.3 17.43 147.72 26.36 147.69 34.85 C147.69 36.72 147.69 36.72 147.7 38.62 C147.7 42.01 147.7 45.4 147.7 48.79 C147.69 52.36 147.7 55.92 147.7 59.48 C147.7 65.46 147.7 71.44 147.69 77.43 C147.68 84.32 147.68 91.22 147.69 98.12 C147.7 104.06 147.7 110 147.7 115.94 C147.69 119.48 147.69 123.02 147.7 126.56 C147.71 130.51 147.7 134.46 147.69 138.41 C147.69 139.57 147.69 140.73 147.7 141.92 C147.62 157.49 147.62 157.49 143.33 162.65 C142.14 163.57 142.14 163.57 140.93 164.5 C138.15 166.69 136.41 168.15 134.43 171.13 C130.87 172.19 127.42 172.26 123.72 172.28 C122.59 172.29 121.45 172.3 120.27 172.31 C119.04 172.31 117.8 172.32 116.52 172.32 C115.21 172.33 113.89 172.34 112.54 172.34 C108.2 172.37 103.85 172.39 99.51 172.4 C98.01 172.41 96.51 172.41 95.01 172.42 C88.77 172.44 82.53 172.46 76.29 172.47 C67.36 172.48 58.44 172.52 49.52 172.57 C43.23 172.61 36.95 172.63 30.66 172.64 C26.91 172.64 23.16 172.65 19.41 172.69 C15.23 172.72 11.04 172.72 6.85 172.71 C5.62 172.73 4.39 172.74 3.12 172.76 C-5.98 172.69 -11.61 170.57 -18.45 164.63 C-25.58 156.24 -25.87 148.18 -25.85 137.59 C-25.85 136.34 -25.86 135.09 -25.86 133.8 C-25.87 130.39 -25.88 126.98 -25.87 123.57 C-25.87 120.71 -25.88 117.86 -25.88 115.01 C-25.89 108.28 -25.89 101.54 -25.89 94.81 C-25.88 87.88 -25.89 80.94 -25.92 74.01 C-25.93 68.04 -25.94 62.08 -25.94 56.11 C-25.93 52.55 -25.94 49 -25.95 45.44 C-25.97 41.47 -25.96 37.51 -25.94 33.54 C-25.95 32.37 -25.96 31.19 -25.97 29.98 C-25.93 24.24 -25.78 20.1 -22.57 15.13 C-22.11 13.74 -21.67 12.34 -21.26 10.94 C-20.08 7.68 -19.76 7.24 -16.63 5.31 C-15.62 4.92 -14.61 4.53 -13.57 4.13 C-12.87 3.59 -12.17 3.05 -11.45 2.5 C-7.91 -0.09 -4.28 0 0 0 Z " fill="#000000" transform="translate(218.57249450683594,669.8730163574219)"/>
<path d="M0 0 C1.7 -0.02 1.7 -0.02 3.44 -0.03 C4.69 -0.04 5.94 -0.04 7.23 -0.05 C8.54 -0.06 9.85 -0.07 11.2 -0.08 C15.56 -0.11 19.92 -0.13 24.29 -0.15 C25.4 -0.15 25.4 -0.15 26.54 -0.16 C33.54 -0.19 40.55 -0.22 47.55 -0.23 C56.5 -0.25 65.46 -0.3 74.41 -0.37 C80.71 -0.41 87 -0.44 93.3 -0.44 C97.06 -0.45 100.82 -0.46 104.58 -0.5 C108.12 -0.54 111.66 -0.55 115.2 -0.54 C117.11 -0.54 119.02 -0.57 120.93 -0.6 C129.75 -0.52 134.73 1.69 141.2 7.56 C148.11 14.89 148.09 24.48 148.05 33.96 C148.05 35.84 148.05 35.84 148.06 37.75 C148.07 41.17 148.07 44.58 148.06 47.99 C148.05 51.58 148.06 55.17 148.06 58.76 C148.07 64.78 148.06 70.81 148.05 76.83 C148.03 83.78 148.04 90.72 148.05 97.66 C148.07 103.64 148.07 109.63 148.06 115.61 C148.06 119.18 148.06 122.74 148.07 126.3 C148.08 130.28 148.06 134.26 148.05 138.23 C148.05 139.4 148.06 140.57 148.06 141.77 C148 149.78 147.55 157.66 142.28 164.04 C141.42 164.74 140.55 165.44 139.66 166.16 C138.85 166.88 138.05 167.6 137.22 168.35 C132.72 171.53 128.32 172.41 122.87 172.43 C121.74 172.44 120.61 172.45 119.44 172.45 C118.22 172.45 116.99 172.45 115.73 172.45 C114.42 172.46 113.12 172.46 111.78 172.47 C108.21 172.49 104.65 172.49 101.08 172.5 C98.85 172.5 96.62 172.5 94.39 172.51 C86.6 172.52 78.81 172.53 71.02 172.53 C63.77 172.53 56.53 172.55 49.28 172.58 C43.05 172.61 36.81 172.62 30.58 172.62 C26.86 172.62 23.14 172.62 19.43 172.64 C15.28 172.67 11.13 172.66 6.98 172.65 C5.15 172.66 5.15 172.66 3.28 172.68 C-5.2 172.62 -11.35 171.18 -18.16 166.04 C-23.01 159.66 -25.45 151.84 -25.49 143.87 C-25.5 142.8 -25.5 141.73 -25.51 140.63 C-25.51 139.46 -25.52 138.29 -25.52 137.08 C-25.53 135.23 -25.53 135.23 -25.54 133.34 C-25.56 129.24 -25.57 125.15 -25.58 121.05 C-25.59 119.64 -25.59 118.23 -25.59 116.81 C-25.61 110.18 -25.63 103.54 -25.64 96.9 C-25.65 89.25 -25.67 81.6 -25.71 73.95 C-25.74 68.03 -25.76 62.11 -25.76 56.19 C-25.76 52.65 -25.77 49.12 -25.8 45.59 C-25.82 41.64 -25.82 37.7 -25.81 33.76 C-25.83 32.59 -25.84 31.43 -25.85 30.23 C-25.81 23.35 -24.88 19.08 -21.34 13.16 C-20.99 12.13 -20.64 11.1 -20.28 10.04 C-17.15 5.4 -12.29 3.54 -7.34 1.16 C-4.76 -0.13 -2.89 0.02 0 0 Z " fill="#000000" transform="translate(218.34303283691406,875.8393707275391)"/>
<path d="M0 0 C6.29 4.61 8.31 9.55 10 17 C10.33 17.99 10.66 18.98 11 20 C10.77 22.74 10.77 22.74 10.25 25.88 C10.09 26.9 9.93 27.93 9.77 28.99 C8.05 35.72 3.45 39.83 -1.34 44.57 C-2.05 45.28 -2.77 46 -3.51 46.74 C-5.02 48.25 -6.53 49.75 -8.05 51.26 C-10.37 53.55 -12.67 55.86 -14.98 58.16 C-16.45 59.63 -17.92 61.1 -19.4 62.57 C-20.43 63.59 -20.43 63.59 -21.48 64.64 C-24.85 67.98 -28.24 71.09 -32 74 C-33.2 75.28 -34.37 76.59 -35.5 77.94 C-42.99 86.66 -42.99 86.66 -47 88 C-47.69 89.32 -48.35 90.66 -49 92 C-50.57 93.55 -50.57 93.55 -52.46 95.09 C-57.82 99.63 -62.71 104.6 -67.65 109.59 C-68.7 110.64 -69.75 111.69 -70.79 112.74 C-73.03 114.99 -75.27 117.24 -77.51 119.49 C-81.05 123.06 -84.59 126.62 -88.14 130.17 C-98.21 140.28 -108.29 150.39 -118.35 160.52 C-123.92 166.12 -129.49 171.72 -135.07 177.31 C-138.59 180.84 -142.11 184.38 -145.63 187.93 C-147.81 190.13 -150 192.32 -152.2 194.52 C-153.21 195.53 -154.22 196.55 -155.23 197.58 C-156.61 198.97 -158 200.36 -159.39 201.74 C-160.16 202.52 -160.94 203.3 -161.74 204.1 C-167.26 208.73 -174.03 209.04 -181 209 C-188.3 207.94 -192.9 204.07 -198 199 C-198.77 198.25 -199.53 197.49 -200.32 196.72 C-202.57 194.5 -204.79 192.25 -207 190 C-210.7 186.29 -214.41 182.59 -218.12 178.9 C-224.12 172.91 -230.12 166.92 -236.12 160.94 C-239.74 157.32 -243.36 153.7 -246.99 150.09 C-250.5 146.58 -254.02 143.08 -257.53 139.57 C-258.86 138.23 -260.2 136.9 -261.54 135.57 C-263.41 133.71 -265.27 131.84 -267.14 129.97 C-267.69 129.43 -268.24 128.88 -268.81 128.31 C-275.6 121.51 -277.14 117.6 -277.19 108 C-277.2 106.8 -277.22 105.61 -277.23 104.38 C-277.01 101.08 -276.59 98.88 -275 96 C-273.51 95.5 -273.51 95.5 -272 95 C-271.6 93.86 -271.6 93.86 -271.19 92.69 C-269.23 88.25 -265.61 86.63 -261.23 84.91 C-254.36 82.97 -246.01 82.6 -239.44 85.69 C-236.1 87.56 -233.66 90.27 -231 93 C-230.02 93.98 -229.04 94.96 -228.06 95.94 C-221.94 102.06 -221.94 102.06 -220.45 103.56 C-219.07 104.93 -217.69 106.3 -216.3 107.66 C-214.48 109.51 -212.82 111.36 -211.19 113.38 C-209.07 115.88 -206.88 118.04 -204.38 120.15 C-199.59 124.28 -195.18 128.74 -190.75 133.25 C-189.18 134.84 -187.62 136.43 -186.05 138.02 C-185.36 138.71 -184.68 139.4 -183.98 140.12 C-182.08 141.92 -180.13 143.48 -178 145 C-173.75 143.35 -170.93 140.19 -167.8 137.01 C-167.19 136.4 -166.57 135.78 -165.94 135.15 C-163.92 133.12 -161.91 131.09 -159.89 129.05 C-158.48 127.64 -157.07 126.22 -155.66 124.8 C-151.94 121.08 -148.23 117.34 -144.52 113.6 C-138.6 107.64 -132.67 101.68 -126.74 95.73 C-124.68 93.65 -122.62 91.58 -120.56 89.5 C-119.28 88.21 -118 86.93 -116.72 85.64 C-116.16 85.07 -115.59 84.5 -115.01 83.91 C-112.11 81 -109.14 78.22 -106.03 75.53 C-102.11 72.14 -98.44 68.55 -94.79 64.86 C-94.12 64.18 -93.45 63.51 -92.76 62.81 C-91.32 61.36 -89.88 59.9 -88.43 58.45 C-86.15 56.14 -83.86 53.84 -81.57 51.54 C-75.06 45 -68.56 38.45 -62.07 31.9 C-58.09 27.88 -54.1 23.86 -50.1 19.85 C-48.59 18.33 -47.07 16.81 -45.57 15.28 C-43.45 13.14 -41.33 11.01 -39.21 8.88 C-38.59 8.26 -37.98 7.63 -37.35 6.99 C-26.87 -3.44 -13.58 -8.64 0 0 Z " fill="#000000" transform="translate(1118,572)"/>
<path d="M0 0 C1.01 -0 2.03 -0.01 3.07 -0.01 C4.19 -0.01 5.3 -0.01 6.45 -0.01 C8.23 -0.02 8.23 -0.02 10.04 -0.02 C13.33 -0.03 16.62 -0.04 19.91 -0.04 C23.45 -0.04 27 -0.05 30.55 -0.06 C39.11 -0.08 47.68 -0.09 56.24 -0.1 C60.27 -0.11 64.31 -0.11 68.34 -0.12 C81.74 -0.13 95.14 -0.15 108.54 -0.16 C112.01 -0.16 115.49 -0.16 118.97 -0.16 C119.83 -0.16 120.7 -0.16 121.59 -0.16 C135.6 -0.17 149.61 -0.2 163.62 -0.23 C177.99 -0.26 192.37 -0.28 206.75 -0.28 C214.82 -0.28 222.9 -0.29 230.97 -0.32 C237.85 -0.34 244.72 -0.35 251.6 -0.34 C255.1 -0.33 258.61 -0.34 262.12 -0.36 C265.92 -0.38 269.72 -0.37 273.53 -0.35 C274.64 -0.36 275.75 -0.38 276.89 -0.39 C284.38 -0.32 284.38 -0.32 288.18 2.03 C288.82 2.73 289.46 3.42 290.12 4.13 C291.35 5.19 291.35 5.19 292.62 6.26 C298.69 13.24 300.94 19.82 300.53 29.09 C299.46 36.95 295.12 42.17 289.12 47.13 C281.48 52.12 271.86 51.28 263.05 51.26 C261.97 51.26 260.89 51.26 259.78 51.27 C256.17 51.27 252.56 51.27 248.96 51.26 C246.37 51.26 243.77 51.27 241.18 51.27 C234.88 51.27 228.58 51.27 222.28 51.27 C217.15 51.27 212.03 51.27 206.9 51.27 C205.8 51.27 205.8 51.27 204.69 51.27 C203.2 51.27 201.72 51.27 200.23 51.27 C186.32 51.27 172.41 51.27 158.5 51.26 C146.58 51.26 134.66 51.26 122.75 51.26 C108.89 51.27 95.03 51.27 81.17 51.27 C79.69 51.27 78.21 51.27 76.73 51.27 C76 51.27 75.28 51.27 74.53 51.27 C69.41 51.27 64.3 51.27 59.19 51.27 C52.29 51.27 45.4 51.27 38.5 51.27 C35.98 51.26 33.45 51.26 30.93 51.27 C27.47 51.27 24.02 51.27 20.56 51.26 C19.57 51.26 18.58 51.27 17.56 51.27 C-2.54 51.21 -2.54 51.21 -9.45 46.82 C-10.42 46.23 -11.39 45.63 -12.39 45.02 C-17.4 41.23 -19.92 36.01 -21.88 30.13 C-22.56 25.16 -21.96 20.01 -20.88 15.13 C-19.89 14.47 -18.9 13.81 -17.88 13.13 C-17.64 12 -17.39 10.87 -17.13 9.7 C-15.88 6.13 -15.88 6.13 -12.32 4.32 C-11.19 3.93 -10.05 3.54 -8.88 3.13 C-8.55 2.47 -8.22 1.81 -7.88 1.13 C-4.95 0.16 -3.06 0.01 0 0 Z " fill="#010101" transform="translate(453.8842144012451,937.8657789230347)"/>
<path d="M0 0 C0.72 0.21 1.45 0.41 2.19 0.62 C5.99 1.77 8.8 3.07 11.88 5.56 C13.03 5.87 14.18 6.18 15.38 6.5 C19.13 7.64 20.26 8.77 22.88 11.56 C23.61 11.84 24.34 12.11 25.09 12.39 C28.57 13.86 31.32 15.99 34.25 18.31 C34.83 18.76 35.4 19.22 35.99 19.68 C37.13 20.58 38.26 21.47 39.38 22.37 C40.58 23.33 41.79 24.27 43 25.2 C48.1 29.31 51.92 34.37 55.88 39.56 C56.44 40.28 57 41 57.57 41.74 C60.24 45.2 62.65 48.66 64.73 52.52 C65.66 54.18 66.64 55.8 67.64 57.42 C68.27 58.46 68.91 59.49 69.56 60.56 C70.16 61.53 70.77 62.5 71.39 63.5 C73.04 66.91 73.42 69.83 73.88 73.56 C45.63 73.63 17.39 73.69 -10.85 73.72 C-23.96 73.73 -37.07 73.75 -50.19 73.79 C-61.61 73.82 -73.04 73.84 -84.46 73.84 C-90.52 73.85 -96.57 73.86 -102.62 73.88 C-108.31 73.9 -114 73.91 -119.7 73.9 C-121.79 73.9 -123.88 73.91 -125.98 73.92 C-128.83 73.93 -131.68 73.93 -134.53 73.92 C-135.36 73.93 -136.2 73.94 -137.06 73.95 C-142.73 73.91 -142.73 73.91 -144.86 72.04 C-145.28 71.55 -145.69 71.06 -146.12 70.56 C-139.53 53.52 -129.59 40.78 -117.12 27.56 C-116.37 26.76 -115.62 25.95 -114.85 25.12 C-111.16 21.28 -108.03 18.79 -103.12 16.56 C-101.77 15.25 -100.44 13.92 -99.12 12.56 C-90.63 7.17 -81.83 3.15 -72.12 0.56 C-68.33 -0.4 -68.33 -0.4 -65.12 -2.44 C-43.53 -6.06 -21.1 -5.99 0 0 Z " fill="#FBFBFB" transform="translate(575.125,123.4375)"/>
<path d="M0 0 C1.7 -0 3.4 -0.01 5.1 -0.01 C9.7 -0.02 14.29 -0.01 18.89 0.01 C23.71 0.03 28.53 0.03 33.35 0.03 C41.45 0.03 49.54 0.05 57.64 0.07 C66.98 0.11 76.32 0.12 85.67 0.11 C95.64 0.11 105.61 0.13 115.58 0.15 C118.44 0.15 121.3 0.15 124.16 0.15 C128.67 0.15 133.18 0.17 137.69 0.19 C139.34 0.19 140.98 0.19 142.63 0.19 C164.33 0.18 164.33 0.18 172.03 6.49 C176.61 11.06 179.69 16.09 181.03 22.49 C180.9 29.92 179.47 36.48 175.03 42.49 C171.74 45.49 171.74 45.49 169.03 45.49 C168.73 46.13 168.42 46.76 168.1 47.42 C167.03 49.49 167.03 49.49 166.03 50.49 C161.2 51.35 156.54 51.61 151.64 51.61 C150.93 51.61 150.22 51.62 149.49 51.62 C147.12 51.62 144.76 51.62 142.39 51.62 C140.69 51.62 138.99 51.62 137.29 51.62 C132.68 51.63 128.06 51.62 123.45 51.62 C118.62 51.62 113.79 51.62 108.95 51.62 C100.84 51.62 92.72 51.62 84.61 51.62 C75.23 51.61 65.86 51.61 56.49 51.62 C48.43 51.62 40.37 51.62 32.31 51.62 C27.51 51.62 22.7 51.62 17.89 51.62 C13.37 51.63 8.85 51.62 4.33 51.62 C2.67 51.62 1.01 51.62 -0.64 51.62 C-2.91 51.62 -5.18 51.62 -7.44 51.61 C-8.71 51.61 -9.98 51.61 -11.28 51.61 C-18.05 51.38 -22.73 51.17 -27.97 46.49 C-29.94 45.44 -31.94 44.43 -33.97 43.49 C-33.97 41.84 -33.97 40.19 -33.97 38.49 C-34.63 38.49 -35.29 38.49 -35.97 38.49 C-38.17 35.17 -38.52 33.4 -38.97 29.49 C-39.11 28.29 -39.25 27.09 -39.4 25.86 C-39.31 19.27 -35.61 12.81 -31.58 7.75 C-22.75 -0.41 -11.2 -0.08 0 0 Z " fill="#010101" transform="translate(470.965087890625,523.51416015625)"/>
<path d="M0 0 C5.09 0.01 10.19 0 15.28 -0 C19.3 -0.01 23.32 -0.01 27.34 -0 C29.21 -0 31.09 -0 32.97 -0.01 C43.03 -0.02 53.08 0.11 63.14 0.45 C64.05 0.47 64.96 0.5 65.9 0.52 C72.09 0.77 77.2 1.63 82.15 5.67 C88.69 13.58 89.85 20.41 89.6 30.57 C88.86 38.31 85.39 42.48 79.85 47.69 C71.96 52.09 62.16 51.42 53.4 51.39 C52.03 51.39 50.67 51.4 49.3 51.4 C45.61 51.41 41.93 51.41 38.24 51.4 C34.37 51.39 30.5 51.4 26.63 51.4 C20.13 51.41 13.63 51.4 7.13 51.39 C-0.36 51.38 -7.86 51.38 -15.36 51.39 C-21.82 51.4 -28.27 51.41 -34.73 51.4 C-38.58 51.4 -42.42 51.4 -46.27 51.4 C-49.89 51.41 -53.5 51.4 -57.12 51.39 C-59.07 51.39 -61.02 51.4 -62.97 51.4 C-72.93 51.35 -80.28 50.39 -88.3 44.13 C-93.34 37.93 -95.47 30.36 -95.13 22.42 C-94.48 18.65 -92.9 16.28 -90.74 13.13 C-90.26 12.26 -89.79 11.4 -89.3 10.51 C-85.56 4.82 -82.32 2.68 -75.74 1.13 C-73.51 0.91 -71.28 0.78 -69.04 0.72 C-67.73 0.68 -66.42 0.64 -65.06 0.61 C-63.62 0.57 -62.17 0.54 -60.73 0.51 C-59.19 0.48 -57.65 0.44 -56.11 0.4 C-37.41 -0.03 -18.7 -0.02 0 0 Z " fill="#010101" transform="translate(526.738525390625,729.86962890625)"/>
<path d="M0 0 C0.66 -0 1.32 -0.01 2 -0.02 C4.18 -0.03 6.37 -0.04 8.56 -0.04 C10.08 -0.05 11.59 -0.05 13.11 -0.06 C16.29 -0.07 19.47 -0.08 22.66 -0.08 C26.74 -0.08 30.82 -0.11 34.9 -0.14 C38.03 -0.16 41.16 -0.16 44.3 -0.16 C45.8 -0.17 47.31 -0.17 48.81 -0.19 C50.92 -0.2 53.02 -0.2 55.12 -0.2 C56.32 -0.2 57.52 -0.2 58.76 -0.21 C61.69 0.16 61.69 0.16 63.58 1.28 C65.24 4.08 65.07 6.38 65.06 9.62 C65.07 10.27 65.07 10.92 65.08 11.59 C65.08 13.74 65.07 15.89 65.06 18.04 C65.05 19.53 65.06 21.03 65.06 22.52 C65.06 25.65 65.05 28.78 65.03 31.9 C65.01 35.92 65 39.93 65.01 43.95 C65.01 47.03 65.01 50.11 65 53.19 C64.99 54.67 64.99 56.15 65 57.63 C65 59.7 64.98 61.77 64.97 63.83 C64.96 65.6 64.96 65.6 64.95 67.4 C64.69 70.16 64.69 70.16 62.69 72.16 C59.93 72.42 59.93 72.42 56.36 72.42 C55.71 72.42 55.06 72.43 54.4 72.43 C52.25 72.44 50.1 72.43 47.95 72.43 C46.45 72.43 44.96 72.43 43.47 72.43 C40.34 72.44 37.21 72.43 34.08 72.42 C30.07 72.41 26.05 72.42 22.04 72.43 C18.96 72.44 15.88 72.43 12.79 72.43 C11.32 72.43 9.84 72.43 8.36 72.43 C6.29 72.44 4.22 72.43 2.15 72.42 C0.97 72.42 -0.2 72.42 -1.42 72.42 C-4.31 72.16 -4.31 72.16 -7.31 70.16 C-7.68 67.31 -7.68 67.31 -7.66 63.62 C-7.67 62.94 -7.67 62.27 -7.67 61.58 C-7.67 59.36 -7.66 57.13 -7.64 54.91 C-7.63 53.37 -7.63 51.82 -7.63 50.28 C-7.63 47.05 -7.61 43.82 -7.59 40.59 C-7.56 36.43 -7.55 32.28 -7.55 28.13 C-7.54 24.95 -7.53 21.76 -7.52 18.58 C-7.51 17.05 -7.51 15.52 -7.51 13.98 C-7.5 11.85 -7.49 9.71 -7.47 7.58 C-7.46 6.36 -7.46 5.14 -7.45 3.89 C-7.19 -1.18 -4.48 0.03 0 0 Z " fill="#FBFBFB" transform="translate(251.30810546875,926.8388671875)"/>
<path d="M0 0 C1.29 0.01 2.58 0.03 3.91 0.04 C5.33 0.06 6.75 0.08 8.16 0.1 C9.61 0.12 11.06 0.14 12.5 0.16 C15.54 0.2 18.58 0.25 21.61 0.3 C25.5 0.36 29.39 0.4 33.29 0.45 C36.28 0.48 39.27 0.53 42.26 0.57 C43.69 0.59 45.12 0.61 46.56 0.63 C48.57 0.65 50.57 0.68 52.58 0.72 C53.72 0.74 54.86 0.75 56.04 0.77 C58.85 1.05 58.85 1.05 61.85 3.05 C62.22 5.87 62.22 5.87 62.21 9.51 C62.21 10.17 62.21 10.83 62.22 11.51 C62.22 13.7 62.2 15.9 62.18 18.09 C62.18 19.61 62.18 21.13 62.18 22.65 C62.17 25.83 62.16 29.02 62.14 32.2 C62.11 36.29 62.1 40.39 62.09 44.48 C62.09 47.61 62.08 50.75 62.07 53.89 C62.06 55.4 62.05 56.91 62.05 58.42 C62.04 60.52 62.03 62.62 62.01 64.73 C62.01 65.93 62 67.13 61.99 68.37 C61.85 71.05 61.85 71.05 60.85 72.05 C48.11 73.68 35.05 73.24 22.24 73.24 C18.57 73.24 14.9 73.26 11.22 73.28 C8.89 73.28 6.55 73.28 4.21 73.28 C3.12 73.29 2.02 73.3 0.89 73.31 C-0.12 73.3 -1.14 73.3 -2.18 73.3 C-3.51 73.3 -3.51 73.3 -4.87 73.3 C-7.15 73.05 -7.15 73.05 -10.15 71.05 C-10.52 68.33 -10.52 68.33 -10.52 64.83 C-10.52 63.52 -10.53 62.21 -10.54 60.87 C-10.53 59.43 -10.52 58 -10.51 56.56 C-10.51 55.09 -10.51 53.63 -10.51 52.16 C-10.51 49.08 -10.5 46 -10.48 42.92 C-10.46 38.98 -10.46 35.04 -10.47 31.09 C-10.47 28.06 -10.46 25.03 -10.45 22 C-10.45 20.55 -10.45 19.09 -10.45 17.64 C-10.45 15.6 -10.44 13.57 -10.42 11.53 C-10.41 9.8 -10.41 9.8 -10.41 8.03 C-10.15 5.13 -9.75 3.46 -8.15 1.05 C-5.36 -0.34 -3.12 -0.04 0 0 Z " fill="#FBFBFB" transform="translate(254.146240234375,512.946533203125)"/>
<path d="M0 0 C1.31 0.01 2.62 0.02 3.97 0.03 C5.41 0.05 6.84 0.07 8.27 0.08 C9.74 0.1 11.21 0.12 12.68 0.13 C15.75 0.17 18.83 0.21 21.91 0.26 C25.85 0.31 29.8 0.35 33.74 0.38 C36.77 0.41 39.8 0.45 42.84 0.49 C44.29 0.51 45.75 0.53 47.2 0.54 C49.23 0.55 51.26 0.59 53.3 0.62 C55.03 0.64 55.03 0.64 56.8 0.66 C59.65 1.07 59.65 1.07 61.52 2.2 C63.19 4.97 63.02 7.22 63.02 10.44 C63.03 12.41 63.03 12.41 63.04 14.42 C63.03 15.86 63.02 17.29 63.01 18.73 C63.01 20.2 63.01 21.67 63.01 23.14 C63.01 26.22 63 29.3 62.98 32.38 C62.96 36.34 62.96 40.29 62.97 44.24 C62.97 47.28 62.96 50.32 62.96 53.35 C62.95 54.81 62.95 56.27 62.95 57.73 C62.95 59.76 62.94 61.8 62.92 63.83 C62.92 65.57 62.92 65.57 62.91 67.34 C62.65 70.07 62.65 70.07 60.65 72.07 C57.84 72.32 57.84 72.32 54.21 72.33 C53.55 72.33 52.89 72.34 52.21 72.34 C50.02 72.35 47.84 72.34 45.65 72.33 C44.13 72.34 42.61 72.34 41.1 72.34 C37.92 72.34 34.74 72.34 31.55 72.33 C27.47 72.32 23.39 72.33 19.31 72.34 C16.17 72.34 13.04 72.34 9.91 72.34 C8.4 72.34 6.9 72.34 5.39 72.34 C3.29 72.35 1.19 72.34 -0.91 72.33 C-2.11 72.33 -3.31 72.32 -4.54 72.32 C-7.35 72.07 -7.35 72.07 -9.35 70.07 C-9.59 67.21 -9.59 67.21 -9.58 63.51 C-9.58 62.84 -9.58 62.16 -9.58 61.47 C-9.58 59.24 -9.56 57.01 -9.55 54.78 C-9.54 53.24 -9.54 51.69 -9.54 50.15 C-9.53 46.08 -9.51 42.01 -9.49 37.95 C-9.47 33.8 -9.46 29.65 -9.45 25.5 C-9.43 17.36 -9.39 9.21 -9.35 1.07 C-6 -0.05 -3.53 -0.03 0 0 Z " fill="#FBFBFB" transform="translate(253.3515625,719.9306640625)"/>
<path d="M0 0 C-0.33 0.99 -0.66 1.98 -1 3 C-1.65 2.84 -2.31 2.68 -2.98 2.51 C-6.77 1.87 -10.49 1.86 -14.33 1.88 C-15.59 1.88 -15.59 1.88 -16.88 1.87 C-19.7 1.87 -22.53 1.88 -25.36 1.88 C-27.4 1.88 -29.44 1.88 -31.48 1.88 C-37.1 1.87 -42.72 1.88 -48.34 1.88 C-54.4 1.89 -60.46 1.89 -66.52 1.89 C-77.02 1.89 -87.52 1.89 -98.02 1.89 C-109.03 1.9 -120.04 1.9 -131.05 1.91 C-132.08 1.91 -132.08 1.91 -133.13 1.91 C-136.6 1.91 -140.08 1.91 -143.56 1.91 C-168.18 1.91 -192.81 1.92 -217.44 1.92 C-241.36 1.93 -265.29 1.94 -289.22 1.95 C-290.32 1.95 -290.32 1.95 -291.45 1.95 C-298.85 1.95 -306.26 1.95 -313.67 1.95 C-328.75 1.95 -343.84 1.95 -358.92 1.96 C-359.62 1.96 -360.31 1.96 -361.02 1.96 C-407.35 1.97 -453.67 1.98 -500 2 C-500 1.67 -500 1.34 -500 1 C-453.21 0.9 -406.41 0.81 -359.62 0.71 C-358.93 0.71 -358.24 0.71 -357.52 0.71 C-342.47 0.68 -327.42 0.65 -312.37 0.62 C-304.99 0.6 -297.61 0.59 -290.23 0.57 C-289.13 0.57 -289.13 0.57 -288.01 0.57 C-264.2 0.52 -240.39 0.47 -216.59 0.42 C-192.12 0.37 -167.66 0.32 -143.2 0.27 C-139.74 0.27 -136.29 0.26 -132.83 0.25 C-131.81 0.25 -131.81 0.25 -130.77 0.25 C-119.82 0.23 -108.88 0.2 -97.93 0.18 C-86.92 0.16 -75.92 0.14 -64.91 0.11 C-58.95 0.1 -52.99 0.09 -47.02 0.08 C-41.56 0.07 -36.11 0.06 -30.65 0.04 C-28.67 0.04 -26.7 0.04 -24.72 0.03 C-22.04 0.03 -19.35 0.02 -16.67 0.02 C-15.52 0.01 -15.52 0.01 -14.34 0.01 C-9.56 0 -4.78 -0 0 0 Z " fill="#615F5F" transform="translate(815,246)"/>
<path d="M0 0 C0.99 0.5 0.99 0.5 2 1 C-52.45 55.45 -106.9 109.9 -163 166 C-163.33 165.01 -163.66 164.02 -164 163 C-162.91 162.04 -162.91 162.04 -161.8 161.05 C-160.78 160.14 -159.77 159.23 -158.75 158.31 C-157.29 157.01 -157.29 157.01 -155.8 155.68 C-152.57 152.66 -149.61 149.42 -146.64 146.15 C-139.95 138.86 -133 131.86 -126 124.87 C-124.64 123.51 -123.29 122.15 -121.93 120.79 C-118.28 117.14 -114.63 113.5 -110.98 109.85 C-107.15 106.02 -103.32 102.19 -99.49 98.36 C-93.08 91.94 -86.66 85.53 -80.24 79.11 C-72.82 71.7 -65.4 64.27 -57.98 56.85 C-51.6 50.46 -45.21 44.08 -38.83 37.69 C-35.02 33.88 -31.21 30.08 -27.4 26.27 C-23.83 22.69 -20.26 19.13 -16.69 15.56 C-15.38 14.25 -14.07 12.94 -12.75 11.62 C-10.97 9.84 -9.19 8.05 -7.4 6.27 C-6.88 5.75 -6.35 5.22 -5.81 4.68 C-2.23 1.11 -2.23 1.11 0 0 Z " fill="#D0D0D0" transform="translate(1127,613)"/>
<path d="M0 0 C0.33 0 0.66 0 1 0 C1 22.11 1 44.22 1 67 C0.67 67 0.34 67 0 67 C0 47.86 0 28.72 0 9 C-6.6 9 -13.2 9 -20 9 C-20.66 8.01 -21.32 7.02 -22 6 C-11.61 5.5 -11.61 5.5 -1 5 C-0.67 3.35 -0.34 1.7 0 0 Z " fill="#CECECE" transform="translate(315,930)"/>
<path d="M0 0 C4.13 1.64 6.93 4.62 10.01 7.71 C10.86 8.55 10.86 8.55 11.73 9.41 C12.92 10.6 14.11 11.79 15.3 12.98 C17.12 14.8 18.95 16.61 20.78 18.42 C21.94 19.57 23.1 20.73 24.26 21.89 C24.8 22.43 25.35 22.97 25.91 23.52 C28.84 26.48 30.79 28.99 32 33 C25.54 27.72 19.68 21.87 13.79 15.98 C12.05 14.24 10.3 12.5 8.54 10.77 C7.44 9.66 6.33 8.56 5.22 7.45 C4.44 6.68 4.44 6.68 3.63 5.88 C0 2.23 0 2.23 0 0 Z " fill="#D0D0D0" transform="translate(836,790)"/>
<path d="M0 0 C8.57 -0.05 17.14 -0.08 25.71 -0.1 C29.69 -0.11 33.67 -0.13 37.65 -0.15 C41.49 -0.17 45.33 -0.18 49.17 -0.19 C50.63 -0.19 52.1 -0.2 53.57 -0.21 C55.62 -0.23 57.66 -0.23 59.71 -0.23 C60.88 -0.23 62.05 -0.24 63.25 -0.24 C66 0 66 0 68 2 C68.27 4.69 68.09 7.29 68 10 C67.67 10 67.34 10 67 10 C67 8.02 67 6.04 67 4 C66.34 4 65.68 4 65 4 C65 3.34 65 2.68 65 2 C43.55 1.67 22.1 1.34 0 1 C0 0.67 0 0.34 0 0 Z " fill="#303030" transform="translate(250,720)"/>
<path d="M0 0 C0.33 0 0.66 0 1 0 C1 22.44 1 44.88 1 68 C0.67 68 0.34 68 0 68 C-0.25 67.05 -0.5 66.1 -0.75 65.12 C-1.69 61.91 -1.69 61.91 -4.12 60.62 C-4.74 60.42 -5.36 60.21 -6 60 C-4.35 59.34 -2.7 58.68 -1 58 C-0.67 38.86 -0.34 19.72 0 0 Z " fill="#D0D0D0" transform="translate(315,516)"/>
<path d="M0 0 C7.9 5.55 14.99 11.66 20 20 C16.77 18.58 14.6 16.86 12.11 14.38 C11.05 13.32 11.05 13.32 9.96 12.23 C9.23 11.5 8.5 10.76 7.75 10 C7 9.26 6.26 8.53 5.49 7.77 C4.79 7.06 4.08 6.35 3.36 5.62 C2.71 4.98 2.07 4.33 1.41 3.66 C0 2 0 2 0 0 Z " fill="#D0D0D0" transform="translate(1105,531)"/>
<path d="M0 0 C0.33 0 0.66 0 1 0 C1 11.55 1 23.1 1 35 C0.67 35 0.34 35 0 35 C0 33.02 0 31.04 0 29 C-0.66 29 -1.32 29 -2 29 C-2 28.01 -2 27.02 -2 26 C-1.34 26 -0.68 26 0 26 C0 17.42 0 8.84 0 0 Z " fill="#323232" transform="translate(317,549)"/>
<path d="M0 0 C0.33 0 0.66 0 1 0 C1 9.57 1 19.14 1 29 C0.34 28.67 -0.32 28.34 -1 28 C-1 27.34 -1 26.68 -1 26 C-1.99 25.67 -2.98 25.34 -4 25 C-3.01 24.34 -2.02 23.68 -1 23 C-0.49 20.58 -0.49 20.58 -0.49 17.77 C-0.45 16.74 -0.42 15.71 -0.38 14.65 C-0.36 13.57 -0.34 12.49 -0.31 11.38 C-0.28 10.29 -0.24 9.2 -0.21 8.08 C-0.13 5.39 -0.06 2.69 0 0 Z " fill="#CBCBCC" transform="translate(815,295)"/>
<path d="M0 0 C0.66 0 1.32 0 2 0 C0.39 4.07 -2.54 6.77 -5.62 9.75 C-6.14 10.26 -6.66 10.76 -7.19 11.29 C-8.45 12.53 -9.73 13.76 -11 15 C-11 12 -11 12 -9.61 10.35 C-9 9.78 -8.38 9.21 -7.75 8.62 C-5.51 6.5 -3.61 4.5 -1.69 2.06 C-1.13 1.38 -0.57 0.7 0 0 Z " fill="#D0D0D0" transform="translate(1167,845)"/>
<path d="M0 0 C0.33 0 0.66 0 1 0 C1.17 4.1 1.33 8.21 1.5 12.31 C1.55 13.48 1.6 14.65 1.64 15.85 C1.69 16.97 1.73 18.09 1.78 19.24 C1.82 20.27 1.87 21.3 1.91 22.36 C1.97 24.24 2 26.12 2 28 C1.34 27.67 0.68 27.34 0 27 C0 18.09 0 9.18 0 0 Z " fill="#2D2D2D" transform="translate(865,219)"/>
<path d="M0 0 C0.66 0.33 1.32 0.66 2 1 C0.55 2.84 -0.91 4.67 -2.38 6.5 C-3.19 7.52 -4 8.54 -4.84 9.59 C-5.55 10.39 -6.26 11.18 -7 12 C-7.66 12 -8.32 12 -9 12 C-7.56 8.76 -5.74 6.38 -3.38 3.75 C-2.74 3.04 -2.11 2.34 -1.46 1.61 C-0.98 1.08 -0.5 0.55 0 0 Z " fill="#D0D0D0" transform="translate(826,480)"/>
<path d="M0 0 C0.99 0.33 1.98 0.66 3 1 C1.55 2.51 0.09 4 -1.38 5.5 C-2.19 6.34 -3 7.17 -3.84 8.03 C-6 10 -6 10 -8 10 C-6.44 6.18 -3.97 3.81 -1 1 C-0.67 0.67 -0.34 0.34 0 0 Z " fill="#2F2F2F" transform="translate(963,757)"/>
</svg>
