<svg id="Layer_3" data-name="Layer 3" xmlns="http://www.w3.org/2000/svg" viewBox="0 0 32 32"><defs><style>.cls-1{fill:#747987;}</style></defs><title>Price tag</title><path class="cls-1" d="M10.93,25.94a4.65,4.65,0,0,0,6.57,0l7.38-7.39a3.37,3.37,0,0,0,1-2.38L26,7.47,27.7,5.72A1,1,0,1,0,26.28,4.3L24.53,6.05l-8.7.07a3.35,3.35,0,0,0-2.38,1L6.06,14.5a4.65,4.65,0,0,0,0,6.57Zm-3.45-10,7.38-7.39a1.43,1.43,0,0,1,1-.41l6.68,0L21,9.64a1,1,0,0,0,0,1.41,1,1,0,0,0,1.41,0l1.57-1.57-.05,6.68a1.43,1.43,0,0,1-.41,1l-7.39,7.38a2.64,2.64,0,0,1-3.73,0L7.48,19.65A2.64,2.64,0,0,1,7.48,15.92Z"/></svg>