<svg xmlns="http://www.w3.org/2000/svg" viewBox="0 0 32 32"><defs><style>.cls-1{fill:#747987;}</style></defs><title>Reload</title><g id="Layer_4" data-name="Layer 4"><path class="cls-1" d="M26.4,10.26a1,1,0,0,0-1.35.43L24,12.82a8.6,8.6,0,0,0-16-1.56,1,1,0,0,0,1.8.88A6.59,6.59,0,0,1,22,13.34l0,.06L20,12.31A1,1,0,1,0,19,14.09l4.25,2.2a.91.91,0,0,0,.45.11,1,1,0,0,0,.89-.54l2.2-4.25A1,1,0,0,0,26.4,10.26ZM23.27,14l.07,0,0,.05Z"/><path class="cls-1" d="M23.55,20.59A1,1,0,0,0,22.2,21,6.59,6.59,0,0,1,10,19.66s0,0,0-.06l2.09,1.09A1,1,0,1,0,13,18.91l-4.25-2.2a1,1,0,0,0-1.34.43l-2.2,4.25a1,1,0,0,0,.42,1.35,1.11,1.11,0,0,0,.46.11A1,1,0,0,0,7,22.31l1.1-2.13a8.62,8.62,0,0,0,8.32,6.38,8.89,8.89,0,0,0,2.21-.29A8.64,8.64,0,0,0,24,21.94,1,1,0,0,0,23.55,20.59ZM8.69,19l0,0-.07,0Z"/></g></svg>