<svg id="Layer_3" data-name="Layer 3" xmlns="http://www.w3.org/2000/svg" viewBox="0 0 32 32"><defs><style>.cls-1{fill:#747987;}</style></defs><title>Stock</title><path class="cls-1" d="M4.57,28.43H27.43a1,1,0,0,0,1-1V16a1,1,0,0,0-1-1H22.71V4.57a1,1,0,0,0-1-1H10.29a1,1,0,0,0-1,1V15H4.57a1,1,0,0,0-1,1V27.43A1,1,0,0,0,4.57,28.43Zm21.86-2H17V17h9.43ZM11.29,5.57h9.42V15H11.29ZM5.57,17H15v9.43H5.57Z"/><path class="cls-1" d="M13,18H7.61a1,1,0,1,0,0,2H13a1,1,0,0,0,0-2Z"/><path class="cls-1" d="M18,19a1,1,0,0,0,1,1h5.35a1,1,0,0,0,0-2H19A1,1,0,0,0,18,19Z"/><path class="cls-1" d="M19.67,7.6a1,1,0,0,0-1-1H13.33a1,1,0,0,0,0,2h5.34A1,1,0,0,0,19.67,7.6Z"/></svg>