<svg id="Layer_3" data-name="Layer 3" xmlns="http://www.w3.org/2000/svg" viewBox="0 0 32 32"><defs><style>.cls-1{fill:#747987;}</style></defs><title>Store</title><path class="cls-1" d="M5.72,16.93V27.59a1,1,0,0,0,1,1H25.28a1,1,0,0,0,1-1V16.93a3.89,3.89,0,0,0,2.47-3.61v-.56a.93.93,0,0,0-.07-.33v0h0l-2-5v-3a1,1,0,0,0-1-1H6.32a1,1,0,0,0-1,1v3l-2,5h0v0a.93.93,0,0,0-.07.33v.56A3.89,3.89,0,0,0,5.72,16.93ZM7,8.58H25l1.27,3.21H5.73Zm13.81,5.21A1.89,1.89,0,0,1,19,15.21h-.09a1.89,1.89,0,0,1-1.83-1.42Zm-5.87,0a1.89,1.89,0,0,1-1.83,1.42H13a1.89,1.89,0,0,1-1.83-1.42Zm-5.87,0a1.91,1.91,0,0,1-1.83,1.42H7.15a1.89,1.89,0,0,1-1.83-1.42Zm6.41,12.8V22h4.7v4.62Zm6.7,0V21a1,1,0,0,0-1-1h-6.7a1,1,0,0,0-1,1v5.62H7.72V17.16a3.89,3.89,0,0,0,2.41-1.26A3.86,3.86,0,0,0,13,17.21h.09A3.86,3.86,0,0,0,16,15.9a3.86,3.86,0,0,0,2.89,1.31H19a3.86,3.86,0,0,0,2.89-1.31,3.89,3.89,0,0,0,2.41,1.26v9.43Zm2.67-11.38h-.09a1.91,1.91,0,0,1-1.83-1.42h3.75A1.89,1.89,0,0,1,24.85,15.21ZM7.32,5.41H24.69V6.58H7.32Z"/></svg>