<svg id="Layer_3" data-name="Layer 3" xmlns="http://www.w3.org/2000/svg" viewBox="0 0 32 32"><defs><style>.cls-1{fill:#747987;}</style></defs><title>Transaction</title><path class="cls-1" d="M26,12.79s0-.07,0-.11a.24.24,0,0,0,0-.08.71.71,0,0,0,0-.2.49.49,0,0,0-.06-.17.78.78,0,0,0-.1-.15,1,1,0,0,0-.14-.15s0,0-.06-.06L19,7.16a1,1,0,1,0-1.17,1.63l4,2.89H7a1,1,0,0,0,0,2H25a1,1,0,0,0,.42-.1l.1-.06a1.21,1.21,0,0,0,.24-.21s0,0,0-.05l.05-.09a1.08,1.08,0,0,0,.08-.19A1.29,1.29,0,0,0,26,12.79Z"/><path class="cls-1" d="M26,19.32a1,1,0,0,0-1-1H6.92l-.2,0-.17.07a.78.78,0,0,0-.15.1l-.16.14s0,0,0,.06l-.05.09a1.08,1.08,0,0,0-.08.19,1.29,1.29,0,0,0,0,.19s0,.07,0,.11a.24.24,0,0,0,0,.08.71.71,0,0,0,0,.2.49.49,0,0,0,.06.17.78.78,0,0,0,.1.15,1,1,0,0,0,.14.15s0,.05.06.06L13,24.84a1,1,0,0,0,.58.18,1,1,0,0,0,.59-1.81l-4-2.89H25A1,1,0,0,0,26,19.32Z"/></svg>